<svg xmlns="http://www.w3.org/2000/svg" xmlns:xlink="http://www.w3.org/1999/xlink" width="1587" zoomAndPan="magnify" viewBox="0 0 1190.25 1683.749945" height="2245" preserveAspectRatio="xMidYMid meet" version="1.0"><defs><g><g id="id1"/></g><clipPath id="id2"><path d="M 384 642 L 800 642 L 800 956 L 384 956 Z M 384 642 " clip-rule="nonzero"/></clipPath><clipPath id="id3"><path d="M 590.925781 573.851562 L 810.101562 711.347656 L 599.8125 1046.558594 L 380.636719 909.0625 Z M 590.925781 573.851562 " clip-rule="nonzero"/></clipPath><clipPath id="id4"><path d="M 590.925781 573.851562 L 810.101562 711.347656 L 599.8125 1046.558594 L 380.636719 909.0625 Z M 590.925781 573.851562 " clip-rule="nonzero"/></clipPath><clipPath id="id5"><path d="M 608 523 L 728 523 L 728 579 L 608 579 Z M 608 523 " clip-rule="nonzero"/></clipPath><clipPath id="id6"><path d="M 483.507812 440.964844 L 736.449219 472.765625 L 707.019531 706.828125 L 454.082031 675.027344 Z M 483.507812 440.964844 " clip-rule="nonzero"/></clipPath><clipPath id="id7"><path d="M 483.507812 440.964844 L 736.449219 472.765625 L 707.019531 706.828125 L 454.082031 675.027344 Z M 483.507812 440.964844 " clip-rule="nonzero"/></clipPath><clipPath id="id8"><path d="M 535 573 L 589 573 L 589 688 L 535 688 Z M 535 573 " clip-rule="nonzero"/></clipPath><clipPath id="id9"><path d="M 483.507812 440.964844 L 736.449219 472.765625 L 707.019531 706.828125 L 454.082031 675.027344 Z M 483.507812 440.964844 " clip-rule="nonzero"/></clipPath><clipPath id="id10"><path d="M 483.507812 440.964844 L 736.449219 472.765625 L 707.019531 706.828125 L 454.082031 675.027344 Z M 483.507812 440.964844 " clip-rule="nonzero"/></clipPath><clipPath id="id11"><path d="M 517 445 L 594 445 L 594 553 L 517 553 Z M 517 445 " clip-rule="nonzero"/></clipPath><clipPath id="id12"><path d="M 483.507812 440.964844 L 736.449219 472.765625 L 707.019531 706.828125 L 454.082031 675.027344 Z M 483.507812 440.964844 " clip-rule="nonzero"/></clipPath><clipPath id="id13"><path d="M 483.507812 440.964844 L 736.449219 472.765625 L 707.019531 706.828125 L 454.082031 675.027344 Z M 483.507812 440.964844 " clip-rule="nonzero"/></clipPath><clipPath id="id14"><path d="M 598 469 L 626 469 L 626 537 L 598 537 Z M 598 469 " clip-rule="nonzero"/></clipPath><clipPath id="id15"><path d="M 483.507812 440.964844 L 736.449219 472.765625 L 707.019531 706.828125 L 454.082031 675.027344 Z M 483.507812 440.964844 " clip-rule="nonzero"/></clipPath><clipPath id="id16"><path d="M 483.507812 440.964844 L 736.449219 472.765625 L 707.019531 706.828125 L 454.082031 675.027344 Z M 483.507812 440.964844 " clip-rule="nonzero"/></clipPath><clipPath id="id17"><path d="M 468 542 L 564 542 L 564 584 L 468 584 Z M 468 542 " clip-rule="nonzero"/></clipPath><clipPath id="id18"><path d="M 483.507812 440.964844 L 736.449219 472.765625 L 707.019531 706.828125 L 454.082031 675.027344 Z M 483.507812 440.964844 " clip-rule="nonzero"/></clipPath><clipPath id="id19"><path d="M 483.507812 440.964844 L 736.449219 472.765625 L 707.019531 706.828125 L 454.082031 675.027344 Z M 483.507812 440.964844 " clip-rule="nonzero"/></clipPath><clipPath id="id20"><path d="M 595 578 L 633 578 L 633 635 L 595 635 Z M 595 578 " clip-rule="nonzero"/></clipPath><clipPath id="id21"><path d="M 483.507812 440.964844 L 736.449219 472.765625 L 707.019531 706.828125 L 454.082031 675.027344 Z M 483.507812 440.964844 " clip-rule="nonzero"/></clipPath><clipPath id="id22"><path d="M 483.507812 440.964844 L 736.449219 472.765625 L 707.019531 706.828125 L 454.082031 675.027344 Z M 483.507812 440.964844 " clip-rule="nonzero"/></clipPath></defs><g clip-path="url(#id2)"><g clip-path="url(#id3)"><g clip-path="url(#id4)"><path fill="rgb(0%, 50.19989%, 21.569824%)" d="M 798.972656 728.6875 C 799.679688 727.566406 798.671875 726.472656 797.660156 726.464844 C 797.519531 726.332031 797.347656 726.21875 797.136719 726.136719 C 784.675781 721.335938 772.660156 727.996094 763.527344 736.246094 C 753.476562 745.324219 745.839844 756.589844 736.886719 766.667969 C 730.839844 773.476562 724.210938 779.804688 716.5 784.679688 C 720.882812 767.414062 726.125 749.488281 723.96875 731.582031 C 722.824219 722.078125 719.539062 713.007812 716.484375 703.984375 C 713.078125 693.921875 710.476562 683.667969 708.03125 673.339844 C 706.683594 667.640625 705.285156 661.980469 703.726562 656.335938 C 703.03125 653.8125 702.371094 651.269531 701.984375 648.671875 C 701.6875 646.679688 702.296875 644.179688 700.652344 642.804688 C 700.136719 642.371094 699.53125 642.171875 698.890625 642.492188 C 694.015625 644.9375 689.773438 648.507812 686.988281 653.242188 C 684.359375 657.707031 683.128906 662.828125 682.757812 667.964844 C 681.933594 679.34375 684.871094 690.820312 687.972656 701.679688 C 691.019531 712.363281 695.054688 722.855469 694.542969 734.140625 C 694.292969 739.652344 693.269531 745.125 691.625 750.417969 C 690.558594 741.292969 689.058594 732.21875 685.125 723.808594 C 682.699219 718.632812 679.460938 713.761719 676.570312 708.828125 C 668.996094 695.921875 661.449219 682.988281 654.132812 669.9375 C 652.625 667.25 651.125 664.558594 649.679688 661.835938 C 649.183594 660.898438 648.6875 659.960938 648.21875 659.007812 C 648.058594 658.6875 647.90625 658.367188 647.757812 658.042969 C 647.636719 657.769531 647.480469 657.332031 647.578125 657.628906 C 647.316406 656.839844 646.320312 656.070312 645.472656 656.65625 C 640.976562 659.757812 637.648438 664.046875 636.414062 669.441406 C 635.21875 674.648438 635.839844 680.128906 637.320312 685.21875 C 639.0625 691.199219 641.976562 696.824219 644.597656 702.453125 C 647.382812 708.4375 650.175781 714.441406 652.390625 720.664062 C 654.691406 727.136719 656.511719 734.035156 657.140625 740.886719 C 657.144531 740.933594 657.152344 740.976562 657.160156 741.023438 C 652.152344 741.765625 647.238281 743.199219 642.898438 744.96875 C 642.492188 745.132812 642.089844 745.308594 641.6875 745.484375 C 640.9375 741.238281 639.175781 737.175781 637.328125 733.3125 C 635.03125 728.496094 632.390625 723.855469 630.015625 719.082031 C 627.480469 713.984375 625.527344 708.617188 623.125 703.453125 C 620.355469 697.503906 617.292969 691.691406 613.96875 686.035156 C 613.605469 685.421875 612.667969 684.949219 611.992188 685.417969 C 601.871094 692.40625 603.386719 705.675781 606.679688 715.992188 C 609.648438 725.304688 614.480469 733.90625 617.625 743.171875 C 618.546875 745.882812 619.386719 748.648438 619.910156 751.46875 C 620.253906 753.332031 620.597656 755.464844 619.914062 757.289062 C 618.523438 758.023438 617.128906 758.734375 615.703125 759.402344 C 610.351562 761.902344 604.671875 763.675781 599.066406 765.523438 C 593.652344 767.304688 588.222656 769.027344 582.808594 770.816406 C 578.109375 772.371094 573.46875 773.945312 568.613281 774.949219 C 563.84375 775.929688 559.007812 776.523438 554.15625 776.914062 C 544.667969 777.675781 535.132812 777.730469 525.636719 778.449219 C 516.0625 779.179688 506.566406 780.636719 497.507812 783.898438 C 488.636719 787.085938 480.425781 791.726562 472.851562 797.300781 C 465.167969 802.957031 458.195312 809.519531 451.542969 816.339844 C 446.558594 821.460938 441.558594 826.628906 436.988281 832.132812 C 428.902344 841.867188 421.417969 852.125 413.949219 862.339844 C 406.0625 873.117188 398.269531 883.96875 390.703125 894.972656 C 389.472656 896.761719 388.25 898.5625 387.046875 900.367188 C 386.132812 901.742188 384.210938 903.726562 385.277344 905.398438 C 386.886719 907.914062 389.433594 910.152344 391.582031 912.191406 C 394.171875 914.65625 396.910156 916.964844 399.71875 919.175781 C 411.570312 928.496094 424.753906 936.183594 438.179688 942.996094 C 443.859375 945.878906 449.632812 948.609375 455.507812 951.066406 C 459.109375 952.574219 462.832031 954.191406 466.660156 955.019531 C 467.679688 955.242188 468.5625 955.335938 469.585938 955.164062 C 470.28125 955.050781 470.621094 954.410156 470.722656 953.785156 C 471.300781 950.144531 472.953125 946.484375 474.253906 943.050781 C 474.964844 941.164062 475.796875 939.320312 476.648438 937.488281 C 479.1875 932.042969 481.960938 926.699219 484.785156 921.398438 C 490.964844 909.789062 497.414062 898.269531 504.445312 887.148438 C 506.363281 884.105469 508.476562 880.371094 510.855469 877.996094 C 511.355469 877.5 511.714844 877.355469 512.125 877.207031 C 513.195312 876.808594 514.308594 876.515625 515.414062 876.234375 C 523.984375 874.039062 532.789062 872.65625 541.496094 871.15625 C 567.847656 866.625 594.296875 862.660156 620.601562 857.871094 C 630.773438 856.019531 641.003906 854.171875 651 851.492188 C 656.640625 849.980469 662.046875 847.765625 667.515625 845.730469 C 677.976562 841.835938 688.429688 837.910156 698.726562 833.605469 C 709.09375 829.269531 719.5625 824.691406 729.257812 818.976562 C 737.882812 813.886719 745.078125 806.789062 751.449219 799.140625 C 758.144531 791.109375 764.09375 782.453125 769.996094 773.835938 C 776.824219 763.871094 783.308594 753.679688 789.730469 743.453125 C 792.816406 738.535156 795.890625 733.605469 798.972656 728.6875 Z M 696.894531 723.394531 C 696.109375 718.375 694.5 713.472656 693.054688 708.613281 C 689.820312 697.730469 686.367188 686.625 685.675781 675.226562 C 685.320312 669.328125 685.722656 663.261719 687.996094 657.75 C 690.132812 652.570312 694.015625 648.605469 698.804688 645.871094 C 698.996094 649.855469 699.96875 653.734375 701.042969 657.574219 C 702.375 662.347656 703.5625 667.140625 704.703125 671.964844 C 707.070312 681.972656 709.429688 691.984375 712.667969 701.753906 C 715.605469 710.621094 718.960938 719.417969 720.585938 728.648438 C 722.210938 737.871094 721.503906 747.292969 719.945312 756.472656 C 718.203125 766.699219 715.449219 776.710938 712.964844 786.769531 C 709.121094 788.902344 705.113281 790.667969 700.914062 792.023438 C 695.964844 793.617188 690.898438 794.808594 685.902344 796.246094 C 676.789062 798.875 667.863281 803.363281 658.308594 804.183594 C 655.550781 804.421875 652.683594 804.046875 649.867188 803.574219 C 654.449219 798.085938 660.871094 794.300781 666.632812 790.199219 C 672.125 786.289062 676.945312 781.882812 681.109375 776.585938 C 688.972656 766.578125 694.535156 754.441406 696.640625 741.867188 C 697.660156 735.757812 697.851562 729.523438 696.894531 723.394531 Z M 650.191406 707.632812 C 647.628906 701.921875 644.875 696.300781 642.378906 690.558594 C 640.222656 685.597656 638.621094 680.25 638.703125 674.796875 C 638.789062 669.019531 641.117188 663.871094 645.503906 660.261719 C 646.78125 663.1875 648.585938 665.988281 650.105469 668.71875 C 653.609375 675.035156 657.207031 681.308594 660.816406 687.566406 C 667.144531 698.539062 673.554688 709.46875 679.992188 720.382812 C 686.550781 731.488281 688.042969 744.035156 689.386719 756.609375 C 687.308594 761.632812 684.695312 766.429688 681.667969 770.875 C 677.421875 777.117188 672.300781 782.464844 666.203125 786.925781 C 659.398438 791.90625 651.796875 796.203125 646.605469 803.003906 C 646.191406 802.933594 645.773438 802.859375 645.363281 802.792969 C 640.46875 802 635.585938 801.117188 630.707031 800.230469 C 634.519531 796.148438 638.851562 792.453125 642.957031 788.707031 C 647.085938 784.933594 651.546875 781.171875 654.238281 776.175781 C 654.285156 776.085938 654.320312 776 654.347656 775.910156 C 658.855469 772.59375 663.402344 769.363281 668.367188 766.703125 C 672.078125 764.714844 675.878906 762.894531 679.585938 760.902344 C 681.429688 759.910156 683.253906 758.882812 685.023438 757.773438 C 686.328125 756.953125 687.757812 756.226562 688.589844 754.90625 C 688.859375 754.472656 688.886719 753.90625 688.644531 753.453125 C 682.769531 742.488281 671.394531 739.628906 660.035156 740.675781 C 658.921875 729.140625 654.914062 718.132812 650.191406 707.632812 Z M 615.871094 800.5625 C 616.140625 800.511719 616.398438 800.386719 616.621094 800.167969 C 616.628906 800.164062 616.632812 800.160156 616.644531 800.15625 C 616.328125 800.480469 616.015625 800.554688 615.851562 800.578125 C 615.859375 800.570312 615.863281 800.566406 615.871094 800.5625 Z M 627.324219 799.617188 C 626.613281 799.488281 625.894531 799.359375 625.179688 799.230469 C 623.496094 798.925781 621.808594 798.621094 620.113281 798.335938 C 623.253906 796.703125 626.363281 795.078125 629.316406 793.351562 C 634.902344 790.085938 640.183594 786.296875 645.414062 782.480469 C 643.8125 784.011719 642.144531 785.476562 640.535156 786.953125 C 636.070312 791.050781 631.324219 795.058594 627.324219 799.617188 Z M 621.816406 746.816406 C 620.445312 741.890625 618.570312 737.097656 616.589844 732.390625 C 612.769531 723.308594 608.023438 714.429688 607.183594 704.433594 C 606.703125 698.695312 607.769531 692.691406 612.238281 688.871094 C 615.175781 693.964844 617.90625 699.179688 620.394531 704.507812 C 622.78125 709.613281 624.714844 714.929688 627.203125 719.988281 C 629.472656 724.597656 632.007812 729.066406 634.257812 733.683594 C 636.28125 737.828125 638.230469 742.152344 638.933594 746.738281 C 633.558594 749.332031 628.464844 752.507812 623.261719 755.449219 C 623.433594 752.558594 622.53125 749.394531 621.816406 746.816406 Z M 757.953125 785.914062 C 751.859375 794.355469 745.359375 802.617188 737.453125 809.449219 C 729.1875 816.589844 719.160156 821.269531 709.296875 825.796875 C 698.921875 830.5625 688.304688 834.78125 677.632812 838.835938 C 669.730469 841.835938 661.695312 845.207031 653.792969 847.652344 C 644.679688 850.476562 635.171875 852.171875 625.8125 853.933594 C 599.472656 858.898438 572.957031 862.882812 546.53125 867.335938 C 536.824219 868.972656 527.078125 870.546875 517.472656 872.730469 C 515.113281 873.269531 512.535156 873.738281 510.339844 874.796875 C 508.097656 875.875 506.605469 878.59375 505.261719 880.558594 C 498.277344 890.757812 492.234375 901.671875 486.289062 912.496094 C 483.101562 918.300781 479.980469 924.148438 477.019531 930.074219 C 474.949219 934.207031 472.84375 938.386719 471.257812 942.738281 C 470.121094 945.863281 468.78125 949.046875 468.0625 952.320312 C 467.773438 952.269531 467.207031 952.152344 466.679688 952.019531 C 464.921875 951.558594 463.199219 950.941406 461.492188 950.308594 C 455.972656 948.25 450.59375 945.820312 445.289062 943.265625 C 431.292969 936.523438 417.597656 928.808594 405.078125 919.585938 C 398.929688 915.054688 392.960938 910.089844 388.074219 904.1875 C 388.167969 904.042969 388.253906 903.878906 388.34375 903.742188 C 388.675781 903.226562 389.015625 902.71875 389.351562 902.207031 C 390.171875 900.964844 391.007812 899.734375 391.84375 898.503906 C 394.058594 895.246094 396.3125 892.011719 398.578125 888.789062 C 404.273438 880.679688 410.050781 872.625 415.902344 864.625 C 421.644531 856.765625 427.441406 848.941406 433.421875 841.257812 C 438.6875 834.492188 444.296875 828.175781 450.210938 821.953125 C 459.640625 812.023438 469.617188 802.378906 481.277344 795.074219 C 493.148438 787.640625 506.21875 783.421875 520.117188 781.871094 C 533.527344 780.382812 547.078125 780.8125 560.480469 779.203125 C 567.183594 778.398438 573.679688 776.953125 580.074219 774.800781 C 587.957031 772.144531 595.90625 769.675781 603.792969 767.019531 C 611.167969 764.535156 618.15625 761.703125 624.953125 757.894531 C 631.230469 754.375 637.34375 750.410156 644.015625 747.660156 C 654.84375 743.199219 669.761719 740.378906 680.027344 747.722656 C 682.335938 749.375 684.160156 751.539062 685.582031 753.96875 C 684.753906 754.734375 683.480469 755.304688 682.597656 755.835938 C 680.988281 756.808594 679.335938 757.722656 677.675781 758.609375 C 674.421875 760.335938 671.109375 761.949219 667.855469 763.664062 C 660.953125 767.308594 654.882812 771.9375 648.613281 776.539062 C 642.058594 781.351562 635.507812 786.296875 628.496094 790.445312 C 622.160156 794.191406 615.519531 797.386719 609.164062 801.09375 C 602.441406 805.019531 595.980469 809.558594 591.3125 815.878906 C 590.195312 817.390625 592.679688 818.941406 593.792969 817.433594 C 599.347656 809.917969 607.46875 805.03125 615.78125 800.609375 C 615.804688 800.621094 615.839844 800.632812 615.898438 800.652344 C 616.074219 800.722656 616.359375 800.695312 616.546875 800.71875 C 617.199219 800.796875 617.84375 800.902344 618.492188 801.007812 C 620.722656 801.371094 622.945312 801.777344 625.167969 802.179688 C 631.125 803.253906 637.074219 804.355469 643.050781 805.347656 C 647.558594 806.097656 652.210938 807.082031 656.792969 807.15625 C 660.265625 807.21875 663.816406 806.339844 667.140625 805.425781 C 671.785156 804.148438 676.285156 802.4375 680.839844 800.890625 C 690.179688 797.714844 700.082031 796.113281 709.09375 792.011719 C 711.007812 791.140625 712.878906 790.175781 714.707031 789.144531 C 714.910156 789.09375 715.09375 788.984375 715.253906 788.835938 C 721.421875 785.277344 727.074219 780.847656 732.167969 775.875 C 742.339844 765.953125 750.25 754.085938 760 743.796875 C 769.03125 734.269531 781.640625 723.847656 795.539062 728.664062 C 783.40625 748.019531 771.324219 767.386719 757.953125 785.914062 Z M 757.953125 785.914062 " fill-opacity="1" fill-rule="nonzero"/></g></g></g><g clip-path="url(#id5)"><g clip-path="url(#id6)"><g clip-path="url(#id7)"><path fill="rgb(0%, 50.19989%, 21.569824%)" d="M 608.394531 557.566406 C 614.746094 581.132812 652.066406 581.230469 671.894531 575.820312 C 698.589844 568.445312 702.339844 549.996094 727.539062 543.628906 C 702.40625 528.597656 677.34375 518.4375 652.394531 525.167969 C 625.816406 531.917969 608.6875 542.046875 608.394531 557.566406 Z M 608.394531 557.566406 " fill-opacity="1" fill-rule="evenodd"/></g></g></g><g clip-path="url(#id8)"><g clip-path="url(#id9)"><g clip-path="url(#id10)"><path fill="rgb(0%, 50.19989%, 21.569824%)" d="M 578.71875 573.128906 C 585.742188 573.777344 585.230469 599.316406 587.574219 614.671875 C 595.539062 664.5 564.058594 669.691406 551.414062 687.136719 C 546.742188 666.796875 530.277344 654.019531 536.765625 626.027344 C 542.144531 598.785156 555.148438 579.457031 578.71875 573.128906 Z M 578.71875 573.128906 " fill-opacity="1" fill-rule="evenodd"/></g></g></g><g clip-path="url(#id11)"><g clip-path="url(#id12)"><g clip-path="url(#id13)"><path fill="rgb(0%, 50.19989%, 21.569824%)" d="M 586.550781 549.660156 C 600.9375 549.082031 591.496094 519.429688 580.8125 489.542969 C 568.164062 454.425781 538.5625 459.980469 517.570312 445.375 C 523.378906 466.574219 509.761719 485.785156 524.082031 506.605469 C 543.628906 534.238281 582.710938 561.597656 586.550781 549.660156 Z M 586.550781 549.660156 " fill-opacity="1" fill-rule="evenodd"/></g></g></g><g clip-path="url(#id14)"><g clip-path="url(#id15)"><g clip-path="url(#id16)"><path fill="rgb(0%, 50.19989%, 21.569824%)" d="M 601.214844 536.9375 C 603.402344 532.148438 608.398438 531.453125 612.867188 528.386719 C 625.355469 517.074219 628.140625 502.019531 622.496094 483.449219 C 621.050781 478.96875 617.726562 474.128906 615.035156 469.421875 C 605.269531 478.3125 602.519531 487.859375 601.777344 497.128906 C 600.824219 509.28125 596.289062 507.472656 599.804688 525.308594 C 600.359375 529.3125 602.535156 533.289062 601.214844 536.9375 Z M 601.214844 536.9375 " fill-opacity="1" fill-rule="evenodd"/></g></g></g><g clip-path="url(#id17)"><g clip-path="url(#id18)"><g clip-path="url(#id19)"><path fill="rgb(0%, 50.19989%, 21.569824%)" d="M 563.976562 560.378906 C 558.71875 569.460938 556.972656 578.871094 522.976562 583.601562 C 495.683594 583.734375 486.195312 568.34375 468.4375 560.835938 C 486.136719 554.714844 494.433594 539.707031 522.515625 542.316406 C 557.605469 543.945312 556.394531 555.730469 563.976562 560.378906 Z M 563.976562 560.378906 " fill-opacity="1" fill-rule="evenodd"/></g></g></g><g clip-path="url(#id20)"><g clip-path="url(#id21)"><g clip-path="url(#id22)"><path fill="rgb(0%, 50.19989%, 21.569824%)" d="M 597.984375 578.855469 C 605.488281 578.636719 611.847656 575.914062 627 593.976562 C 636.480469 609.363281 630.132812 620.832031 631.578125 634.082031 C 621.695312 626.082031 609.1875 627.011719 601.304688 609.980469 C 589.609375 588.992188 597.820312 585 597.984375 578.855469 Z M 597.984375 578.855469 " fill-opacity="1" fill-rule="evenodd"/></g></g></g><g fill="rgb(0%, 50.19989%, 21.569824%)" fill-opacity="1"><g transform="translate(369.585519, 1081.842583)"><g><path d="M 59.09375 -22.015625 C 58.238281 -14.679688 55.53125 -9.019531 50.96875 -5.03125 C 46.414062 -1.039062 40.359375 0.953125 32.796875 0.953125 C 24.597656 0.953125 18.023438 -1.984375 13.078125 -7.859375 C 8.140625 -13.742188 5.671875 -21.609375 5.671875 -31.453125 L 5.671875 -38.125 C 5.671875 -44.570312 6.820312 -50.242188 9.125 -55.140625 C 11.425781 -60.035156 14.691406 -63.789062 18.921875 -66.40625 C 23.148438 -69.03125 28.039062 -70.34375 33.59375 -70.34375 C 40.96875 -70.34375 46.878906 -68.285156 51.328125 -64.171875 C 55.773438 -60.054688 58.363281 -54.363281 59.09375 -47.09375 L 49.90625 -47.09375 C 49.101562 -52.613281 47.375 -56.613281 44.71875 -59.09375 C 42.070312 -61.570312 38.363281 -62.8125 33.59375 -62.8125 C 27.75 -62.8125 23.164062 -60.648438 19.84375 -56.328125 C 16.53125 -52.015625 14.875 -45.867188 14.875 -37.890625 L 14.875 -31.171875 C 14.875 -23.640625 16.445312 -17.648438 19.59375 -13.203125 C 22.738281 -8.753906 27.140625 -6.53125 32.796875 -6.53125 C 37.878906 -6.53125 41.773438 -7.679688 44.484375 -9.984375 C 47.203125 -12.285156 49.007812 -16.296875 49.90625 -22.015625 Z M 59.09375 -22.015625 "/></g></g></g><g fill="rgb(0%, 50.19989%, 21.569824%)" fill-opacity="1"><g transform="translate(446.388456, 1081.842583)"><g><path d="M 46.375 -18.109375 L 17.296875 -18.109375 L 10.765625 0 L 1.328125 0 L 27.828125 -69.390625 L 35.84375 -69.390625 L 62.390625 0 L 53 0 Z M 20.0625 -25.640625 L 43.65625 -25.640625 L 31.84375 -58.09375 Z M 20.0625 -25.640625 "/></g></g></g><g fill="rgb(0%, 50.19989%, 21.569824%)" fill-opacity="1"><g transform="translate(523.334372, 1081.842583)"><g><path d="M 33.5 -28.078125 L 17.203125 -28.078125 L 17.203125 0 L 8 0 L 8 -69.390625 L 30.984375 -69.390625 C 38.796875 -69.390625 44.804688 -67.609375 49.015625 -64.046875 C 53.222656 -60.492188 55.328125 -55.316406 55.328125 -48.515625 C 55.328125 -44.191406 54.160156 -40.425781 51.828125 -37.21875 C 49.492188 -34.007812 46.242188 -31.613281 42.078125 -30.03125 L 58.390625 -0.578125 L 58.390625 0 L 48.5625 0 Z M 17.203125 -35.5625 L 31.265625 -35.5625 C 35.804688 -35.5625 39.421875 -36.734375 42.109375 -39.078125 C 44.796875 -41.429688 46.140625 -44.578125 46.140625 -48.515625 C 46.140625 -52.804688 44.859375 -56.09375 42.296875 -58.375 C 39.742188 -60.664062 36.050781 -61.828125 31.21875 -61.859375 L 17.203125 -61.859375 Z M 17.203125 -35.5625 "/></g></g></g><g fill="rgb(0%, 50.19989%, 21.569824%)" fill-opacity="1"><g transform="translate(596.705917, 1081.842583)"><g><path d="M 8.046875 0 L 8.046875 -69.390625 L 30.734375 -69.390625 C 38.265625 -69.390625 43.925781 -67.832031 47.71875 -64.71875 C 51.519531 -61.601562 53.421875 -57 53.421875 -50.90625 C 53.421875 -47.664062 52.5 -44.796875 50.65625 -42.296875 C 48.820312 -39.804688 46.316406 -37.878906 43.140625 -36.515625 C 46.878906 -35.460938 49.835938 -33.46875 52.015625 -30.53125 C 54.191406 -27.59375 55.28125 -24.085938 55.28125 -20.015625 C 55.28125 -13.785156 53.265625 -8.890625 49.234375 -5.328125 C 45.203125 -1.773438 39.5 0 32.125 0 Z M 17.203125 -32.453125 L 17.203125 -7.484375 L 32.3125 -7.484375 C 36.570312 -7.484375 39.929688 -8.585938 42.390625 -10.796875 C 44.859375 -13.003906 46.09375 -16.046875 46.09375 -19.921875 C 46.09375 -28.273438 41.546875 -32.453125 32.453125 -32.453125 Z M 17.203125 -39.796875 L 31.03125 -39.796875 C 35.03125 -39.796875 38.226562 -40.796875 40.625 -42.796875 C 43.03125 -44.796875 44.234375 -47.515625 44.234375 -50.953125 C 44.234375 -54.765625 43.117188 -57.535156 40.890625 -59.265625 C 38.671875 -60.992188 35.285156 -61.859375 30.734375 -61.859375 L 17.203125 -61.859375 Z M 17.203125 -39.796875 "/></g></g></g><g fill="rgb(0%, 50.19989%, 21.569824%)" fill-opacity="1"><g transform="translate(670.744686, 1081.842583)"><g><path d="M 61.4375 -32.453125 C 61.4375 -25.648438 60.289062 -19.710938 58 -14.640625 C 55.71875 -9.578125 52.476562 -5.710938 48.28125 -3.046875 C 44.082031 -0.378906 39.1875 0.953125 33.59375 0.953125 C 28.132812 0.953125 23.289062 -0.382812 19.0625 -3.0625 C 14.832031 -5.75 11.550781 -9.578125 9.21875 -14.546875 C 6.882812 -19.523438 5.6875 -25.289062 5.625 -31.84375 L 5.625 -36.84375 C 5.625 -43.507812 6.78125 -49.398438 9.09375 -54.515625 C 11.414062 -59.640625 14.695312 -63.554688 18.9375 -66.265625 C 23.1875 -68.984375 28.039062 -70.34375 33.5 -70.34375 C 39.0625 -70.34375 43.960938 -69 48.203125 -66.3125 C 52.453125 -63.632812 55.71875 -59.742188 58 -54.640625 C 60.289062 -49.546875 61.4375 -43.613281 61.4375 -36.84375 Z M 52.328125 -36.9375 C 52.328125 -45.164062 50.675781 -51.476562 47.375 -55.875 C 44.070312 -60.28125 39.445312 -62.484375 33.5 -62.484375 C 27.71875 -62.484375 23.164062 -60.28125 19.84375 -55.875 C 16.53125 -51.476562 14.828125 -45.375 14.734375 -37.5625 L 14.734375 -32.453125 C 14.734375 -24.484375 16.40625 -18.21875 19.75 -13.65625 C 23.101562 -9.09375 27.71875 -6.8125 33.59375 -6.8125 C 39.507812 -6.8125 44.085938 -8.960938 47.328125 -13.265625 C 50.566406 -17.578125 52.234375 -23.753906 52.328125 -31.796875 Z M 52.328125 -36.9375 "/></g></g></g><g fill="rgb(0%, 50.19989%, 21.569824%)" fill-opacity="1"><g transform="translate(751.121994, 1081.842583)"><g><path d="M 61.390625 0 L 52.1875 0 L 17.25 -53.46875 L 17.25 0 L 8.046875 0 L 8.046875 -69.390625 L 17.25 -69.390625 L 52.28125 -15.6875 L 52.28125 -69.390625 L 61.390625 -69.390625 Z M 61.390625 0 "/></g></g></g><g fill="rgb(0%, 50.19989%, 21.569824%)" fill-opacity="1"><g transform="translate(343.884501, 1218.116932)"><g><path d="M 61.390625 0 L 52.1875 0 L 17.25 -53.46875 L 17.25 0 L 8.046875 0 L 8.046875 -69.390625 L 17.25 -69.390625 L 52.28125 -15.6875 L 52.28125 -69.390625 L 61.390625 -69.390625 Z M 61.390625 0 "/></g></g></g><g fill="rgb(0%, 50.19989%, 21.569824%)" fill-opacity="1"><g transform="translate(426.740027, 1218.116932)"><g><path d="M 47.28125 -32.078125 L 17.203125 -32.078125 L 17.203125 -7.484375 L 52.140625 -7.484375 L 52.140625 0 L 8.046875 0 L 8.046875 -69.390625 L 51.671875 -69.390625 L 51.671875 -61.859375 L 17.203125 -61.859375 L 17.203125 -39.5625 L 47.28125 -39.5625 Z M 47.28125 -32.078125 "/></g></g></g><g fill="rgb(0%, 50.19989%, 21.569824%)" fill-opacity="1"><g transform="translate(495.488721, 1218.116932)"><g><path d="M 56.90625 -69.390625 L 56.90625 -22.203125 C 56.875 -15.660156 54.816406 -10.304688 50.734375 -6.140625 C 46.648438 -1.984375 41.113281 0.347656 34.125 0.859375 L 31.6875 0.953125 C 24.09375 0.953125 18.039062 -1.09375 13.53125 -5.1875 C 9.019531 -9.289062 6.734375 -14.929688 6.671875 -22.109375 L 6.671875 -69.390625 L 15.734375 -69.390625 L 15.734375 -22.40625 C 15.734375 -17.382812 17.113281 -13.484375 19.875 -10.703125 C 22.632812 -7.921875 26.570312 -6.53125 31.6875 -6.53125 C 36.875 -6.53125 40.835938 -7.910156 43.578125 -10.671875 C 46.328125 -13.441406 47.703125 -17.335938 47.703125 -22.359375 L 47.703125 -69.390625 Z M 56.90625 -69.390625 "/></g></g></g><g fill="rgb(0%, 50.19989%, 21.569824%)" fill-opacity="1"><g transform="translate(572.053354, 1218.116932)"><g><path d="M 56 -61.859375 L 33.703125 -61.859375 L 33.703125 0 L 24.59375 0 L 24.59375 -61.859375 L 2.328125 -61.859375 L 2.328125 -69.390625 L 56 -69.390625 Z M 56 -61.859375 "/></g></g></g><g fill="rgb(0%, 50.19989%, 21.569824%)" fill-opacity="1"><g transform="translate(643.566207, 1218.116932)"><g><path d="M 33.5 -28.078125 L 17.203125 -28.078125 L 17.203125 0 L 8 0 L 8 -69.390625 L 30.984375 -69.390625 C 38.796875 -69.390625 44.804688 -67.609375 49.015625 -64.046875 C 53.222656 -60.492188 55.328125 -55.316406 55.328125 -48.515625 C 55.328125 -44.191406 54.160156 -40.425781 51.828125 -37.21875 C 49.492188 -34.007812 46.242188 -31.613281 42.078125 -30.03125 L 58.390625 -0.578125 L 58.390625 0 L 48.5625 0 Z M 17.203125 -35.5625 L 31.265625 -35.5625 C 35.804688 -35.5625 39.421875 -36.734375 42.109375 -39.078125 C 44.796875 -41.429688 46.140625 -44.578125 46.140625 -48.515625 C 46.140625 -52.804688 44.859375 -56.09375 42.296875 -58.375 C 39.742188 -60.664062 36.050781 -61.828125 31.21875 -61.859375 L 17.203125 -61.859375 Z M 17.203125 -35.5625 "/></g></g></g><g fill="rgb(0%, 50.19989%, 21.569824%)" fill-opacity="1"><g transform="translate(716.937752, 1218.116932)"><g><path d="M 46.375 -18.109375 L 17.296875 -18.109375 L 10.765625 0 L 1.328125 0 L 27.828125 -69.390625 L 35.84375 -69.390625 L 62.390625 0 L 53 0 Z M 20.0625 -25.640625 L 43.65625 -25.640625 L 31.84375 -58.09375 Z M 20.0625 -25.640625 "/></g></g></g><g fill="rgb(0%, 50.19989%, 21.569824%)" fill-opacity="1"><g transform="translate(793.883668, 1218.116932)"><g><path d="M 17.25 -7.484375 L 50.140625 -7.484375 L 50.140625 0 L 8.046875 0 L 8.046875 -69.390625 L 17.25 -69.390625 Z M 17.25 -7.484375 "/></g></g></g></svg>