<svg xmlns="http://www.w3.org/2000/svg" xmlns:xlink="http://www.w3.org/1999/xlink" width="1587" zoomAndPan="magnify" viewBox="0 0 1190.25 1683.749945" height="2245" preserveAspectRatio="xMidYMid meet" version="1.0"><defs><g><g id="id1"/></g><clipPath id="id2"><path d="M 384 424 L 807 424 L 807 880.140625 L 384 880.140625 Z M 384 424 " clip-rule="nonzero"/></clipPath></defs><g clip-path="url(#id2)"><path fill="rgb(0%, 50.19989%, 21.569824%)" d="M 796.894531 426.546875 C 774.878906 413.273438 721.011719 462.324219 676.578125 536.097656 C 661.085938 561.824219 648.785156 587.160156 640.269531 609.808594 C 626.089844 603.164062 610.9375 599.40625 595.195312 599.40625 C 579.449219 599.40625 564.296875 603.164062 550.121094 609.808594 C 541.601562 587.160156 529.304688 561.824219 513.8125 536.097656 C 469.378906 462.324219 415.511719 413.273438 393.496094 426.546875 C 371.480469 439.816406 389.652344 510.382812 434.085938 584.15625 C 452.457031 614.664062 472.445312 640.941406 491.125 660.332031 C 466.53125 693.6875 451.429688 735.949219 451.429688 774.421875 C 451.429688 853.855469 515.796875 880.128906 595.195312 880.128906 C 674.59375 880.128906 738.957031 853.855469 738.957031 774.421875 C 738.957031 735.949219 723.859375 693.6875 699.265625 660.332031 C 717.945312 640.941406 737.929688 614.664062 756.304688 584.15625 C 800.734375 510.382812 818.910156 439.816406 796.894531 426.546875 Z M 796.894531 426.546875 " fill-opacity="1" fill-rule="nonzero"/></g><g fill="rgb(0%, 50.19989%, 21.569824%)" fill-opacity="1"><g transform="translate(326.884692, 1043.864702)"><g><path d="M 61.65625 -22.96875 C 60.757812 -15.3125 57.929688 -9.398438 53.171875 -5.234375 C 48.421875 -1.078125 42.097656 1 34.203125 1 C 25.648438 1 18.796875 -2.066406 13.640625 -8.203125 C 8.492188 -14.335938 5.921875 -22.539062 5.921875 -32.8125 L 5.921875 -39.78125 C 5.921875 -46.507812 7.117188 -52.425781 9.515625 -57.53125 C 11.921875 -62.632812 15.328125 -66.550781 19.734375 -69.28125 C 24.148438 -72.019531 29.253906 -73.390625 35.046875 -73.390625 C 42.742188 -73.390625 48.910156 -71.242188 53.546875 -66.953125 C 58.191406 -62.660156 60.894531 -56.71875 61.65625 -49.125 L 52.0625 -49.125 C 51.226562 -54.894531 49.425781 -59.070312 46.65625 -61.65625 C 43.894531 -64.238281 40.023438 -65.53125 35.046875 -65.53125 C 28.953125 -65.53125 24.171875 -63.273438 20.703125 -58.765625 C 17.242188 -54.265625 15.515625 -47.851562 15.515625 -39.53125 L 15.515625 -32.515625 C 15.515625 -24.660156 17.15625 -18.410156 20.4375 -13.765625 C 23.71875 -9.128906 28.304688 -6.8125 34.203125 -6.8125 C 39.503906 -6.8125 43.570312 -8.007812 46.40625 -10.40625 C 49.25 -12.8125 51.132812 -17 52.0625 -22.96875 Z M 61.65625 -22.96875 "/></g></g></g><g fill="rgb(0%, 50.19989%, 21.569824%)" fill-opacity="1"><g transform="translate(410.986184, 1043.864702)"><g><path d="M 34.953125 -29.28125 L 17.953125 -29.28125 L 17.953125 0 L 8.359375 0 L 8.359375 -72.390625 L 32.3125 -72.390625 C 40.46875 -72.390625 46.738281 -70.53125 51.125 -66.8125 C 55.519531 -63.101562 57.71875 -57.703125 57.71875 -50.609375 C 57.71875 -46.109375 56.5 -42.179688 54.0625 -38.828125 C 51.632812 -35.484375 48.25 -32.984375 43.90625 -31.328125 L 60.90625 -0.59375 L 60.90625 0 L 50.671875 0 Z M 17.953125 -37.09375 L 32.609375 -37.09375 C 37.359375 -37.09375 41.128906 -38.316406 43.921875 -40.765625 C 46.722656 -43.222656 48.125 -46.503906 48.125 -50.609375 C 48.125 -55.085938 46.789062 -58.519531 44.125 -60.90625 C 41.457031 -63.289062 37.601562 -64.5 32.5625 -64.53125 L 17.953125 -64.53125 Z M 17.953125 -37.09375 "/></g></g></g><g fill="rgb(0%, 50.19989%, 21.569824%)" fill-opacity="1"><g transform="translate(491.50764, 1043.864702)"><g><path d="M 59.359375 -72.390625 L 59.359375 -23.171875 C 59.328125 -16.335938 57.179688 -10.75 52.921875 -6.40625 C 48.660156 -2.070312 42.882812 0.359375 35.59375 0.890625 L 33.0625 1 C 25.144531 1 18.832031 -1.132812 14.125 -5.40625 C 9.414062 -9.6875 7.023438 -15.578125 6.953125 -23.078125 L 6.953125 -72.390625 L 16.40625 -72.390625 L 16.40625 -23.375 C 16.40625 -18.132812 17.847656 -14.0625 20.734375 -11.15625 C 23.617188 -8.257812 27.726562 -6.8125 33.0625 -6.8125 C 38.46875 -6.8125 42.601562 -8.253906 45.46875 -11.140625 C 48.332031 -14.023438 49.765625 -18.082031 49.765625 -23.3125 L 49.765625 -72.390625 Z M 59.359375 -72.390625 "/></g></g></g><g fill="rgb(0%, 50.19989%, 21.569824%)" fill-opacity="1"><g transform="translate(575.360505, 1043.864702)"><g><path d="M 49.328125 -33.46875 L 17.953125 -33.46875 L 17.953125 -7.8125 L 54.390625 -7.8125 L 54.390625 0 L 8.40625 0 L 8.40625 -72.390625 L 53.890625 -72.390625 L 53.890625 -64.53125 L 17.953125 -64.53125 L 17.953125 -41.265625 L 49.328125 -41.265625 Z M 49.328125 -33.46875 "/></g></g></g><g fill="rgb(0%, 50.19989%, 21.569824%)" fill-opacity="1"><g transform="translate(651.058863, 1043.864702)"><g><path d="M 18 -7.8125 L 52.3125 -7.8125 L 52.3125 0 L 8.40625 0 L 8.40625 -72.390625 L 18 -72.390625 Z M 18 -7.8125 "/></g></g></g><g fill="rgb(0%, 50.19989%, 21.569824%)" fill-opacity="1"><g transform="translate(723.674405, 1043.864702)"><g><path d="M 58.421875 -64.53125 L 35.15625 -64.53125 L 35.15625 0 L 25.65625 0 L 25.65625 -64.53125 L 2.4375 -64.53125 L 2.4375 -72.390625 L 58.421875 -72.390625 Z M 58.421875 -64.53125 "/></g></g></g><g fill="rgb(0%, 50.19989%, 21.569824%)" fill-opacity="1"><g transform="translate(802.256672, 1043.864702)"><g><path d="M 30.484375 -36.046875 L 49.375 -72.390625 L 60.21875 -72.390625 L 35.25 -27 L 35.25 0 L 25.703125 0 L 25.703125 -27 L 0.75 -72.390625 L 11.6875 -72.390625 Z M 30.484375 -36.046875 "/></g></g></g><g fill="rgb(0%, 50.19989%, 21.569824%)" fill-opacity="1"><g transform="translate(451.042203, 1186.042265)"><g><path d="M 48.328125 -31.96875 L 17.953125 -31.96875 L 17.953125 0 L 8.40625 0 L 8.40625 -72.390625 L 53.25 -72.390625 L 53.25 -64.53125 L 17.953125 -64.53125 L 17.953125 -39.78125 L 48.328125 -39.78125 Z M 48.328125 -31.96875 "/></g></g></g><g fill="rgb(0%, 50.19989%, 21.569824%)" fill-opacity="1"><g transform="translate(525.149431, 1186.042265)"><g><path d="M 34.953125 -29.28125 L 17.953125 -29.28125 L 17.953125 0 L 8.359375 0 L 8.359375 -72.390625 L 32.3125 -72.390625 C 40.46875 -72.390625 46.738281 -70.53125 51.125 -66.8125 C 55.519531 -63.101562 57.71875 -57.703125 57.71875 -50.609375 C 57.71875 -46.109375 56.5 -42.179688 54.0625 -38.828125 C 51.632812 -35.484375 48.25 -32.984375 43.90625 -31.328125 L 60.90625 -0.59375 L 60.90625 0 L 50.671875 0 Z M 17.953125 -37.09375 L 32.609375 -37.09375 C 37.359375 -37.09375 41.128906 -38.316406 43.921875 -40.765625 C 46.722656 -43.222656 48.125 -46.503906 48.125 -50.609375 C 48.125 -55.085938 46.789062 -58.519531 44.125 -60.90625 C 41.457031 -63.289062 37.601562 -64.5 32.5625 -64.53125 L 17.953125 -64.53125 Z M 17.953125 -37.09375 "/></g></g></g><g fill="rgb(0%, 50.19989%, 21.569824%)" fill-opacity="1"><g transform="translate(605.670887, 1186.042265)"><g><path d="M 49.328125 -33.46875 L 17.953125 -33.46875 L 17.953125 -7.8125 L 54.390625 -7.8125 L 54.390625 0 L 8.40625 0 L 8.40625 -72.390625 L 53.890625 -72.390625 L 53.890625 -64.53125 L 17.953125 -64.53125 L 17.953125 -41.265625 L 49.328125 -41.265625 Z M 49.328125 -33.46875 "/></g></g></g><g fill="rgb(0%, 50.19989%, 21.569824%)" fill-opacity="1"><g transform="translate(681.369228, 1186.042265)"><g><path d="M 49.328125 -33.46875 L 17.953125 -33.46875 L 17.953125 -7.8125 L 54.390625 -7.8125 L 54.390625 0 L 8.40625 0 L 8.40625 -72.390625 L 53.890625 -72.390625 L 53.890625 -64.53125 L 17.953125 -64.53125 L 17.953125 -41.265625 L 49.328125 -41.265625 Z M 49.328125 -33.46875 "/></g></g></g></svg>