<svg xmlns="http://www.w3.org/2000/svg" width="375" viewBox="0 0 375 375" height="375" version="1.0"><defs><clipPath id="a"><path d="M 183 132 L 267 132 L 267 190 L 183 190 Z M 183 132"/></clipPath><clipPath id="b"><path d="M 167.300781 148.367188 L 203.363281 112.304688 L 272.835938 181.777344 L 236.773438 217.839844 Z M 167.300781 148.367188"/></clipPath><clipPath id="c"><path d="M 167.300781 148.367188 L 203.363281 112.304688 L 272.835938 181.777344 L 236.773438 217.839844 Z M 167.300781 148.367188"/></clipPath><clipPath id="d"><path d="M 198 169 L 208 169 L 208 173 L 198 173 Z M 198 169"/></clipPath><clipPath id="e"><path d="M 167.300781 148.367188 L 203.363281 112.304688 L 272.835938 181.777344 L 236.773438 217.839844 Z M 167.300781 148.367188"/></clipPath><clipPath id="f"><path d="M 167.300781 148.367188 L 203.363281 112.304688 L 272.835938 181.777344 L 236.773438 217.839844 Z M 167.300781 148.367188"/></clipPath><clipPath id="g"><path d="M 202 176 L 215 176 L 215 182 L 202 182 Z M 202 176"/></clipPath><clipPath id="h"><path d="M 167.300781 148.367188 L 203.363281 112.304688 L 272.835938 181.777344 L 236.773438 217.839844 Z M 167.300781 148.367188"/></clipPath><clipPath id="i"><path d="M 167.300781 148.367188 L 203.363281 112.304688 L 272.835938 181.777344 L 236.773438 217.839844 Z M 167.300781 148.367188"/></clipPath><clipPath id="j"><path d="M 222 182 L 233 182 L 233 188 L 222 188 Z M 222 182"/></clipPath><clipPath id="k"><path d="M 167.300781 148.367188 L 203.363281 112.304688 L 272.835938 181.777344 L 236.773438 217.839844 Z M 167.300781 148.367188"/></clipPath><clipPath id="l"><path d="M 167.300781 148.367188 L 203.363281 112.304688 L 272.835938 181.777344 L 236.773438 217.839844 Z M 167.300781 148.367188"/></clipPath><clipPath id="m"><path d="M 189 142 L 191 142 L 191 146 L 189 146 Z M 189 142"/></clipPath><clipPath id="n"><path d="M 167.300781 148.367188 L 203.363281 112.304688 L 272.835938 181.777344 L 236.773438 217.839844 Z M 167.300781 148.367188"/></clipPath><clipPath id="o"><path d="M 167.300781 148.367188 L 203.363281 112.304688 L 272.835938 181.777344 L 236.773438 217.839844 Z M 167.300781 148.367188"/></clipPath><clipPath id="p"><path d="M 193 148 L 197 148 L 197 151 L 193 151 Z M 193 148"/></clipPath><clipPath id="q"><path d="M 167.300781 148.367188 L 203.363281 112.304688 L 272.835938 181.777344 L 236.773438 217.839844 Z M 167.300781 148.367188"/></clipPath><clipPath id="r"><path d="M 167.300781 148.367188 L 203.363281 112.304688 L 272.835938 181.777344 L 236.773438 217.839844 Z M 167.300781 148.367188"/></clipPath><clipPath id="s"><path d="M 206 179 L 210 179 L 210 181 L 206 181 Z M 206 179"/></clipPath><clipPath id="t"><path d="M 167.300781 148.367188 L 203.363281 112.304688 L 272.835938 181.777344 L 236.773438 217.839844 Z M 167.300781 148.367188"/></clipPath><clipPath id="u"><path d="M 167.300781 148.367188 L 203.363281 112.304688 L 272.835938 181.777344 L 236.773438 217.839844 Z M 167.300781 148.367188"/></clipPath><clipPath id="v"><path d="M 202 174 L 205 174 L 205 176 L 202 176 Z M 202 174"/></clipPath><clipPath id="w"><path d="M 167.300781 148.367188 L 203.363281 112.304688 L 272.835938 181.777344 L 236.773438 217.839844 Z M 167.300781 148.367188"/></clipPath><clipPath id="x"><path d="M 167.300781 148.367188 L 203.363281 112.304688 L 272.835938 181.777344 L 236.773438 217.839844 Z M 167.300781 148.367188"/></clipPath><clipPath id="y"><path d="M 205 140 L 208 140 L 208 144 L 205 144 Z M 205 140"/></clipPath><clipPath id="z"><path d="M 167.300781 148.367188 L 203.363281 112.304688 L 272.835938 181.777344 L 236.773438 217.839844 Z M 167.300781 148.367188"/></clipPath><clipPath id="A"><path d="M 167.300781 148.367188 L 203.363281 112.304688 L 272.835938 181.777344 L 236.773438 217.839844 Z M 167.300781 148.367188"/></clipPath><clipPath id="B"><path d="M 211 142 L 213 142 L 213 147 L 211 147 Z M 211 142"/></clipPath><clipPath id="C"><path d="M 167.300781 148.367188 L 203.363281 112.304688 L 272.835938 181.777344 L 236.773438 217.839844 Z M 167.300781 148.367188"/></clipPath><clipPath id="D"><path d="M 167.300781 148.367188 L 203.363281 112.304688 L 272.835938 181.777344 L 236.773438 217.839844 Z M 167.300781 148.367188"/></clipPath><clipPath id="E"><path d="M 224 149 L 229 149 L 229 158 L 224 158 Z M 224 149"/></clipPath><clipPath id="F"><path d="M 167.300781 148.367188 L 203.363281 112.304688 L 272.835938 181.777344 L 236.773438 217.839844 Z M 167.300781 148.367188"/></clipPath><clipPath id="G"><path d="M 167.300781 148.367188 L 203.363281 112.304688 L 272.835938 181.777344 L 236.773438 217.839844 Z M 167.300781 148.367188"/></clipPath><clipPath id="H"><path d="M 234 152 L 236 152 L 236 156 L 234 156 Z M 234 152"/></clipPath><clipPath id="I"><path d="M 167.300781 148.367188 L 203.363281 112.304688 L 272.835938 181.777344 L 236.773438 217.839844 Z M 167.300781 148.367188"/></clipPath><clipPath id="J"><path d="M 167.300781 148.367188 L 203.363281 112.304688 L 272.835938 181.777344 L 236.773438 217.839844 Z M 167.300781 148.367188"/></clipPath><clipPath id="K"><path d="M 236 155 L 238 155 L 238 158 L 236 158 Z M 236 155"/></clipPath><clipPath id="L"><path d="M 167.300781 148.367188 L 203.363281 112.304688 L 272.835938 181.777344 L 236.773438 217.839844 Z M 167.300781 148.367188"/></clipPath><clipPath id="M"><path d="M 167.300781 148.367188 L 203.363281 112.304688 L 272.835938 181.777344 L 236.773438 217.839844 Z M 167.300781 148.367188"/></clipPath><clipPath id="N"><path d="M 228 148 L 230 148 L 230 150 L 228 150 Z M 228 148"/></clipPath><clipPath id="O"><path d="M 167.300781 148.367188 L 203.363281 112.304688 L 272.835938 181.777344 L 236.773438 217.839844 Z M 167.300781 148.367188"/></clipPath><clipPath id="P"><path d="M 167.300781 148.367188 L 203.363281 112.304688 L 272.835938 181.777344 L 236.773438 217.839844 Z M 167.300781 148.367188"/></clipPath></defs><g clip-path="url(#a)"><g clip-path="url(#b)"><g clip-path="url(#c)"><path fill="#7ED957" d="M 230.890625 178.71875 C 230.914062 178.789062 230.9375 178.859375 230.960938 178.933594 C 231.855469 178.664062 232.75 178.394531 233.644531 178.128906 C 233.617188 178.035156 233.585938 177.941406 233.554688 177.84375 C 232.667969 178.136719 231.777344 178.425781 230.890625 178.71875 Z M 257.074219 182.34375 C 257 182.472656 256.925781 182.597656 256.847656 182.726562 C 257.546875 183.089844 258.246094 183.453125 258.941406 183.8125 C 258.984375 183.742188 259.023438 183.667969 259.066406 183.597656 C 258.402344 183.179688 257.738281 182.761719 257.074219 182.34375 Z M 264.121094 185.121094 C 264.113281 185.660156 264.007812 186.015625 264.125 186.125 C 264.386719 186.367188 264.765625 186.480469 265.09375 186.648438 C 265.164062 186.539062 265.234375 186.429688 265.300781 186.320312 C 264.984375 185.996094 264.664062 185.671875 264.121094 185.121094 Z M 224.246094 164.84375 C 223.792969 163.976562 223.496094 162.949219 222.242188 162.878906 C 222.910156 163.535156 223.578125 164.1875 224.246094 164.84375 Z M 191.230469 142.621094 C 191.300781 142.558594 191.371094 142.492188 191.4375 142.429688 C 190.605469 141.402344 189.769531 140.378906 188.9375 139.355469 C 188.863281 139.414062 188.792969 139.472656 188.71875 139.535156 C 189.554688 140.5625 190.394531 141.59375 191.230469 142.621094 Z M 200.855469 152.011719 C 200.835938 152.035156 200.816406 152.058594 200.796875 152.082031 C 202.269531 153.285156 203.742188 154.488281 205.214844 155.691406 C 205.289062 155.59375 205.367188 155.496094 205.441406 155.398438 C 203.914062 154.269531 202.382812 153.140625 200.855469 152.011719 Z M 240.792969 182.628906 C 242.464844 182.09375 244.132812 181.554688 245.800781 181.019531 C 243.914062 180.914062 242.363281 181.8125 240.792969 182.628906 Z M 243.628906 176.066406 C 245.105469 177.808594 247.992188 179.355469 249.253906 179.140625 C 247.265625 178.050781 245.449219 177.058594 243.628906 176.066406 Z M 219.84375 142.566406 C 219.722656 142.527344 219.597656 142.484375 219.476562 142.445312 C 219.371094 142.667969 219.144531 142.90625 219.179688 143.101562 C 219.460938 144.734375 219.789062 146.355469 220.117188 147.976562 C 220.140625 148.097656 220.269531 148.191406 220.503906 148.5 C 220.265625 146.347656 220.054688 144.457031 219.84375 142.566406 Z M 235.066406 170.527344 C 233.410156 168.78125 231.824219 167.113281 230.238281 165.445312 C 231.15625 167.777344 232.179688 170.011719 235.066406 170.527344 Z M 242.359375 172.453125 C 242.289062 172.3125 242.246094 172.1875 242.167969 172.089844 C 240.945312 170.542969 239.714844 169 238.496094 167.445312 C 238.210938 167.085938 237.960938 166.695312 237.699219 166.3125 C 237.457031 165.960938 237.269531 165.5625 236.980469 165.253906 C 236.699219 164.957031 236.320312 164.746094 235.871094 164.414062 C 237.648438 168.125 240.921875 172.171875 242.359375 172.453125 Z M 238.136719 172.207031 C 238.097656 172.308594 238.058594 172.410156 238.019531 172.511719 C 238.191406 172.605469 238.355469 172.703125 238.53125 172.785156 C 240.804688 173.855469 243.117188 174.851562 245.34375 176.007812 C 247.136719 176.933594 248.804688 178.089844 250.570312 179.0625 C 252.011719 179.859375 253.519531 180.535156 254.996094 181.261719 C 255.0625 181.136719 255.132812 181.007812 255.199219 180.882812 C 253.402344 179.769531 251.566406 178.71875 249.820312 177.527344 C 248.292969 176.488281 246.113281 176.609375 245.03125 174.800781 C 242.734375 173.9375 240.433594 173.074219 238.136719 172.207031 Z M 225.6875 184.691406 C 224.660156 185.183594 223.636719 185.671875 222.609375 186.164062 C 221.285156 186.667969 219.960938 187.175781 218.636719 187.679688 C 218.664062 187.796875 218.6875 187.914062 218.714844 188.03125 C 220.054688 187.921875 221.394531 187.832031 222.730469 187.691406 C 224.140625 187.546875 225.546875 187.351562 226.953125 187.179688 C 228.035156 187.050781 229.214844 187.15625 230.179688 186.75 C 233.375 185.402344 236.488281 183.867188 239.636719 182.410156 C 241.125 181.71875 242.589844 180.960938 244.125 180.386719 C 245.171875 179.992188 246.316406 179.859375 247.417969 179.609375 C 247.082031 179.730469 246.699219 179.691406 246.320312 179.726562 C 244.410156 179.90625 242.503906 180.125 240.59375 180.289062 C 239.707031 180.367188 238.78125 180.207031 237.925781 180.402344 C 235.058594 181.0625 232.214844 181.839844 229.359375 182.558594 C 228.089844 182.875 226.769531 183.03125 225.550781 183.476562 C 224.226562 183.960938 222.992188 184.691406 221.71875 185.320312 C 220.695312 185.828125 219.679688 186.347656 218.65625 186.863281 C 218.625 186.796875 218.597656 186.730469 218.566406 186.664062 C 220.308594 185.734375 222.050781 184.804688 223.804688 183.867188 C 223.664062 183.617188 223.570312 183.445312 223.539062 183.386719 C 225.335938 183.039062 227.152344 182.882812 228.832031 182.324219 C 233.382812 180.808594 237.996094 179.796875 242.816406 179.761719 C 243.976562 179.753906 245.136719 179.402344 246.296875 179.210938 C 244.527344 178.699219 242.777344 178.3125 241.007812 178.085938 C 239.355469 177.871094 237.703125 177.367188 236.011719 178.046875 C 234.789062 178.535156 233.519531 178.96875 232.230469 179.222656 C 230.160156 179.628906 228.078125 179.921875 226.128906 180.820312 C 225.523438 181.097656 224.78125 181.09375 223.9375 181.246094 C 225.945312 180.347656 227.734375 179.53125 229.539062 178.746094 C 230.511719 178.324219 231.488281 177.910156 232.496094 177.59375 C 232.941406 177.449219 233.464844 177.535156 233.953125 177.550781 C 234.605469 177.570312 235.257812 177.625 235.910156 177.660156 C 235.917969 177.496094 235.921875 177.328125 235.929688 177.164062 C 234.527344 177.074219 233.101562 176.765625 231.730469 176.9375 C 229.640625 177.203125 227.582031 177.75 225.53125 178.261719 C 222.425781 179.03125 219.699219 180.820312 216.554688 181.570312 C 214.621094 182.03125 212.804688 183.003906 210.929688 183.726562 C 210.832031 183.765625 210.667969 183.632812 210.234375 183.464844 C 215.113281 181.640625 219.726562 179.917969 224.339844 178.195312 C 224.304688 178.101562 224.269531 178.007812 224.234375 177.914062 C 223.261719 177.914062 222.289062 177.917969 221.316406 177.921875 C 221.320312 177.859375 221.328125 177.792969 221.335938 177.730469 C 223.53125 177.355469 225.726562 176.976562 227.921875 176.601562 C 223.457031 176.027344 219.039062 176.128906 214.640625 177.101562 C 214.703125 176.867188 214.777344 176.714844 214.875 176.695312 C 219.675781 175.773438 224.519531 175.566406 229.394531 175.921875 C 229.402344 175.832031 229.410156 175.742188 229.417969 175.65625 C 225.527344 175.085938 221.636719 174.515625 217.746094 173.945312 C 217.769531 173.8125 217.792969 173.675781 217.816406 173.542969 C 225.703125 174.699219 233.589844 175.859375 241.480469 177.015625 C 241.503906 176.914062 241.523438 176.8125 241.546875 176.710938 C 241.265625 176.558594 240.984375 176.398438 240.703125 176.25 C 238.882812 175.300781 237.035156 174.398438 235.25 173.386719 C 232.652344 171.917969 230.121094 170.34375 227.082031 169.898438 C 225.648438 169.691406 224.214844 169.019531 222.816406 169.109375 C 218 169.417969 213.351562 170.582031 208.871094 172.398438 C 208.605469 172.507812 208.347656 172.632812 208.085938 172.753906 C 208.046875 172.648438 208.011719 172.542969 207.972656 172.4375 C 211.171875 170.675781 214.742188 169.957031 218.234375 168.992188 C 217 168.941406 215.78125 169.007812 214.566406 169 C 213.414062 168.992188 212.261719 168.910156 211.105469 168.859375 C 211.109375 168.785156 211.113281 168.710938 211.121094 168.636719 C 214.242188 168.546875 217.363281 168.457031 220.484375 168.367188 C 220.390625 168.117188 220.308594 168.066406 220.214844 168.046875 C 217.585938 167.527344 214.949219 167.027344 212.328125 166.476562 C 211.929688 166.394531 211.578125 166.082031 211.203125 165.875 C 211.667969 165.757812 212.128906 165.636719 212.59375 165.53125 C 212.679688 165.511719 212.785156 165.582031 212.878906 165.601562 C 215.941406 166.308594 219.003906 167.011719 222.0625 167.714844 C 222.285156 167.765625 222.628906 167.773438 222.699219 167.914062 C 223.253906 168.988281 224.167969 168.3125 224.886719 168.515625 C 222.402344 167.019531 219.921875 165.570312 217.40625 164.183594 C 216.570312 163.722656 215.636719 163.449219 214.785156 163.015625 C 214.039062 162.636719 213.394531 162 212.621094 161.738281 C 209.453125 160.664062 206.246094 159.695312 203.0625 158.671875 C 202.222656 158.402344 201.402344 158.066406 200.570312 157.761719 C 200.605469 157.679688 200.636719 157.597656 200.671875 157.511719 C 204.113281 158.605469 207.554688 159.699219 211 160.792969 C 208.894531 159.234375 206.945312 157.492188 204.273438 157.027344 C 202.582031 156.734375 200.917969 156.257812 199.246094 155.824219 C 198.59375 155.65625 197.964844 155.394531 197.324219 155.175781 C 197.359375 155.066406 197.394531 154.957031 197.433594 154.847656 C 200.050781 155.519531 202.667969 156.195312 205.285156 156.871094 C 205.109375 156.480469 204.839844 156.257812 204.578125 156.03125 C 202.265625 154 199.910156 152.015625 197.652344 149.929688 C 195.878906 148.292969 194.164062 146.582031 192.523438 144.816406 C 190.773438 142.9375 188.753906 141.242188 187.882812 138.6875 C 187.785156 138.398438 187.539062 138.160156 187.378906 137.917969 C 187.601562 140.230469 187.78125 142.523438 188.078125 144.800781 C 188.15625 145.371094 188.492188 146.035156 188.925781 146.410156 C 189.996094 147.339844 191.195312 148.128906 192.335938 148.976562 C 192.488281 149.089844 192.625 149.222656 192.769531 149.347656 C 192.75 149.371094 192.730469 149.394531 192.710938 149.417969 C 192.355469 149.191406 191.996094 148.964844 191.636719 148.742188 C 191.582031 148.832031 191.53125 148.921875 191.480469 149.011719 C 193.652344 150.261719 195.828125 151.511719 197.96875 152.742188 C 195.273438 152.382812 193.296875 150.378906 190.949219 149.125 C 190.503906 149.839844 190.921875 150.171875 191.425781 150.402344 C 193.292969 151.257812 195.160156 152.101562 197.042969 152.910156 C 197.789062 153.230469 198.582031 153.445312 199.351562 153.707031 C 196.28125 153.363281 193.597656 151.941406 190.597656 150.460938 C 190.9375 152.472656 191.222656 154.152344 191.503906 155.832031 C 191.503906 155.832031 191.503906 155.785156 191.503906 155.785156 C 191.652344 157.480469 191.792969 159.175781 191.964844 160.867188 C 191.976562 160.984375 192.265625 161.179688 192.402344 161.160156 C 193.546875 161.011719 194.742188 160.96875 195.480469 160.28125 C 197.886719 160.714844 200.167969 161.128906 202.449219 161.542969 C 202.433594 161.628906 202.417969 161.71875 202.398438 161.804688 C 201.984375 161.726562 201.566406 161.652344 201.152344 161.570312 C 199.136719 161.175781 197.121094 160.804688 195.050781 161.191406 C 194.488281 161.296875 194.214844 161.523438 194.304688 162.105469 C 194.554688 163.738281 194.730469 165.382812 195.074219 166.996094 C 195.335938 168.207031 196.390625 168.816406 197.621094 168.554688 C 200.019531 168.046875 202.425781 168.136719 204.835938 168.398438 C 205.511719 168.46875 206.175781 168.65625 206.847656 168.789062 C 206.832031 168.898438 206.816406 169.007812 206.800781 169.113281 C 205.75 169.074219 204.699219 169.03125 203.648438 168.992188 C 203.761719 168.945312 203.871094 168.894531 203.984375 168.847656 C 201.835938 168.613281 199.726562 168.492188 197.695312 169.113281 C 199.691406 169.074219 201.695312 169.03125 203.699219 168.988281 C 203.25 169.066406 202.800781 169.160156 202.351562 169.210938 C 201.039062 169.359375 199.730469 169.496094 198.417969 169.625 C 197.855469 169.679688 197.707031 170.023438 197.757812 170.515625 C 197.925781 172.210938 198.039062 173.914062 198.277344 175.597656 C 198.453125 176.847656 199.371094 177.660156 200.296875 177.574219 C 200.351562 178.847656 200.339844 178.8125 201.539062 178.226562 C 202.726562 177.648438 203.949219 177.132812 205.171875 176.636719 C 205.515625 176.496094 205.921875 176.511719 206.429688 176.441406 C 204.679688 177.265625 203.097656 177.992188 201.542969 178.78125 C 201.296875 178.902344 200.996094 179.351562 201.050781 179.574219 C 201.5625 181.683594 203.613281 182.59375 205.671875 181.902344 C 208.542969 180.941406 211.460938 180.109375 214.386719 179.328125 C 215.4375 179.046875 216.566406 179.074219 217.703125 178.957031 C 213.851562 180.070312 210.082031 181.160156 206.261719 182.265625 C 206.355469 182.382812 206.421875 182.496094 206.515625 182.578125 C 209.023438 184.828125 211.832031 186.46875 215.171875 187.199219 C 216.871094 187.570312 218.425781 187.578125 219.964844 186.710938 C 220.59375 186.355469 221.277344 186.078125 221.964844 185.84375 C 223.195312 185.429688 224.445312 185.074219 225.6875 184.691406 Z M 235.757812 165.742188 C 236.75 167.242188 237.746094 168.742188 238.738281 170.242188 C 238.8125 170.191406 238.886719 170.144531 238.960938 170.09375 C 238.0625 168.71875 237.171875 167.339844 236.253906 165.980469 C 236.152344 165.824219 235.890625 165.78125 235.703125 165.683594 C 235.628906 165.359375 235.617188 165 235.472656 164.710938 C 235.195312 164.148438 234.78125 163.652344 234.542969 163.078125 C 234.421875 162.785156 234.558594 162.382812 234.578125 162.03125 C 234.664062 162.03125 234.75 162.03125 234.839844 162.03125 C 235.140625 162.429688 235.445312 162.824219 235.75 163.21875 C 235.792969 163.191406 235.835938 163.160156 235.878906 163.128906 C 235.386719 162.128906 234.894531 161.128906 234.402344 160.125 C 235.347656 161.351562 236.328125 162.511719 237.1875 163.757812 C 238.085938 165.0625 238.820312 166.484375 239.707031 167.796875 C 241.953125 171.113281 244.800781 173.746094 248.621094 175.394531 C 247.332031 173.746094 246.457031 171.992188 246.058594 170.027344 C 245.789062 168.703125 245.582031 167.367188 245.367188 166.03125 C 245.265625 165.410156 245.191406 164.820312 244.300781 165.082031 C 244.210938 165.109375 244.054688 164.914062 243.898438 164.796875 C 244.75 164.574219 244.960938 164.359375 244.773438 163.476562 C 244.4375 161.898438 244.097656 160.308594 243.546875 158.796875 C 243.101562 157.574219 242.8125 156.175781 241.464844 155.460938 C 241.292969 155.371094 241.242188 155.042969 241.066406 154.683594 C 241.480469 154.863281 241.71875 154.96875 242.039062 155.109375 C 241.90625 153.761719 241.757812 152.5625 240.832031 151.730469 C 240.613281 152.222656 240.402344 152.707031 240.191406 153.1875 C 240.074219 153.136719 239.957031 153.089844 239.839844 153.039062 C 239.949219 152.546875 240.054688 152.054688 240.171875 151.515625 C 239.695312 151.386719 239.296875 151.277344 238.765625 151.132812 C 238.410156 154.253906 239.359375 157.109375 239.6875 160.03125 C 239.554688 159.839844 239.46875 159.636719 239.429688 159.429688 C 239.027344 157.148438 238.636719 154.863281 238.226562 152.582031 C 238.1875 152.367188 238.023438 152.171875 237.917969 151.96875 C 237.828125 152.199219 237.640625 152.441406 237.667969 152.65625 C 237.714844 153.058594 237.886719 153.449219 238.007812 153.84375 C 237.894531 153.863281 237.777344 153.882812 237.664062 153.898438 C 237.386719 153.292969 236.828125 152.65625 236.882812 152.078125 C 237.054688 150.328125 236.703125 148.855469 235.6875 147.367188 C 234.988281 146.339844 234.320312 145.84375 233.128906 146.054688 C 232.867188 146.101562 232.601562 146.101562 232.34375 146.15625 C 232.070312 146.214844 231.804688 146.3125 231.535156 146.394531 C 231.679688 146.609375 231.84375 146.8125 231.953125 147.042969 C 232.050781 147.238281 232.09375 147.460938 232.144531 147.675781 C 232.351562 148.503906 232.558594 149.332031 232.753906 150.164062 C 232.882812 150.726562 232.984375 151.289062 233.101562 151.851562 C 233.039062 151.859375 232.980469 151.871094 232.917969 151.878906 C 232.496094 150.503906 232.070312 149.128906 231.644531 147.753906 C 231.386719 148.167969 231.3125 148.535156 231.355469 148.882812 C 231.65625 151.199219 231.972656 153.511719 232.300781 155.824219 C 232.339844 156.097656 232.46875 156.355469 232.554688 156.621094 C 232.417969 156.644531 232.28125 156.667969 232.144531 156.691406 C 231.777344 154.730469 231.347656 152.777344 231.066406 150.804688 C 230.695312 148.238281 229.597656 146.039062 228.066406 143.980469 C 227.113281 142.707031 225.652344 142.757812 224.378906 142.3125 C 224.242188 142.269531 224.0625 142.378906 223.898438 142.390625 C 222.992188 142.457031 222.082031 142.523438 221.175781 142.570312 C 220.847656 142.589844 220.519531 142.550781 220.195312 142.535156 C 220.175781 142.613281 220.160156 142.691406 220.140625 142.769531 C 220.460938 143.003906 220.78125 143.242188 221.21875 143.566406 C 220.832031 143.648438 220.601562 143.695312 220.269531 143.765625 C 221.03125 145.691406 221.757812 147.53125 222.488281 149.375 C 222.433594 149.394531 222.382812 149.414062 222.328125 149.433594 C 221.800781 148.21875 221.273438 147.007812 220.742188 145.796875 C 220.632812 145.832031 220.523438 145.863281 220.414062 145.898438 C 220.597656 146.894531 220.640625 147.945312 221 148.871094 C 222.042969 151.566406 223.21875 154.207031 224.339844 156.871094 C 224.480469 157.199219 224.609375 157.535156 224.746094 157.867188 C 223.75 156.925781 223.066406 155.804688 222.5 154.546875 C 221.152344 151.554688 219.773438 148.585938 219.117188 145.335938 C 219.035156 144.921875 218.609375 144.578125 218.273438 144.109375 C 218.882812 143.917969 218.871094 143.308594 218.488281 142.800781 C 218.21875 142.441406 217.699219 142.269531 217.421875 142.09375 C 216.992188 141.328125 216.578125 140.617188 216.1875 139.894531 C 215.609375 138.816406 215.496094 138.789062 214.378906 139.34375 C 212.992188 140.027344 211.589844 140.683594 209.941406 141.472656 C 210.152344 143.152344 210.394531 145.0625 210.632812 146.976562 C 210.605469 146.984375 210.578125 146.996094 210.550781 147.003906 C 210.15625 145.386719 209.761719 143.773438 209.324219 141.976562 C 209.71875 141.582031 209.621094 141.152344 208.800781 140.816406 C 208.382812 140.644531 208.058594 140.253906 207.648438 140.046875 C 207.386719 139.914062 207.007812 139.816406 206.753906 139.90625 C 205.363281 140.410156 203.996094 140.972656 202.539062 141.550781 C 203.496094 143.441406 204.441406 145.308594 205.390625 147.179688 C 204.625 146.234375 204.074219 145.179688 203.476562 144.152344 C 202.890625 143.140625 202.488281 141.960938 201.09375 141.300781 C 201.78125 142.902344 202.375 144.28125 202.96875 145.660156 C 202.890625 145.703125 202.8125 145.746094 202.734375 145.789062 C 201.949219 143.363281 200.574219 141.332031 198.660156 139.710938 C 198.277344 139.382812 197.53125 139.144531 197.089844 139.289062 C 194.503906 140.132812 192.207031 139.492188 189.972656 138.1875 C 189.496094 137.90625 188.960938 137.722656 188.453125 137.492188 C 188.476562 137.917969 188.566406 138.257812 188.761719 138.335938 C 189.753906 138.730469 189.953125 139.695312 190.503906 140.429688 C 191.964844 142.390625 193.566406 144.28125 195.324219 145.976562 C 200.046875 150.539062 205.121094 154.695312 210.542969 158.410156 C 210.890625 158.648438 211.300781 158.796875 211.679688 158.984375 C 211.679688 158.683594 211.589844 158.554688 211.472656 158.449219 C 208.722656 155.953125 206.714844 152.859375 204.59375 149.859375 C 203.765625 148.683594 203.859375 148.621094 205.070312 148.015625 C 206.582031 151.140625 208.472656 153.996094 210.976562 156.421875 C 211.40625 156.835938 211.789062 157.292969 212.203125 157.722656 C 213.746094 159.316406 215.074219 161.242188 216.886719 162.421875 C 219.628906 164.203125 222.703125 165.46875 225.636719 166.953125 C 224.304688 165.394531 222.929688 163.960938 221.464844 162.621094 C 219.980469 161.265625 218.398438 160.011719 216.875 158.695312 C 215.410156 157.429688 213.824219 156.285156 212.734375 154.640625 C 214.640625 156.300781 216.546875 157.960938 218.453125 159.621094 C 218.527344 159.558594 218.597656 159.5 218.671875 159.441406 C 216.578125 156.800781 215.203125 153.804688 214.132812 150.65625 C 214.484375 150.949219 214.714844 151.304688 214.933594 151.664062 C 216.808594 154.699219 218.644531 157.761719 220.582031 160.753906 C 221.015625 161.429688 221.808594 161.875 222.4375 162.425781 C 222.515625 162.359375 222.589844 162.296875 222.664062 162.234375 C 222.289062 161.558594 221.910156 160.882812 221.53125 160.207031 C 222.992188 162.027344 224.226562 164 225.773438 165.691406 C 227.605469 167.699219 230.460938 169.347656 231.59375 169.132812 C 231.234375 168.628906 230.847656 168.132812 230.515625 167.605469 C 229.421875 165.871094 228.5625 163.941406 227.230469 162.417969 C 224.277344 159.027344 221.050781 155.878906 218.027344 152.550781 C 216.992188 151.410156 216.226562 150.027344 215.347656 148.746094 C 215.3125 148.695312 215.378906 148.578125 215.480469 148.125 C 217.363281 150.601562 219.011719 152.941406 220.847656 155.125 C 222.714844 157.355469 224.765625 159.429688 226.738281 161.574219 C 226.785156 161.527344 226.835938 161.484375 226.886719 161.4375 C 226.167969 160.234375 225.449219 159.027344 224.734375 157.820312 C 225.617188 159.027344 226.5 160.238281 227.382812 161.445312 C 227.421875 161.417969 227.464844 161.390625 227.507812 161.363281 C 226.984375 159.769531 226.460938 158.175781 225.9375 156.582031 C 226.855469 158.246094 227.640625 159.9375 228.429688 161.625 C 228.730469 162.269531 228.941406 162.976562 229.351562 163.535156 C 229.792969 164.132812 230.457031 164.558594 230.96875 165.109375 C 232.679688 166.953125 234.25 168.941406 236.105469 170.617188 C 236.996094 171.417969 238.410156 171.640625 239.585938 172.128906 C 238.195312 169.941406 236.453125 168.175781 235.757812 165.742188 Z M 204.949219 183.089844 C 203.59375 184.183594 203.425781 184.25 202.320312 183.058594 C 201.613281 182.296875 201.160156 181.304688 200.601562 180.414062 C 200.332031 179.984375 200.140625 179.40625 199.289062 180.359375 C 199.402344 179.707031 199.488281 179.445312 199.484375 179.179688 C 199.484375 178.945312 199.472656 178.605469 199.324219 178.488281 C 197.355469 176.949219 197.0625 174.800781 197.09375 172.523438 C 197.097656 172.160156 197.097656 171.796875 197.113281 171.433594 C 197.140625 170.609375 197.078125 169.972656 196.054688 169.632812 C 195.28125 169.375 194.699219 168.679688 194.472656 167.738281 C 194.027344 165.878906 193.464844 164.042969 192.929688 162.113281 C 192.914062 162.113281 192.789062 162.097656 192.667969 162.105469 C 191.085938 162.210938 190.972656 162.152344 190.835938 160.582031 C 190.601562 157.875 190.410156 155.167969 190.203125 152.460938 C 190.117188 151.34375 190.074219 150.214844 189.925781 149.105469 C 189.878906 148.765625 189.617188 148.375 189.335938 148.164062 C 187.601562 146.867188 186.679688 145.207031 186.992188 143.019531 C 187.519531 139.304688 185.859375 136.261719 184.0625 133.25 C 183.867188 132.921875 183.691406 132.582031 183.507812 132.25 C 183.574219 132.183594 183.644531 132.113281 183.714844 132.046875 C 184.082031 132.316406 184.535156 132.523438 184.804688 132.871094 C 187.804688 136.691406 191.484375 139.023438 196.5625 138.410156 C 196.824219 138.378906 197.109375 138.460938 197.355469 138.386719 C 198.714844 137.976562 199.558594 138.359375 200.058594 139.773438 C 200.332031 140.550781 201.191406 140.785156 202 140.644531 C 203.464844 140.390625 204.953125 140.179688 206.140625 139.132812 C 206.75 138.597656 207.445312 138.679688 208.050781 139.148438 C 210.039062 140.679688 211.234375 140.5625 212.96875 138.773438 C 213.390625 138.335938 214.042969 138.066406 214.640625 137.867188 C 215.648438 137.535156 216.300781 137.996094 216.796875 138.921875 C 217.457031 140.160156 218.253906 141.355469 219.789062 141.617188 C 220.492188 141.734375 221.246094 141.769531 221.945312 141.652344 C 223.492188 141.382812 224.976562 141.660156 226.464844 142.003906 C 227.363281 142.210938 228.03125 142.707031 228.625 143.460938 C 229.339844 144.371094 230.070312 145.445312 231.464844 145.351562 C 231.851562 145.328125 232.210938 145.035156 232.601562 144.933594 C 233.167969 144.792969 233.921875 144.4375 234.292969 144.664062 C 235.128906 145.179688 235.847656 145.941406 236.476562 146.714844 C 237.050781 147.425781 237.398438 148.320312 237.933594 149.070312 C 238.421875 149.753906 239.054688 150.210938 239.988281 150.285156 C 241.457031 150.402344 242.109375 151.617188 242.597656 152.746094 C 243.289062 154.34375 243.839844 156.019531 244.28125 157.707031 C 245.039062 160.574219 245.902344 163.449219 246.269531 166.375 C 246.59375 168.953125 247.878906 171.066406 248.890625 173.292969 C 249.425781 174.476562 250.675781 175.433594 251.785156 176.234375 C 255.0625 178.597656 258.410156 180.863281 261.769531 183.105469 C 263.082031 183.984375 264.480469 184.746094 265.875 185.484375 C 266.730469 185.9375 266.972656 186.503906 266.707031 187.425781 C 266.550781 187.972656 266.355469 188.164062 265.8125 187.9375 C 264.539062 187.40625 263.152344 187.058594 262 186.339844 C 258.628906 184.226562 254.820312 183.351562 251.15625 182.015625 C 248.140625 180.921875 245.597656 181.554688 242.921875 182.617188 C 239.910156 183.8125 236.847656 184.902344 233.914062 186.265625 C 230.296875 187.941406 226.421875 188.097656 222.59375 188.585938 C 222.070312 188.652344 221.527344 188.6875 221.039062 188.867188 C 219.382812 189.472656 217.800781 189.261719 216.203125 188.628906 C 214.328125 187.886719 212.371094 187.328125 210.550781 186.46875 C 208.859375 185.675781 207.304688 184.597656 205.691406 183.636719 C 205.441406 183.484375 205.21875 183.289062 204.949219 183.089844"/></g></g></g><g clip-path="url(#d)"><g clip-path="url(#e)"><g clip-path="url(#f)"><path fill="#7ED957" d="M 198.378906 172.671875 C 201.113281 171.957031 203.851562 171.242188 206.585938 170.527344 C 206.566406 170.402344 206.542969 170.273438 206.523438 170.148438 C 204.300781 170.324219 202.074219 170.503906 199.851562 170.683594 C 199.84375 170.597656 199.835938 170.507812 199.828125 170.417969 C 202.457031 170.195312 205.085938 169.976562 207.800781 169.75 C 207.28125 171.035156 200.261719 173.289062 198.378906 172.671875"/></g></g></g><g clip-path="url(#g)"><g clip-path="url(#h)"><g clip-path="url(#i)"><path fill="#7ED957" d="M 204.738281 179.859375 C 204.894531 179.914062 205.050781 179.964844 205.226562 180.023438 C 204.277344 181.042969 203.972656 181.109375 203.433594 180.351562 C 203.0625 180.648438 202.699219 180.945312 202.082031 181.441406 C 202.222656 180.601562 202.316406 180.035156 202.441406 179.292969 C 203.1875 180.089844 203.75 179.566406 204.402344 179.339844 C 206.710938 178.539062 209.039062 177.804688 211.375 177.082031 C 212.234375 176.816406 213.125 176.648438 214.050781 176.628906 C 210.921875 177.605469 207.796875 178.582031 204.667969 179.554688 C 204.691406 179.65625 204.714844 179.757812 204.738281 179.859375"/></g></g></g><g clip-path="url(#j)"><g clip-path="url(#k)"><g clip-path="url(#l)"><path fill="#7ED957" d="M 222.605469 186.128906 C 224.097656 186.34375 225.054688 185.171875 226.28125 184.671875 C 226.066406 184.679688 225.851562 184.691406 225.636719 184.699219 C 226.480469 184.359375 227.316406 184.015625 228.164062 183.683594 C 229.390625 183.207031 230.582031 182.59375 232.25 182.625 C 228.808594 184.113281 225.601562 185.5 222.117188 187.003906 C 222.375 186.542969 222.492188 186.335938 222.605469 186.128906"/></g></g></g><g clip-path="url(#m)"><g clip-path="url(#n)"><g clip-path="url(#o)"><path fill="#7ED957" d="M 189.503906 142.816406 C 189.964844 143.78125 190.421875 144.746094 190.902344 145.75 C 189.992188 145.613281 189.128906 144.027344 189.503906 142.816406"/></g></g></g><g clip-path="url(#p)"><g clip-path="url(#q)"><g clip-path="url(#r)"><path fill="#7ED957" d="M 193.742188 148.386719 C 195.1875 147.9375 195.671875 149.238281 196.570312 149.804688 C 196.5 149.929688 196.429688 150.054688 196.355469 150.179688 C 195.90625 149.890625 195.449219 149.617188 195.007812 149.316406 C 194.570312 149.019531 194.152344 148.691406 193.742188 148.386719"/></g></g></g><g clip-path="url(#s)"><g clip-path="url(#t)"><g clip-path="url(#u)"><path fill="#7ED957" d="M 209.347656 179.847656 C 208.386719 179.964844 207.425781 180.078125 206.382812 180.203125 C 206.695312 179.523438 206.695312 179.523438 209.273438 179.476562 C 209.300781 179.597656 209.324219 179.722656 209.347656 179.847656"/></g></g></g><g clip-path="url(#v)"><g clip-path="url(#w)"><g clip-path="url(#x)"><path fill="#7ED957" d="M 204.839844 174.582031 C 204.054688 174.953125 203.269531 175.328125 202.484375 175.699219 C 202.414062 175.542969 202.34375 175.390625 202.273438 175.238281 C 203.070312 174.886719 203.871094 174.535156 204.667969 174.183594 C 204.726562 174.316406 204.785156 174.449219 204.839844 174.582031"/></g></g></g><g clip-path="url(#y)"><g clip-path="url(#z)"><g clip-path="url(#A)"><path fill="#7ED957" d="M 207.519531 140.125 C 207.6875 140.460938 208.078125 140.996094 207.984375 141.097656 C 207.597656 141.527344 207.0625 141.832031 206.449219 142.28125 C 206.453125 142.3125 206.480469 142.617188 206.515625 143.03125 C 205.695312 142.753906 205.46875 142.125 205.71875 141.625 C 206.007812 141.042969 206.683594 140.910156 207.402344 141.308594 C 207.308594 140.941406 207.230469 140.625 207.148438 140.3125 C 207.273438 140.25 207.394531 140.1875 207.519531 140.125"/></g></g></g><g clip-path="url(#B)"><g clip-path="url(#C)"><g clip-path="url(#D)"><path fill="#7ED957" d="M 211.515625 142.378906 C 211.800781 143.75 212.089844 145.117188 212.375 146.488281 C 212.296875 146.507812 212.214844 146.523438 212.136719 146.542969 C 211.828125 145.175781 211.519531 143.804688 211.210938 142.4375 C 211.3125 142.417969 211.414062 142.398438 211.515625 142.378906"/></g></g></g><g clip-path="url(#E)"><g clip-path="url(#F)"><g clip-path="url(#G)"><path fill="#7ED957" d="M 224.8125 149.929688 C 226.3125 152.484375 227.519531 155.183594 228.496094 157.992188 C 227.136719 155.375 225.777344 152.757812 224.417969 150.144531 C 224.550781 150.070312 224.683594 150 224.8125 149.929688"/></g></g></g><g clip-path="url(#H)"><g clip-path="url(#I)"><g clip-path="url(#J)"><path fill="#7ED957" d="M 234.148438 152.851562 C 234.738281 153.582031 235.332031 154.3125 235.914062 155.03125 C 235.1875 155.242188 234.105469 154.132812 234.148438 152.851562"/></g></g></g><g clip-path="url(#K)"><g clip-path="url(#L)"><g clip-path="url(#M)"><path fill="#7ED957" d="M 237.558594 157.277344 C 237.238281 156.425781 236.976562 155.726562 236.71875 155.027344 C 237.496094 155.527344 238.128906 156.078125 237.558594 157.277344"/></g></g></g><g clip-path="url(#N)"><g clip-path="url(#O)"><g clip-path="url(#P)"><path fill="#7ED957" d="M 228.929688 149.988281 C 228.640625 149.390625 228.355469 148.789062 228.023438 148.101562 C 229.347656 148.152344 228.660156 149.382812 229.222656 149.820312 C 229.125 149.875 229.027344 149.929688 228.929688 149.988281"/></g></g></g><g fill="#008037"><g><g><path d="M 7.796875 4.46875 C 6.359375 4.363281 5.414062 3.984375 4.96875 3.328125 C 4.53125 2.679688 4.3125 1.707031 4.3125 0.40625 C 4.3125 -1.03125 4.648438 -2.84375 5.328125 -5.03125 C 6.015625 -7.21875 7.078125 -10.273438 8.515625 -14.203125 C 8.722656 -14.679688 9 -15.398438 9.34375 -16.359375 C 8.476562 -16.296875 7.160156 -16.144531 5.390625 -15.90625 L 3.640625 -15.640625 C 3.773438 -17.898438 6.015625 -19.097656 10.359375 -19.234375 C 12.585938 -25.359375 14.570312 -30.234375 16.3125 -33.859375 C 15.425781 -33.921875 14.757812 -33.953125 14.3125 -33.953125 C 12.125 -33.953125 10.4375 -33.726562 9.25 -33.28125 C 8.070312 -32.84375 7.253906 -32.175781 6.796875 -31.28125 C 6.335938 -30.394531 6.109375 -29.203125 6.109375 -27.703125 C 6.109375 -26.296875 6.328125 -24.941406 6.765625 -23.640625 C 4.515625 -24.023438 3.390625 -25.363281 3.390625 -27.65625 C 3.390625 -29.394531 4.007812 -30.945312 5.25 -32.3125 C 6.5 -33.6875 8.203125 -34.753906 10.359375 -35.515625 C 12.515625 -36.285156 14.894531 -36.671875 17.5 -36.671875 C 18.757812 -36.671875 20.550781 -36.535156 22.875 -36.265625 C 23.21875 -36.234375 23.898438 -36.164062 24.921875 -36.0625 C 25.953125 -35.957031 26.878906 -35.90625 27.703125 -35.90625 C 29.066406 -35.90625 30.332031 -36.078125 31.5 -36.421875 C 30.300781 -35.054688 29.273438 -34.113281 28.421875 -33.59375 C 27.566406 -33.082031 26.660156 -32.828125 25.703125 -32.828125 C 25.046875 -32.828125 23.882812 -32.945312 22.21875 -33.1875 C 21.351562 -33.363281 20.085938 -33.535156 18.421875 -33.703125 C 17.460938 -31.378906 15.816406 -26.539062 13.484375 -19.1875 C 15.128906 -19.082031 16.671875 -18.925781 18.109375 -18.71875 C 20.265625 -18.519531 21.71875 -18.398438 22.46875 -18.359375 C 22.09375 -17.816406 21.640625 -17.429688 21.109375 -17.203125 C 20.578125 -16.984375 19.753906 -16.835938 18.640625 -16.765625 C 17.535156 -16.703125 15.5625 -16.632812 12.71875 -16.5625 L 10.46875 -8.921875 C 8.757812 -3.179688 7.867188 1.28125 7.796875 4.46875 Z M 7.796875 4.46875" transform="translate(101.89 203.625)"/></g></g></g><g fill="#008037"><g><g><path d="M 8.875 1.328125 C 7.707031 1.328125 6.789062 1.019531 6.125 0.40625 C 5.457031 -0.207031 5.125 -1.007812 5.125 -2 C 5.125 -3.164062 5.625 -4.84375 6.625 -7.03125 C 7.0625 -8.15625 7.390625 -9.050781 7.609375 -9.71875 C 7.835938 -10.382812 7.953125 -11.007812 7.953125 -11.59375 C 7.953125 -12.445312 7.753906 -13.117188 7.359375 -13.609375 C 6.960938 -14.109375 6.523438 -14.519531 6.046875 -14.84375 C 5.566406 -15.175781 5.242188 -15.390625 5.078125 -15.484375 C 4.328125 -13.578125 3.523438 -11.707031 2.671875 -9.875 C 1.816406 -8.039062 1.097656 -6.628906 0.515625 -5.640625 L 0.046875 -6.515625 C 1.691406 -9.691406 3.078125 -12.941406 4.203125 -16.265625 C 3.859375 -16.609375 3.6875 -17.019531 3.6875 -17.5 C 3.6875 -18.113281 3.816406 -18.691406 4.078125 -19.234375 C 4.335938 -19.785156 4.644531 -20.210938 5 -20.515625 C 5.363281 -20.828125 5.644531 -20.984375 5.84375 -20.984375 C 6.320312 -20.984375 6.5625 -20.570312 6.5625 -19.75 C 6.5625 -19.613281 6.472656 -19.304688 6.296875 -18.828125 C 6.128906 -18.347656 6.03125 -18.019531 6 -17.84375 C 6 -17.507812 6.144531 -17.195312 6.4375 -16.90625 C 6.726562 -16.613281 7.195312 -16.242188 7.84375 -15.796875 C 8.90625 -15.046875 9.734375 -14.300781 10.328125 -13.5625 C 10.929688 -12.832031 11.234375 -11.882812 11.234375 -10.71875 C 11.234375 -9.96875 11.113281 -9.222656 10.875 -8.484375 C 10.632812 -7.753906 10.273438 -6.789062 9.796875 -5.59375 C 9.046875 -3.945312 8.671875 -2.765625 8.671875 -2.046875 C 8.671875 -1.023438 9.179688 -0.515625 10.203125 -0.515625 C 11.234375 -0.515625 12.335938 -0.921875 13.515625 -1.734375 C 14.691406 -2.554688 15.773438 -3.578125 16.765625 -4.796875 C 17.765625 -6.015625 18.484375 -7.132812 18.921875 -8.15625 L 19.59375 -7.640625 C 18.53125 -5.285156 16.988281 -3.203125 14.96875 -1.390625 C 12.957031 0.421875 10.925781 1.328125 8.875 1.328125 Z M 8.875 1.328125" transform="translate(126.613 203.625)"/></g></g></g><g fill="#008037"><g><g><path d="M 5.546875 2.25 C 3.523438 2.25 1.972656 1.691406 0.890625 0.578125 C -0.179688 -0.523438 -0.71875 -1.945312 -0.71875 -3.6875 C -0.71875 -5.707031 -0.0507812 -7.878906 1.28125 -10.203125 C 2.613281 -12.535156 4.296875 -14.492188 6.328125 -16.078125 C 8.367188 -17.671875 10.363281 -18.46875 12.3125 -18.46875 C 14.425781 -18.46875 15.484375 -17.425781 15.484375 -15.34375 C 15.484375 -13.664062 14.851562 -12.097656 13.59375 -10.640625 C 12.332031 -9.191406 10.707031 -8.003906 8.71875 -7.078125 C 6.738281 -6.148438 4.753906 -5.585938 2.765625 -5.390625 C 2.628906 -4.804688 2.5625 -4.191406 2.5625 -3.546875 C 2.5625 -2.304688 2.867188 -1.273438 3.484375 -0.453125 C 4.097656 0.359375 5.144531 0.765625 6.625 0.765625 C 8.707031 0.765625 10.804688 -0.101562 12.921875 -1.84375 C 15.046875 -3.59375 16.773438 -5.75 18.109375 -8.3125 L 18.71875 -7.84375 C 17.351562 -4.800781 15.457031 -2.359375 13.03125 -0.515625 C 10.601562 1.328125 8.109375 2.25 5.546875 2.25 Z M 3.03125 -6.359375 C 4.46875 -6.867188 5.972656 -7.585938 7.546875 -8.515625 C 9.117188 -9.441406 10.457031 -10.523438 11.5625 -11.765625 C 12.675781 -13.015625 13.234375 -14.328125 13.234375 -15.703125 C 13.234375 -16.109375 13.15625 -16.40625 13 -16.59375 C 12.84375 -16.78125 12.5625 -16.875 12.15625 -16.875 C 11.09375 -16.875 9.9375 -16.34375 8.6875 -15.28125 C 7.445312 -14.226562 6.300781 -12.878906 5.25 -11.234375 C 4.207031 -9.585938 3.46875 -7.960938 3.03125 -6.359375 Z M 3.03125 -6.359375" transform="translate(144.463 203.625)"/></g></g></g><g fill="#008037"><g><g><path d="M 5.390625 2.609375 C 3.160156 2.609375 1.53125 1.941406 0.5 0.609375 C -0.519531 -0.722656 -1.03125 -2.296875 -1.03125 -4.109375 C -1.03125 -5.472656 -0.789062 -6.4375 -0.3125 -7 C 0.164062 -7.5625 0.6875 -7.960938 1.25 -8.203125 C 1.820312 -8.441406 2.15625 -8.613281 2.25 -8.71875 C 4.445312 -11.113281 6.140625 -13.59375 7.328125 -16.15625 L 7.328125 -16.78125 C 7.328125 -17.9375 7.523438 -18.804688 7.921875 -19.390625 C 8.316406 -19.972656 8.789062 -20.265625 9.34375 -20.265625 C 9.613281 -20.265625 9.816406 -20.203125 9.953125 -20.078125 C 10.085938 -19.960938 10.15625 -19.800781 10.15625 -19.59375 C 10.15625 -19.457031 10.101562 -19.175781 10 -18.75 C 9.894531 -18.320312 9.84375 -17.851562 9.84375 -17.34375 C 9.84375 -16.65625 9.9375 -15.925781 10.125 -15.15625 C 10.3125 -14.382812 10.613281 -13.382812 11.03125 -12.15625 C 11.507812 -10.6875 11.875 -9.40625 12.125 -8.3125 C 12.382812 -7.21875 12.515625 -6.101562 12.515625 -4.96875 C 12.515625 -4.082031 12.410156 -3.25 12.203125 -2.46875 C 13.441406 -2.664062 14.585938 -3.21875 15.640625 -4.125 C 16.703125 -5.03125 17.710938 -6.410156 18.671875 -8.265625 L 19.140625 -7.75 C 18.515625 -5.96875 17.570312 -4.5625 16.3125 -3.53125 C 15.050781 -2.507812 13.597656 -1.878906 11.953125 -1.640625 C 11.441406 -0.234375 10.601562 0.820312 9.4375 1.53125 C 8.269531 2.25 6.921875 2.609375 5.390625 2.609375 Z M 8.984375 -2.515625 C 9.117188 -3.398438 9.1875 -4.203125 9.1875 -4.921875 C 9.1875 -5.953125 9.097656 -6.976562 8.921875 -8 C 8.753906 -9.03125 8.5 -10.210938 8.15625 -11.546875 C 7.84375 -12.910156 7.65625 -13.796875 7.59375 -14.203125 C 5.84375 -11.335938 4.179688 -9.117188 2.609375 -7.546875 C 3.160156 -6.347656 3.988281 -5.285156 5.09375 -4.359375 C 6.207031 -3.429688 7.503906 -2.816406 8.984375 -2.515625 Z M 5.484375 0.828125 C 7.054688 0.828125 8.132812 -0.0078125 8.71875 -1.6875 C 7.351562 -1.96875 6.101562 -2.507812 4.96875 -3.3125 C 3.84375 -4.113281 2.988281 -4.992188 2.40625 -5.953125 C 1.65625 -5.921875 1.28125 -5.320312 1.28125 -4.15625 C 1.28125 -2.851562 1.664062 -1.695312 2.4375 -0.6875 C 3.207031 0.320312 4.222656 0.828125 5.484375 0.828125 Z M 5.484375 0.828125" transform="translate(161.544 203.625)"/></g></g></g><g fill="#008037"><g><g><path d="M 2.40625 1.953125 C 1.789062 1.953125 1.285156 1.421875 0.890625 0.359375 C 0.503906 -0.703125 0.3125 -1.953125 0.3125 -3.390625 C 0.3125 -6.535156 1.273438 -10.773438 3.203125 -16.109375 C 5.140625 -21.441406 7.335938 -26.191406 9.796875 -30.359375 C 12.253906 -34.535156 14.203125 -36.625 15.640625 -36.625 C 16.191406 -36.625 16.613281 -36.289062 16.90625 -35.625 C 17.195312 -34.957031 17.34375 -34.210938 17.34375 -33.390625 C 17.34375 -31.785156 16.769531 -29.648438 15.625 -26.984375 C 14.476562 -24.316406 12.988281 -21.75 11.15625 -19.28125 C 9.320312 -16.820312 7.453125 -15.007812 5.546875 -13.84375 C 4.921875 -12.414062 4.445312 -10.75 4.125 -8.84375 C 3.800781 -6.945312 3.640625 -5.25 3.640625 -3.75 C 3.640625 -3.195312 3.675781 -2.613281 3.75 -2 C 5.113281 -5.96875 6.660156 -9.171875 8.390625 -11.609375 C 10.117188 -14.054688 12.039062 -15.28125 14.15625 -15.28125 C 15.457031 -15.28125 16.429688 -14.828125 17.078125 -13.921875 C 17.734375 -13.015625 18.0625 -11.929688 18.0625 -10.671875 C 18.0625 -9.921875 17.96875 -9.203125 17.78125 -8.515625 C 17.59375 -7.828125 17.289062 -6.9375 16.875 -5.84375 C 16.53125 -4.925781 16.269531 -4.191406 16.09375 -3.640625 C 15.925781 -3.097656 15.84375 -2.566406 15.84375 -2.046875 C 15.84375 -1.398438 15.976562 -0.914062 16.25 -0.59375 C 16.53125 -0.269531 16.910156 -0.109375 17.390625 -0.109375 C 18.554688 -0.109375 19.925781 -0.914062 21.5 -2.53125 C 23.070312 -4.15625 24.367188 -6.082031 25.390625 -8.3125 L 26.0625 -7.6875 C 24.925781 -5.09375 23.476562 -2.957031 21.71875 -1.28125 C 19.957031 0.394531 18.117188 1.234375 16.203125 1.234375 C 15.078125 1.234375 14.207031 0.929688 13.59375 0.328125 C 12.976562 -0.265625 12.671875 -1.039062 12.671875 -2 C 12.671875 -2.75 12.925781 -3.960938 13.4375 -5.640625 C 13.988281 -7.484375 14.265625 -8.851562 14.265625 -9.75 C 14.265625 -10.601562 14.082031 -11.222656 13.71875 -11.609375 C 13.363281 -12.003906 12.894531 -12.203125 12.3125 -12.203125 C 11.039062 -12.203125 9.9375 -11.457031 9 -9.96875 C 8.0625 -8.488281 7.046875 -6.394531 5.953125 -3.6875 C 5.128906 -1.707031 4.476562 -0.273438 4 0.609375 C 3.519531 1.503906 2.988281 1.953125 2.40625 1.953125 Z M 6.203125 -15.84375 C 7.671875 -17.007812 9.128906 -18.695312 10.578125 -20.90625 C 12.035156 -23.113281 13.234375 -25.300781 14.171875 -27.46875 C 15.117188 -29.644531 15.59375 -31.175781 15.59375 -32.0625 C 15.59375 -32.332031 15.523438 -32.46875 15.390625 -32.46875 C 15.015625 -32.46875 14.234375 -31.617188 13.046875 -29.921875 C 11.867188 -28.234375 10.628906 -26.109375 9.328125 -23.546875 C 8.035156 -20.984375 6.992188 -18.414062 6.203125 -15.84375 Z M 6.203125 -15.84375" transform="translate(179.24 203.625)"/></g></g></g><g fill="#008037"><g><g><path d="M 10.765625 4.46875 C 9.710938 4.46875 8.710938 4.15625 7.765625 3.53125 C 6.828125 2.914062 6.359375 1.859375 6.359375 0.359375 C 6.359375 -0.566406 6.546875 -1.753906 6.921875 -3.203125 C 7.296875 -4.660156 7.894531 -6.6875 8.71875 -9.28125 C 10.050781 -13.519531 11.066406 -17.082031 11.765625 -19.96875 C 12.472656 -22.863281 12.828125 -25.644531 12.828125 -28.3125 C 12.828125 -29.925781 12.773438 -31.207031 12.671875 -32.15625 C 12.566406 -33.113281 12.289062 -33.910156 11.84375 -34.546875 C 11.40625 -35.179688 10.707031 -35.5 9.75 -35.5 C 8.582031 -35.5 7.597656 -35.046875 6.796875 -34.140625 C 5.992188 -33.234375 5.40625 -32.113281 5.03125 -30.78125 C 4.65625 -29.445312 4.46875 -28.144531 4.46875 -26.875 C 4.46875 -25.75 4.617188 -24.828125 4.921875 -24.109375 C 3.660156 -24.109375 2.738281 -24.445312 2.15625 -25.125 C 1.570312 -25.8125 1.28125 -26.703125 1.28125 -27.796875 C 1.28125 -29.203125 1.71875 -30.613281 2.59375 -32.03125 C 3.46875 -33.445312 4.628906 -34.617188 6.078125 -35.546875 C 7.535156 -36.472656 9.066406 -36.9375 10.671875 -36.9375 C 12.753906 -36.9375 14.328125 -36.125 15.390625 -34.5 C 16.453125 -32.875 16.984375 -30.640625 16.984375 -27.796875 C 16.984375 -25.304688 16.640625 -22.675781 15.953125 -19.90625 C 15.265625 -17.132812 14.289062 -13.800781 13.03125 -9.90625 C 12.144531 -7.195312 11.476562 -5.003906 11.03125 -3.328125 C 10.582031 -1.660156 10.359375 -0.257812 10.359375 0.875 C 10.359375 1.519531 10.460938 2.015625 10.671875 2.359375 C 10.878906 2.703125 11.253906 2.875 11.796875 2.875 C 13.679688 2.875 16.078125 1.078125 18.984375 -2.515625 C 21.890625 -6.109375 24.425781 -10.347656 26.59375 -15.234375 C 28.769531 -20.128906 29.859375 -24.351562 29.859375 -27.90625 C 29.859375 -29.507812 29.609375 -30.726562 29.109375 -31.5625 C 28.617188 -32.40625 27.925781 -32.960938 27.03125 -33.234375 C 27.507812 -34.023438 28.003906 -34.613281 28.515625 -35 C 29.035156 -35.394531 29.535156 -35.59375 30.015625 -35.59375 C 30.828125 -35.59375 31.550781 -35.097656 32.1875 -34.109375 C 32.820312 -33.117188 33.140625 -31.71875 33.140625 -29.90625 C 33.140625 -26.25 31.851562 -21.65625 29.28125 -16.125 C 26.71875 -10.601562 23.664062 -5.789062 20.125 -1.6875 C 16.59375 2.414062 13.472656 4.46875 10.765625 4.46875 Z M 10.765625 4.46875" transform="translate(203.655 203.625)"/></g></g></g><g fill="#008037"><g><g><path d="M 5.546875 2.25 C 3.523438 2.25 1.972656 1.691406 0.890625 0.578125 C -0.179688 -0.523438 -0.71875 -1.945312 -0.71875 -3.6875 C -0.71875 -5.707031 -0.0507812 -7.878906 1.28125 -10.203125 C 2.613281 -12.535156 4.296875 -14.492188 6.328125 -16.078125 C 8.367188 -17.671875 10.363281 -18.46875 12.3125 -18.46875 C 14.425781 -18.46875 15.484375 -17.425781 15.484375 -15.34375 C 15.484375 -13.664062 14.851562 -12.097656 13.59375 -10.640625 C 12.332031 -9.191406 10.707031 -8.003906 8.71875 -7.078125 C 6.738281 -6.148438 4.753906 -5.585938 2.765625 -5.390625 C 2.628906 -4.804688 2.5625 -4.191406 2.5625 -3.546875 C 2.5625 -2.304688 2.867188 -1.273438 3.484375 -0.453125 C 4.097656 0.359375 5.144531 0.765625 6.625 0.765625 C 8.707031 0.765625 10.804688 -0.101562 12.921875 -1.84375 C 15.046875 -3.59375 16.773438 -5.75 18.109375 -8.3125 L 18.71875 -7.84375 C 17.351562 -4.800781 15.457031 -2.359375 13.03125 -0.515625 C 10.601562 1.328125 8.109375 2.25 5.546875 2.25 Z M 3.03125 -6.359375 C 4.46875 -6.867188 5.972656 -7.585938 7.546875 -8.515625 C 9.117188 -9.441406 10.457031 -10.523438 11.5625 -11.765625 C 12.675781 -13.015625 13.234375 -14.328125 13.234375 -15.703125 C 13.234375 -16.109375 13.15625 -16.40625 13 -16.59375 C 12.84375 -16.78125 12.5625 -16.875 12.15625 -16.875 C 11.09375 -16.875 9.9375 -16.34375 8.6875 -15.28125 C 7.445312 -14.226562 6.300781 -12.878906 5.25 -11.234375 C 4.207031 -9.585938 3.46875 -7.960938 3.03125 -6.359375 Z M 3.03125 -6.359375" transform="translate(236.072 203.625)"/></g></g></g><g fill="#008037"><g><g><path d="M 1.953125 14.359375 C 1.128906 14.359375 0.425781 14.109375 -0.15625 13.609375 C -0.738281 13.117188 -1.03125 12.378906 -1.03125 11.390625 C -1.03125 10.117188 -0.535156 8.945312 0.453125 7.875 C 1.453125 6.800781 2.59375 5.878906 3.875 5.109375 C 5.15625 4.335938 6.859375 3.421875 8.984375 2.359375 C 9.929688 -0.0976562 10.800781 -2.921875 11.59375 -6.109375 C 8.550781 -1.722656 5.765625 0.46875 3.234375 0.46875 C 2.035156 0.46875 1.09375 0.015625 0.40625 -0.890625 C -0.269531 -1.796875 -0.609375 -3.003906 -0.609375 -4.515625 C -0.609375 -6.773438 0.113281 -8.929688 1.5625 -10.984375 C 3.019531 -13.035156 4.816406 -14.679688 6.953125 -15.921875 C 9.085938 -17.171875 11.097656 -17.796875 12.984375 -17.796875 C 13.898438 -17.796875 14.585938 -17.640625 15.046875 -17.328125 C 15.515625 -17.023438 15.75 -16.632812 15.75 -16.15625 C 15.75 -15.882812 15.671875 -15.65625 15.515625 -15.46875 C 15.359375 -15.28125 15.226562 -15.164062 15.125 -15.125 C 14.789062 -15.644531 14.109375 -15.90625 13.078125 -15.90625 C 11.367188 -15.90625 9.71875 -15.253906 8.125 -13.953125 C 6.539062 -12.648438 5.25 -11.078125 4.25 -9.234375 C 3.257812 -7.390625 2.765625 -5.726562 2.765625 -4.25 C 2.765625 -3.4375 2.925781 -2.816406 3.25 -2.390625 C 3.582031 -1.960938 4.019531 -1.75 4.5625 -1.75 C 5.488281 -1.75 6.644531 -2.378906 8.03125 -3.640625 C 9.414062 -4.910156 10.789062 -6.535156 12.15625 -8.515625 L 12.765625 -11.234375 C 12.910156 -11.878906 13.195312 -12.472656 13.625 -13.015625 C 14.050781 -13.566406 14.640625 -13.84375 15.390625 -13.84375 C 15.691406 -13.84375 16.050781 -13.796875 16.46875 -13.703125 C 16.46875 -12.773438 16.085938 -10.914062 15.328125 -8.125 C 14.578125 -5.34375 13.640625 -2.515625 12.515625 0.359375 C 14.296875 -0.492188 15.945312 -1.679688 17.46875 -3.203125 C 18.988281 -4.722656 20.125 -6.425781 20.875 -8.3125 L 21.546875 -7.796875 C 20.828125 -5.710938 19.535156 -3.8125 17.671875 -2.09375 C 15.804688 -0.382812 13.898438 0.925781 11.953125 1.84375 C 10.347656 5.738281 8.722656 8.796875 7.078125 11.015625 C 5.429688 13.242188 3.722656 14.359375 1.953125 14.359375 Z M 1.796875 12.71875 C 2.578125 12.71875 3.554688 11.972656 4.734375 10.484375 C 5.921875 9.003906 7.144531 6.757812 8.40625 3.75 C 5.914062 5.007812 3.984375 6.1875 2.609375 7.28125 C 1.242188 8.375 0.5625 9.585938 0.5625 10.921875 C 0.5625 11.472656 0.671875 11.910156 0.890625 12.234375 C 1.117188 12.554688 1.421875 12.71875 1.796875 12.71875 Z M 1.796875 12.71875" transform="translate(253.153 203.625)"/></g></g></g></svg>