<svg xmlns="http://www.w3.org/2000/svg" xmlns:xlink="http://www.w3.org/1999/xlink" width="500" zoomAndPan="magnify" viewBox="0 0 375 374.999991" height="500" preserveAspectRatio="xMidYMid meet" version="1.0"><defs><g><g id="id1"/></g><clipPath id="id2"><path d="M 214 71 L 358 71 L 358 171 L 214 171 Z M 214 71 " clip-rule="nonzero"/></clipPath><clipPath id="id3"><path d="M 186.15625 99.789062 L 248.207031 37.742188 L 368.058594 157.59375 L 306.011719 219.644531 Z M 186.15625 99.789062 " clip-rule="nonzero"/></clipPath><clipPath id="id4"><path d="M 186.15625 99.789062 L 248.207031 37.742188 L 368.058594 157.59375 L 306.011719 219.644531 Z M 186.15625 99.789062 " clip-rule="nonzero"/></clipPath><clipPath id="id5"><path d="M 239 136 L 256 136 L 256 142 L 239 142 Z M 239 136 " clip-rule="nonzero"/></clipPath><clipPath id="id6"><path d="M 186.15625 99.789062 L 248.207031 37.742188 L 368.058594 157.59375 L 306.011719 219.644531 Z M 186.15625 99.789062 " clip-rule="nonzero"/></clipPath><clipPath id="id7"><path d="M 186.15625 99.789062 L 248.207031 37.742188 L 368.058594 157.59375 L 306.011719 219.644531 Z M 186.15625 99.789062 " clip-rule="nonzero"/></clipPath><clipPath id="id8"><path d="M 246 148 L 267 148 L 267 157 L 246 157 Z M 246 148 " clip-rule="nonzero"/></clipPath><clipPath id="id9"><path d="M 186.15625 99.789062 L 248.207031 37.742188 L 368.058594 157.59375 L 306.011719 219.644531 Z M 186.15625 99.789062 " clip-rule="nonzero"/></clipPath><clipPath id="id10"><path d="M 186.15625 99.789062 L 248.207031 37.742188 L 368.058594 157.59375 L 306.011719 219.644531 Z M 186.15625 99.789062 " clip-rule="nonzero"/></clipPath><clipPath id="id11"><path d="M 280 158 L 299 158 L 299 167 L 280 167 Z M 280 158 " clip-rule="nonzero"/></clipPath><clipPath id="id12"><path d="M 186.15625 99.789062 L 248.207031 37.742188 L 368.058594 157.59375 L 306.011719 219.644531 Z M 186.15625 99.789062 " clip-rule="nonzero"/></clipPath><clipPath id="id13"><path d="M 186.15625 99.789062 L 248.207031 37.742188 L 368.058594 157.59375 L 306.011719 219.644531 Z M 186.15625 99.789062 " clip-rule="nonzero"/></clipPath><clipPath id="id14"><path d="M 224 90 L 227 90 L 227 96 L 224 96 Z M 224 90 " clip-rule="nonzero"/></clipPath><clipPath id="id15"><path d="M 186.15625 99.789062 L 248.207031 37.742188 L 368.058594 157.59375 L 306.011719 219.644531 Z M 186.15625 99.789062 " clip-rule="nonzero"/></clipPath><clipPath id="id16"><path d="M 186.15625 99.789062 L 248.207031 37.742188 L 368.058594 157.59375 L 306.011719 219.644531 Z M 186.15625 99.789062 " clip-rule="nonzero"/></clipPath><clipPath id="id17"><path d="M 231 99 L 237 99 L 237 103 L 231 103 Z M 231 99 " clip-rule="nonzero"/></clipPath><clipPath id="id18"><path d="M 186.15625 99.789062 L 248.207031 37.742188 L 368.058594 157.59375 L 306.011719 219.644531 Z M 186.15625 99.789062 " clip-rule="nonzero"/></clipPath><clipPath id="id19"><path d="M 186.15625 99.789062 L 248.207031 37.742188 L 368.058594 157.59375 L 306.011719 219.644531 Z M 186.15625 99.789062 " clip-rule="nonzero"/></clipPath><clipPath id="id20"><path d="M 253 153 L 259 153 L 259 155 L 253 155 Z M 253 153 " clip-rule="nonzero"/></clipPath><clipPath id="id21"><path d="M 186.15625 99.789062 L 248.207031 37.742188 L 368.058594 157.59375 L 306.011719 219.644531 Z M 186.15625 99.789062 " clip-rule="nonzero"/></clipPath><clipPath id="id22"><path d="M 186.15625 99.789062 L 248.207031 37.742188 L 368.058594 157.59375 L 306.011719 219.644531 Z M 186.15625 99.789062 " clip-rule="nonzero"/></clipPath><clipPath id="id23"><path d="M 246 144 L 251 144 L 251 147 L 246 147 Z M 246 144 " clip-rule="nonzero"/></clipPath><clipPath id="id24"><path d="M 186.15625 99.789062 L 248.207031 37.742188 L 368.058594 157.59375 L 306.011719 219.644531 Z M 186.15625 99.789062 " clip-rule="nonzero"/></clipPath><clipPath id="id25"><path d="M 186.15625 99.789062 L 248.207031 37.742188 L 368.058594 157.59375 L 306.011719 219.644531 Z M 186.15625 99.789062 " clip-rule="nonzero"/></clipPath><clipPath id="id26"><path d="M 252 85 L 257 85 L 257 91 L 252 91 Z M 252 85 " clip-rule="nonzero"/></clipPath><clipPath id="id27"><path d="M 186.15625 99.789062 L 248.207031 37.742188 L 368.058594 157.59375 L 306.011719 219.644531 Z M 186.15625 99.789062 " clip-rule="nonzero"/></clipPath><clipPath id="id28"><path d="M 186.15625 99.789062 L 248.207031 37.742188 L 368.058594 157.59375 L 306.011719 219.644531 Z M 186.15625 99.789062 " clip-rule="nonzero"/></clipPath><clipPath id="id29"><path d="M 261 89 L 264 89 L 264 97 L 261 97 Z M 261 89 " clip-rule="nonzero"/></clipPath><clipPath id="id30"><path d="M 186.15625 99.789062 L 248.207031 37.742188 L 368.058594 157.59375 L 306.011719 219.644531 Z M 186.15625 99.789062 " clip-rule="nonzero"/></clipPath><clipPath id="id31"><path d="M 186.15625 99.789062 L 248.207031 37.742188 L 368.058594 157.59375 L 306.011719 219.644531 Z M 186.15625 99.789062 " clip-rule="nonzero"/></clipPath><clipPath id="id32"><path d="M 284 102 L 292 102 L 292 117 L 284 117 Z M 284 102 " clip-rule="nonzero"/></clipPath><clipPath id="id33"><path d="M 186.15625 99.789062 L 248.207031 37.742188 L 368.058594 157.59375 L 306.011719 219.644531 Z M 186.15625 99.789062 " clip-rule="nonzero"/></clipPath><clipPath id="id34"><path d="M 186.15625 99.789062 L 248.207031 37.742188 L 368.058594 157.59375 L 306.011719 219.644531 Z M 186.15625 99.789062 " clip-rule="nonzero"/></clipPath><clipPath id="id35"><path d="M 301 107 L 305 107 L 305 112 L 301 112 Z M 301 107 " clip-rule="nonzero"/></clipPath><clipPath id="id36"><path d="M 186.15625 99.789062 L 248.207031 37.742188 L 368.058594 157.59375 L 306.011719 219.644531 Z M 186.15625 99.789062 " clip-rule="nonzero"/></clipPath><clipPath id="id37"><path d="M 186.15625 99.789062 L 248.207031 37.742188 L 368.058594 157.59375 L 306.011719 219.644531 Z M 186.15625 99.789062 " clip-rule="nonzero"/></clipPath><clipPath id="id38"><path d="M 305 111 L 308 111 L 308 116 L 305 116 Z M 305 111 " clip-rule="nonzero"/></clipPath><clipPath id="id39"><path d="M 186.15625 99.789062 L 248.207031 37.742188 L 368.058594 157.59375 L 306.011719 219.644531 Z M 186.15625 99.789062 " clip-rule="nonzero"/></clipPath><clipPath id="id40"><path d="M 186.15625 99.789062 L 248.207031 37.742188 L 368.058594 157.59375 L 306.011719 219.644531 Z M 186.15625 99.789062 " clip-rule="nonzero"/></clipPath><clipPath id="id41"><path d="M 290 99 L 293 99 L 293 103 L 290 103 Z M 290 99 " clip-rule="nonzero"/></clipPath><clipPath id="id42"><path d="M 186.15625 99.789062 L 248.207031 37.742188 L 368.058594 157.59375 L 306.011719 219.644531 Z M 186.15625 99.789062 " clip-rule="nonzero"/></clipPath><clipPath id="id43"><path d="M 186.15625 99.789062 L 248.207031 37.742188 L 368.058594 157.59375 L 306.011719 219.644531 Z M 186.15625 99.789062 " clip-rule="nonzero"/></clipPath></defs><g clip-path="url(#id2)"><g clip-path="url(#id3)"><g clip-path="url(#id4)"><path fill="rgb(49.409485%, 85.099792%, 34.118652%)" d="M 295.789062 152.226562 C 295.828125 152.351562 295.871094 152.472656 295.910156 152.597656 C 297.449219 152.136719 298.992188 151.675781 300.535156 151.214844 C 300.480469 151.054688 300.429688 150.890625 300.378906 150.730469 C 298.847656 151.226562 297.320312 151.726562 295.789062 152.226562 Z M 340.914062 158.535156 C 340.785156 158.753906 340.65625 158.976562 340.523438 159.199219 C 341.726562 159.824219 342.929688 160.449219 344.132812 161.070312 C 344.203125 160.949219 344.273438 160.824219 344.34375 160.699219 C 343.203125 159.976562 342.058594 159.257812 340.914062 158.535156 Z M 353.058594 163.339844 C 353.046875 164.269531 352.867188 164.878906 353.074219 165.070312 C 353.523438 165.484375 354.171875 165.683594 354.738281 165.972656 C 354.859375 165.785156 354.976562 165.59375 355.097656 165.40625 C 354.546875 164.847656 353.996094 164.289062 353.058594 163.339844 Z M 284.308594 128.308594 C 283.523438 126.8125 283.007812 125.039062 280.851562 124.914062 C 282.003906 126.046875 283.15625 127.175781 284.308594 128.308594 Z M 227.371094 89.941406 C 227.492188 89.828125 227.609375 89.71875 227.730469 89.609375 C 226.289062 87.839844 224.847656 86.070312 223.410156 84.304688 C 223.285156 84.40625 223.160156 84.511719 223.035156 84.613281 C 224.480469 86.390625 225.925781 88.164062 227.371094 89.941406 Z M 243.972656 106.136719 C 243.941406 106.179688 243.910156 106.21875 243.878906 106.257812 C 246.417969 108.335938 248.953125 110.414062 251.492188 112.488281 C 251.625 112.324219 251.753906 112.15625 251.886719 111.988281 C 249.25 110.039062 246.613281 108.089844 243.972656 106.136719 Z M 312.863281 158.988281 C 315.738281 158.066406 318.609375 157.148438 321.484375 156.226562 C 318.230469 156.042969 315.5625 157.589844 312.863281 158.988281 Z M 317.734375 147.683594 C 320.277344 150.695312 325.257812 153.367188 327.425781 152.996094 C 324 151.117188 320.867188 149.402344 317.734375 147.683594 Z M 276.671875 89.914062 C 276.460938 89.84375 276.246094 89.773438 276.035156 89.703125 C 275.855469 90.082031 275.464844 90.496094 275.523438 90.835938 C 276.015625 93.644531 276.585938 96.441406 277.152344 99.234375 C 277.195312 99.441406 277.417969 99.605469 277.820312 100.136719 C 277.402344 96.429688 277.035156 93.171875 276.671875 89.914062 Z M 302.960938 138.121094 C 300.105469 135.113281 297.371094 132.234375 294.636719 129.355469 C 296.222656 133.378906 297.988281 137.230469 302.960938 138.121094 Z M 315.535156 141.457031 C 315.410156 141.21875 315.335938 141.003906 315.203125 140.835938 C 313.09375 138.164062 310.96875 135.5 308.863281 132.824219 C 308.375 132.199219 307.9375 131.527344 307.492188 130.871094 C 307.074219 130.261719 306.746094 129.574219 306.246094 129.042969 C 305.761719 128.527344 305.109375 128.167969 304.335938 127.597656 C 307.40625 133.988281 313.054688 140.96875 315.535156 141.457031 Z M 308.261719 141.027344 C 308.191406 141.203125 308.125 141.375 308.058594 141.550781 C 308.351562 141.710938 308.636719 141.882812 308.9375 142.027344 C 312.859375 143.871094 316.84375 145.597656 320.6875 147.589844 C 323.773438 149.191406 326.652344 151.1875 329.699219 152.871094 C 332.183594 154.242188 334.78125 155.410156 337.328125 156.667969 C 337.445312 156.453125 337.5625 156.234375 337.679688 156.015625 C 334.582031 154.09375 331.414062 152.273438 328.40625 150.222656 C 325.765625 148.425781 322.011719 148.632812 320.144531 145.515625 C 316.183594 144.019531 312.222656 142.523438 308.261719 141.027344 Z M 286.835938 162.507812 C 285.070312 163.347656 283.304688 164.191406 281.539062 165.03125 C 279.261719 165.902344 276.980469 166.769531 274.699219 167.640625 C 274.742188 167.839844 274.789062 168.042969 274.832031 168.246094 C 277.140625 168.058594 279.449219 167.90625 281.75 167.667969 C 284.179688 167.421875 286.601562 167.089844 289.027344 166.796875 C 290.890625 166.574219 292.921875 166.761719 294.582031 166.0625 C 300.085938 163.75 305.449219 161.113281 310.867188 158.609375 C 313.433594 157.421875 315.953125 156.121094 318.59375 155.132812 C 320.398438 154.457031 322.371094 154.230469 324.269531 153.804688 C 323.6875 154.007812 323.027344 153.941406 322.378906 154.003906 C 319.089844 154.308594 315.804688 154.679688 312.515625 154.960938 C 310.984375 155.089844 309.386719 154.8125 307.917969 155.144531 C 302.972656 156.277344 298.078125 157.609375 293.15625 158.835938 C 290.976562 159.382812 288.699219 159.648438 286.601562 160.410156 C 284.320312 161.242188 282.191406 162.496094 280.003906 163.582031 C 278.242188 164.453125 276.488281 165.347656 274.730469 166.230469 C 274.679688 166.117188 274.625 166.003906 274.574219 165.890625 C 277.574219 164.292969 280.574219 162.691406 283.59375 161.082031 C 283.351562 160.648438 283.1875 160.351562 283.132812 160.257812 C 286.230469 159.660156 289.359375 159.394531 292.253906 158.433594 C 300.089844 155.835938 308.035156 154.105469 316.339844 154.054688 C 318.339844 154.042969 320.335938 153.441406 322.332031 153.113281 C 319.28125 152.222656 316.265625 151.554688 313.21875 151.160156 C 310.371094 150.792969 307.523438 149.917969 304.609375 151.082031 C 302.503906 151.921875 300.320312 152.667969 298.101562 153.097656 C 294.53125 153.792969 290.945312 154.292969 287.589844 155.835938 C 286.542969 156.316406 285.269531 156.300781 283.8125 156.566406 C 287.269531 155.027344 290.351562 153.621094 293.460938 152.273438 C 295.132812 151.550781 296.816406 150.839844 298.550781 150.292969 C 299.320312 150.046875 300.226562 150.199219 301.066406 150.226562 C 302.191406 150.261719 303.3125 150.351562 304.433594 150.417969 C 304.445312 150.132812 304.457031 149.847656 304.46875 149.5625 C 302.054688 149.398438 299.589844 148.867188 297.234375 149.160156 C 293.632812 149.609375 290.085938 150.550781 286.550781 151.425781 C 281.203125 152.75 276.511719 155.824219 271.097656 157.105469 C 267.761719 157.894531 264.640625 159.566406 261.410156 160.808594 C 261.238281 160.875 260.957031 160.648438 260.210938 160.359375 C 268.613281 157.226562 276.558594 154.269531 284.5 151.308594 C 284.441406 151.144531 284.378906 150.984375 284.320312 150.824219 C 282.644531 150.828125 280.964844 150.828125 279.289062 150.832031 C 279.300781 150.722656 279.3125 150.613281 279.324219 150.503906 C 283.105469 149.859375 286.886719 149.214844 290.667969 148.570312 C 282.972656 147.574219 275.359375 147.738281 267.789062 149.40625 C 267.894531 149 268.019531 148.738281 268.191406 148.707031 C 276.457031 147.125 284.800781 146.785156 293.203125 147.402344 C 293.21875 147.25 293.230469 147.097656 293.246094 146.945312 C 286.539062 145.953125 279.835938 144.964844 273.128906 143.972656 C 273.167969 143.742188 273.207031 143.511719 273.246094 143.277344 C 286.84375 145.292969 300.4375 147.304688 314.03125 149.320312 C 314.070312 149.144531 314.105469 148.96875 314.144531 148.796875 C 313.660156 148.53125 313.175781 148.257812 312.6875 148 C 309.550781 146.355469 306.367188 144.800781 303.289062 143.054688 C 298.8125 140.515625 294.441406 137.796875 289.207031 137.023438 C 286.734375 136.660156 284.265625 135.503906 281.855469 135.652344 C 273.558594 136.171875 265.546875 138.167969 257.835938 141.289062 C 257.378906 141.472656 256.933594 141.691406 256.480469 141.894531 C 256.417969 141.714844 256.351562 141.53125 256.289062 141.351562 C 261.796875 138.320312 267.949219 137.09375 273.960938 135.4375 C 271.832031 135.351562 269.734375 135.457031 267.640625 135.441406 C 265.652344 135.425781 263.667969 135.28125 261.679688 135.195312 C 261.6875 135.066406 261.691406 134.9375 261.699219 134.8125 C 267.078125 134.664062 272.453125 134.515625 277.832031 134.371094 C 277.675781 133.9375 277.527344 133.847656 277.371094 133.816406 C 272.839844 132.914062 268.296875 132.042969 263.773438 131.089844 C 263.085938 130.945312 262.480469 130.410156 261.839844 130.050781 C 262.636719 129.851562 263.429688 129.640625 264.234375 129.464844 C 264.378906 129.433594 264.558594 129.546875 264.726562 129.585938 C 270.003906 130.808594 275.277344 132.027344 280.554688 133.25 C 280.9375 133.339844 281.53125 133.351562 281.652344 133.589844 C 282.605469 135.441406 284.179688 134.28125 285.421875 134.636719 C 281.140625 132.050781 276.855469 129.550781 272.519531 127.148438 C 271.082031 126.355469 269.46875 125.882812 268.003906 125.132812 C 266.714844 124.476562 265.605469 123.378906 264.269531 122.925781 C 258.808594 121.066406 253.285156 119.394531 247.792969 117.625 C 246.34375 117.15625 244.929688 116.574219 243.5 116.046875 C 243.558594 115.90625 243.613281 115.761719 243.671875 115.617188 C 249.605469 117.511719 255.539062 119.402344 261.472656 121.296875 C 257.839844 118.605469 254.480469 115.597656 249.878906 114.792969 C 246.960938 114.285156 244.089844 113.453125 241.214844 112.707031 C 240.085938 112.414062 239 111.960938 237.894531 111.582031 C 237.957031 111.394531 238.023438 111.203125 238.085938 111.015625 C 242.59375 112.183594 247.105469 113.351562 251.617188 114.519531 C 251.316406 113.847656 250.851562 113.46875 250.402344 113.074219 C 246.410156 109.574219 242.351562 106.144531 238.449219 102.542969 C 235.390625 99.722656 232.4375 96.769531 229.601562 93.722656 C 226.585938 90.480469 223.101562 87.558594 221.59375 83.152344 C 221.421875 82.65625 221 82.238281 220.722656 81.828125 C 221.113281 85.808594 221.425781 89.761719 221.945312 93.6875 C 222.078125 94.671875 222.664062 95.8125 223.40625 96.457031 C 225.257812 98.066406 227.320312 99.425781 229.292969 100.890625 C 229.554688 101.085938 229.789062 101.316406 230.035156 101.53125 C 230.003906 101.570312 229.972656 101.613281 229.9375 101.652344 C 229.320312 101.261719 228.703125 100.871094 228.082031 100.484375 C 227.992188 100.640625 227.902344 100.796875 227.8125 100.953125 C 231.5625 103.109375 235.308594 105.269531 239.003906 107.394531 C 234.355469 106.765625 230.945312 103.3125 226.902344 101.140625 C 226.136719 102.375 226.855469 102.945312 227.726562 103.347656 C 230.941406 104.820312 234.164062 106.28125 237.410156 107.679688 C 238.695312 108.234375 240.058594 108.605469 241.386719 109.058594 C 236.09375 108.457031 231.46875 106.003906 226.296875 103.441406 C 226.886719 106.914062 227.378906 109.808594 227.875 112.703125 C 227.875 112.703125 227.871094 112.621094 227.871094 112.621094 C 228.132812 115.539062 228.375 118.460938 228.679688 121.375 C 228.703125 121.578125 229.199219 121.914062 229.433594 121.882812 C 231.40625 121.628906 233.460938 121.5625 234.734375 120.375 C 238.882812 121.132812 242.816406 121.851562 246.746094 122.566406 C 246.714844 122.714844 246.6875 122.867188 246.660156 123.015625 C 245.945312 122.882812 245.226562 122.75 244.511719 122.609375 C 241.035156 121.925781 237.5625 121.28125 233.992188 121.945312 C 233.023438 122.125 232.558594 122.511719 232.714844 123.519531 C 233.152344 126.332031 233.457031 129.167969 234.054688 131.941406 C 234.503906 134.027344 236.324219 135.082031 238.441406 134.636719 C 242.574219 133.765625 246.71875 133.929688 250.871094 134.382812 C 252.039062 134.507812 253.183594 134.828125 254.339844 135.0625 C 254.3125 135.25 254.285156 135.4375 254.257812 135.621094 C 252.449219 135.550781 250.640625 135.476562 248.828125 135.402344 C 249.023438 135.320312 249.214844 135.238281 249.40625 135.15625 C 245.703125 134.746094 242.070312 134.535156 238.570312 135.601562 C 242.011719 135.53125 245.464844 135.464844 248.914062 135.398438 C 248.140625 135.527344 247.371094 135.691406 246.59375 135.777344 C 244.335938 136.03125 242.078125 136.261719 239.816406 136.484375 C 238.847656 136.578125 238.597656 137.164062 238.679688 138.015625 C 238.972656 140.9375 239.179688 143.871094 239.589844 146.773438 C 239.898438 148.925781 241.480469 150.328125 243.070312 150.179688 C 243.167969 152.378906 243.152344 152.320312 245.21875 151.3125 C 247.261719 150.316406 249.363281 149.433594 251.472656 148.578125 C 252.0625 148.339844 252.765625 148.367188 253.636719 148.242188 C 250.628906 149.664062 247.898438 150.910156 245.222656 152.261719 C 244.796875 152.476562 244.28125 153.25 244.375 153.628906 C 245.265625 157.265625 248.800781 158.839844 252.347656 157.65625 C 257.292969 156.007812 262.316406 154.578125 267.355469 153.238281 C 269.160156 152.757812 271.109375 152.804688 273.070312 152.605469 C 266.4375 154.515625 259.941406 156.382812 253.359375 158.277344 C 253.527344 158.484375 253.640625 158.675781 253.800781 158.820312 C 258.125 162.703125 262.96875 165.535156 268.730469 166.800781 C 271.660156 167.449219 274.335938 167.464844 276.980469 165.976562 C 278.066406 165.363281 279.242188 164.882812 280.429688 164.484375 C 282.546875 163.769531 284.699219 163.160156 286.835938 162.507812 Z M 304.144531 129.878906 C 305.859375 132.46875 307.574219 135.054688 309.289062 137.644531 C 309.417969 137.558594 309.542969 137.472656 309.671875 137.386719 C 308.121094 135.015625 306.585938 132.636719 305.003906 130.289062 C 304.824219 130.027344 304.371094 129.949219 304.046875 129.785156 C 303.921875 129.21875 303.902344 128.605469 303.652344 128.105469 C 303.171875 127.136719 302.457031 126.273438 302.042969 125.285156 C 301.832031 124.78125 302.070312 124.089844 302.101562 123.484375 C 302.25 123.484375 302.402344 123.484375 302.550781 123.484375 C 303.074219 124.167969 303.597656 124.851562 304.121094 125.535156 C 304.195312 125.484375 304.273438 125.433594 304.34375 125.382812 C 303.496094 123.65625 302.644531 121.929688 301.796875 120.203125 C 303.429688 122.316406 305.121094 124.316406 306.601562 126.464844 C 308.152344 128.71875 309.421875 131.167969 310.957031 133.433594 C 314.828125 139.152344 319.742188 143.695312 326.332031 146.542969 C 324.109375 143.699219 322.59375 140.675781 321.902344 137.289062 C 321.4375 135.007812 321.070312 132.703125 320.699219 130.40625 C 320.523438 129.332031 320.394531 128.320312 318.863281 128.765625 C 318.707031 128.8125 318.441406 128.476562 318.167969 128.273438 C 319.636719 127.894531 320 127.523438 319.675781 125.996094 C 319.089844 123.28125 318.5 120.539062 317.550781 117.9375 C 316.777344 115.828125 316.277344 113.414062 313.953125 112.183594 C 313.65625 112.023438 313.570312 111.460938 313.261719 110.835938 C 313.980469 111.152344 314.390625 111.335938 314.941406 111.578125 C 314.707031 109.253906 314.453125 107.183594 312.851562 105.753906 C 312.480469 106.601562 312.113281 107.429688 311.75 108.261719 C 311.550781 108.175781 311.351562 108.089844 311.152344 108.003906 C 311.332031 107.15625 311.515625 106.3125 311.714844 105.382812 C 310.898438 105.15625 310.203125 104.964844 309.292969 104.714844 C 308.683594 110.089844 310.332031 115.015625 310.902344 120.050781 C 310.671875 119.722656 310.523438 119.375 310.457031 119.011719 C 309.757812 115.078125 309.078125 111.144531 308.363281 107.214844 C 308.296875 106.839844 308.015625 106.507812 307.832031 106.15625 C 307.675781 106.550781 307.359375 106.964844 307.402344 107.339844 C 307.488281 108.035156 307.785156 108.703125 307.992188 109.386719 C 307.796875 109.417969 307.597656 109.449219 307.402344 109.480469 C 306.921875 108.433594 305.957031 107.335938 306.050781 106.34375 C 306.339844 103.324219 305.730469 100.789062 303.980469 98.222656 C 302.773438 96.453125 301.621094 95.59375 299.566406 95.957031 C 299.121094 96.035156 298.65625 96.03125 298.210938 96.125 C 297.742188 96.226562 297.285156 96.394531 296.824219 96.535156 C 297.070312 96.90625 297.355469 97.257812 297.546875 97.652344 C 297.710938 97.992188 297.785156 98.375 297.878906 98.746094 C 298.234375 100.175781 298.59375 101.601562 298.929688 103.035156 C 299.152344 104 299.335938 104.972656 299.535156 105.945312 C 299.429688 105.957031 299.324219 105.972656 299.21875 105.984375 C 298.484375 103.617188 297.75 101.246094 297.015625 98.878906 C 296.574219 99.59375 296.445312 100.222656 296.523438 100.824219 C 297.039062 104.8125 297.59375 108.800781 298.164062 112.785156 C 298.230469 113.253906 298.453125 113.699219 298.601562 114.160156 C 298.367188 114.199219 298.132812 114.238281 297.894531 114.28125 C 297.261719 110.898438 296.515625 107.535156 296.023438 104.132812 C 295.382812 99.707031 293.484375 95.914062 290.839844 92.371094 C 289.195312 90.167969 286.679688 90.257812 284.484375 89.488281 C 284.25 89.40625 283.933594 89.597656 283.652344 89.617188 C 282.089844 89.730469 280.527344 89.84375 278.964844 89.921875 C 278.402344 89.953125 277.835938 89.882812 277.273438 89.859375 C 277.242188 89.992188 277.210938 90.128906 277.179688 90.261719 C 277.734375 90.667969 278.289062 91.078125 279.039062 91.636719 C 278.375 91.777344 277.980469 91.859375 277.402344 91.984375 C 278.71875 95.300781 279.980469 98.472656 281.238281 101.648438 C 281.148438 101.679688 281.058594 101.714844 280.96875 101.746094 C 280.054688 99.660156 279.140625 97.570312 278.226562 95.480469 C 278.039062 95.539062 277.847656 95.597656 277.660156 95.65625 C 277.980469 97.371094 278.054688 99.183594 278.675781 100.78125 C 280.484375 105.421875 282.511719 109.976562 284.453125 114.566406 C 284.695312 115.136719 284.917969 115.710938 285.152344 116.285156 C 283.4375 114.660156 282.25 112.730469 281.273438 110.558594 C 278.941406 105.398438 276.558594 100.28125 275.425781 94.683594 C 275.28125 93.972656 274.546875 93.375 273.972656 92.566406 C 275.019531 92.238281 274.996094 91.191406 274.332031 90.3125 C 273.867188 89.691406 272.972656 89.394531 272.492188 89.09375 C 271.75 87.773438 271.035156 86.546875 270.363281 85.296875 C 269.363281 83.4375 269.171875 83.394531 267.246094 84.34375 C 264.855469 85.523438 262.441406 86.648438 259.601562 88.003906 C 259.972656 90.898438 260.390625 94.191406 260.8125 97.488281 C 260.765625 97.503906 260.714844 97.519531 260.667969 97.535156 C 259.984375 94.75 259.300781 91.96875 258.539062 88.871094 C 259.222656 88.195312 259.050781 87.453125 257.640625 86.867188 C 256.917969 86.570312 256.359375 85.902344 255.652344 85.542969 C 255.203125 85.3125 254.546875 85.140625 254.109375 85.296875 C 251.71875 86.160156 249.363281 87.128906 246.847656 88.121094 C 248.503906 91.378906 250.140625 94.601562 251.777344 97.828125 C 250.453125 96.191406 249.503906 94.375 248.472656 92.605469 C 247.460938 90.863281 246.765625 88.828125 244.363281 87.6875 C 245.550781 90.445312 246.574219 92.828125 247.601562 95.203125 C 247.464844 95.277344 247.328125 95.351562 247.195312 95.421875 C 245.84375 91.238281 243.464844 87.738281 240.164062 84.9375 C 239.503906 84.378906 238.214844 83.964844 237.453125 84.214844 C 233.003906 85.660156 229.042969 84.550781 225.195312 82.296875 C 224.367188 81.8125 223.449219 81.488281 222.574219 81.09375 C 222.617188 81.832031 222.769531 82.414062 223.105469 82.546875 C 224.8125 83.230469 225.164062 84.894531 226.109375 86.164062 C 228.632812 89.542969 231.394531 92.804688 234.429688 95.730469 C 242.582031 103.601562 251.332031 110.773438 260.683594 117.191406 C 261.28125 117.601562 261.988281 117.851562 262.644531 118.179688 C 262.644531 117.660156 262.484375 117.4375 262.285156 117.257812 C 257.539062 112.953125 254.070312 107.613281 250.414062 102.445312 C 248.980469 100.417969 249.140625 100.304688 251.226562 99.269531 C 253.835938 104.652344 257.109375 109.574219 261.429688 113.761719 C 262.164062 114.476562 262.824219 115.269531 263.539062 116.007812 C 266.203125 118.757812 268.496094 122.078125 271.625 124.117188 C 276.347656 127.195312 281.652344 129.378906 286.710938 131.941406 C 284.410156 129.253906 282.035156 126.78125 279.511719 124.472656 C 276.945312 122.128906 274.21875 119.96875 271.589844 117.695312 C 269.066406 115.511719 266.332031 113.535156 264.453125 110.699219 C 267.738281 113.5625 271.027344 116.425781 274.3125 119.289062 C 274.441406 119.1875 274.566406 119.085938 274.691406 118.984375 C 271.078125 114.425781 268.703125 109.265625 266.851562 103.835938 C 267.453125 104.34375 267.851562 104.953125 268.234375 105.574219 C 271.46875 110.808594 274.636719 116.089844 277.980469 121.253906 C 278.734375 122.417969 280.101562 123.183594 281.1875 124.132812 C 281.316406 124.023438 281.449219 123.914062 281.578125 123.804688 C 280.925781 122.640625 280.273438 121.476562 279.621094 120.3125 C 282.136719 123.449219 284.273438 126.851562 286.941406 129.769531 C 290.101562 133.230469 295.027344 136.082031 296.980469 135.714844 C 296.355469 134.839844 295.6875 133.992188 295.113281 133.082031 C 293.230469 130.089844 291.738281 126.761719 289.445312 124.128906 C 284.347656 118.285156 278.78125 112.851562 273.5625 107.109375 C 271.777344 105.144531 270.453125 102.753906 268.933594 100.546875 C 268.875 100.460938 268.992188 100.257812 269.160156 99.480469 C 272.414062 103.746094 275.265625 107.78125 278.429688 111.554688 C 281.652344 115.398438 285.191406 118.980469 288.589844 122.675781 C 288.675781 122.601562 288.761719 122.523438 288.847656 122.445312 C 287.609375 120.367188 286.371094 118.289062 285.128906 116.203125 C 286.652344 118.289062 288.179688 120.375 289.703125 122.460938 C 289.773438 122.414062 289.84375 122.363281 289.917969 122.316406 C 289.011719 119.570312 288.105469 116.824219 287.199219 114.074219 C 288.789062 116.945312 290.148438 119.859375 291.507812 122.773438 C 292.027344 123.878906 292.390625 125.101562 293.105469 126.066406 C 293.867188 127.09375 295.011719 127.832031 295.894531 128.78125 C 298.839844 131.957031 301.554688 135.390625 304.753906 138.277344 C 306.292969 139.664062 308.726562 140.054688 310.753906 140.894531 C 308.351562 137.125 305.351562 134.074219 304.144531 129.878906 Z M 251.105469 159.699219 C 248.773438 161.582031 248.484375 161.691406 246.574219 159.632812 C 245.355469 158.324219 244.570312 156.613281 243.605469 155.074219 C 243.144531 154.335938 242.808594 153.34375 241.347656 154.976562 C 241.539062 153.859375 241.683594 153.402344 241.679688 152.945312 C 241.675781 152.539062 241.652344 151.957031 241.398438 151.757812 C 238.007812 149.097656 237.496094 145.394531 237.542969 141.476562 C 237.550781 140.847656 237.550781 140.222656 237.570312 139.59375 C 237.621094 138.175781 237.507812 137.082031 235.746094 136.492188 C 234.414062 136.046875 233.410156 134.84375 233.015625 133.222656 C 232.242188 130.015625 231.273438 126.855469 230.34375 123.53125 C 230.316406 123.527344 230.105469 123.5 229.894531 123.515625 C 227.167969 123.691406 226.972656 123.585938 226.730469 120.882812 C 226.320312 116.222656 225.988281 111.554688 225.625 106.890625 C 225.472656 104.960938 225.394531 103.023438 225.136719 101.105469 C 225.058594 100.523438 224.601562 99.84375 224.117188 99.484375 C 221.125 97.246094 219.535156 94.382812 220.066406 90.617188 C 220.96875 84.210938 218.101562 78.96875 214.996094 73.773438 C 214.660156 73.207031 214.355469 72.625 214.035156 72.050781 C 214.15625 71.933594 214.277344 71.816406 214.398438 71.699219 C 215.03125 72.167969 215.808594 72.527344 216.277344 73.121094 C 221.453125 79.710938 227.800781 83.742188 236.546875 82.695312 C 236.996094 82.640625 237.492188 82.785156 237.910156 82.65625 C 240.253906 81.953125 241.710938 82.613281 242.574219 85.050781 C 243.046875 86.390625 244.53125 86.800781 245.921875 86.558594 C 248.445312 86.128906 251.003906 85.765625 253.050781 83.964844 C 254.101562 83.042969 255.296875 83.1875 256.34375 83.992188 C 259.769531 86.636719 261.832031 86.441406 264.816406 83.359375 C 265.539062 82.609375 266.664062 82.144531 267.691406 81.804688 C 269.429688 81.234375 270.550781 82.027344 271.410156 83.628906 C 272.554688 85.761719 273.929688 87.820312 276.574219 88.273438 C 277.785156 88.480469 279.085938 88.546875 280.285156 88.339844 C 282.957031 87.882812 285.511719 88.359375 288.074219 88.957031 C 289.625 89.316406 290.78125 90.175781 291.804688 91.476562 C 293.039062 93.042969 294.296875 94.894531 296.699219 94.742188 C 297.363281 94.699219 297.984375 94.191406 298.65625 94.023438 C 299.632812 93.777344 300.933594 93.167969 301.570312 93.5625 C 303.007812 94.453125 304.253906 95.761719 305.335938 97.097656 C 306.332031 98.324219 306.929688 99.867188 307.851562 101.164062 C 308.691406 102.34375 309.789062 103.132812 311.398438 103.261719 C 313.925781 103.460938 315.050781 105.558594 315.894531 107.507812 C 317.089844 110.261719 318.042969 113.148438 318.8125 116.054688 C 320.121094 121 321.617188 125.953125 322.257812 131 C 322.820312 135.441406 325.042969 139.085938 326.789062 142.925781 C 327.714844 144.960938 329.867188 146.613281 331.785156 147.996094 C 337.433594 152.078125 343.210938 155.988281 349.007812 159.863281 C 351.269531 161.375 353.675781 162.691406 356.082031 163.96875 C 357.554688 164.75 357.976562 165.730469 357.523438 167.3125 C 357.253906 168.257812 356.917969 168.585938 355.980469 168.195312 C 353.785156 167.28125 351.394531 166.675781 349.40625 165.429688 C 343.59375 161.785156 337.03125 160.265625 330.714844 157.960938 C 325.515625 156.0625 321.132812 157.152344 316.53125 158.972656 C 311.34375 161.023438 306.070312 162.894531 301.015625 165.234375 C 294.789062 168.121094 288.117188 168.378906 281.515625 169.210938 C 280.617188 169.324219 279.679688 169.382812 278.839844 169.691406 C 275.988281 170.730469 273.261719 170.363281 270.503906 169.269531 C 267.273438 167.980469 263.898438 167.015625 260.761719 165.535156 C 257.847656 164.160156 255.164062 162.300781 252.386719 160.640625 C 251.953125 160.378906 251.566406 160.042969 251.105469 159.699219 " fill-opacity="1" fill-rule="nonzero"/></g></g></g><g clip-path="url(#id5)"><g clip-path="url(#id6)"><g clip-path="url(#id7)"><path fill="rgb(49.409485%, 85.099792%, 34.118652%)" d="M 239.757812 141.734375 C 244.46875 140.507812 249.183594 139.28125 253.894531 138.058594 C 253.859375 137.839844 253.820312 137.621094 253.785156 137.398438 C 249.953125 137.703125 246.121094 138.007812 242.292969 138.3125 C 242.277344 138.160156 242.265625 138.003906 242.25 137.851562 C 246.78125 137.476562 251.308594 137.105469 255.984375 136.71875 C 255.09375 138.933594 243.003906 142.800781 239.757812 141.734375 " fill-opacity="1" fill-rule="nonzero"/></g></g></g><g clip-path="url(#id8)"><g clip-path="url(#id9)"><g clip-path="url(#id10)"><path fill="rgb(49.409485%, 85.099792%, 34.118652%)" d="M 250.730469 154.132812 C 251.003906 154.222656 251.273438 154.316406 251.574219 154.417969 C 249.941406 156.167969 249.417969 156.28125 248.488281 154.976562 C 247.851562 155.488281 247.21875 155.996094 246.15625 156.847656 C 246.398438 155.402344 246.558594 154.429688 246.773438 153.152344 C 248.0625 154.523438 249.027344 153.621094 250.152344 153.234375 C 254.125 151.859375 258.140625 150.601562 262.160156 149.359375 C 263.636719 148.902344 265.171875 148.617188 266.769531 148.589844 C 261.382812 150.261719 255.996094 151.9375 250.609375 153.609375 C 250.652344 153.785156 250.691406 153.957031 250.730469 154.132812 " fill-opacity="1" fill-rule="nonzero"/></g></g></g><g clip-path="url(#id11)"><g clip-path="url(#id12)"><g clip-path="url(#id13)"><path fill="rgb(49.409485%, 85.099792%, 34.118652%)" d="M 281.53125 164.976562 C 284.105469 165.347656 285.75 163.335938 287.859375 162.472656 C 287.492188 162.492188 287.125 162.503906 286.753906 162.519531 C 288.203125 161.9375 289.648438 161.34375 291.101562 160.777344 C 293.21875 159.957031 295.265625 158.902344 298.140625 158.960938 C 292.214844 161.519531 286.691406 163.898438 280.695312 166.484375 C 281.140625 165.6875 281.335938 165.332031 281.53125 164.976562 " fill-opacity="1" fill-rule="nonzero"/></g></g></g><g clip-path="url(#id14)"><g clip-path="url(#id15)"><g clip-path="url(#id16)"><path fill="rgb(49.409485%, 85.099792%, 34.118652%)" d="M 224.398438 90.265625 C 225.191406 91.929688 225.984375 93.59375 226.808594 95.324219 C 225.242188 95.089844 223.75 92.351562 224.398438 90.265625 " fill-opacity="1" fill-rule="nonzero"/></g></g></g><g clip-path="url(#id17)"><g clip-path="url(#id18)"><g clip-path="url(#id19)"><path fill="rgb(49.409485%, 85.099792%, 34.118652%)" d="M 231.710938 99.878906 C 234.199219 99.105469 235.035156 101.351562 236.585938 102.328125 C 236.464844 102.542969 236.34375 102.757812 236.21875 102.972656 C 235.441406 102.476562 234.652344 102.003906 233.894531 101.484375 C 233.140625 100.96875 232.417969 100.402344 231.710938 99.878906 " fill-opacity="1" fill-rule="nonzero"/></g></g></g><g clip-path="url(#id20)"><g clip-path="url(#id21)"><g clip-path="url(#id22)"><path fill="rgb(49.409485%, 85.099792%, 34.118652%)" d="M 258.675781 154.121094 C 257.019531 154.320312 255.367188 154.515625 253.566406 154.730469 C 254.105469 153.554688 254.105469 153.554688 258.546875 153.480469 C 258.589844 153.695312 258.632812 153.90625 258.675781 154.121094 " fill-opacity="1" fill-rule="nonzero"/></g></g></g><g clip-path="url(#id23)"><g clip-path="url(#id24)"><g clip-path="url(#id25)"><path fill="rgb(49.409485%, 85.099792%, 34.118652%)" d="M 250.898438 145.039062 C 249.542969 145.679688 248.1875 146.316406 246.835938 146.957031 C 246.714844 146.691406 246.59375 146.425781 246.472656 146.160156 C 247.847656 145.558594 249.222656 144.953125 250.597656 144.351562 C 250.699219 144.582031 250.796875 144.808594 250.898438 145.039062 " fill-opacity="1" fill-rule="nonzero"/></g></g></g><g clip-path="url(#id26)"><g clip-path="url(#id27)"><g clip-path="url(#id28)"><path fill="rgb(49.409485%, 85.099792%, 34.118652%)" d="M 255.429688 85.675781 C 255.71875 86.253906 256.390625 87.175781 256.234375 87.351562 C 255.5625 88.09375 254.648438 88.617188 253.589844 89.390625 C 253.59375 89.441406 253.640625 89.964844 253.707031 90.679688 C 252.292969 90.203125 251.902344 89.121094 252.332031 88.257812 C 252.828125 87.253906 253.992188 87.027344 255.230469 87.714844 C 255.070312 87.082031 254.929688 86.539062 254.792969 85.996094 C 255.003906 85.886719 255.214844 85.78125 255.429688 85.675781 " fill-opacity="1" fill-rule="nonzero"/></g></g></g><g clip-path="url(#id29)"><g clip-path="url(#id30)"><g clip-path="url(#id31)"><path fill="rgb(49.409485%, 85.099792%, 34.118652%)" d="M 262.316406 89.570312 C 262.816406 91.929688 263.316406 94.292969 263.8125 96.652344 C 263.675781 96.683594 263.539062 96.714844 263.398438 96.746094 C 262.863281 94.386719 262.328125 92.027344 261.792969 89.671875 C 261.96875 89.636719 262.140625 89.605469 262.316406 89.570312 " fill-opacity="1" fill-rule="nonzero"/></g></g></g><g clip-path="url(#id32)"><g clip-path="url(#id33)"><g clip-path="url(#id34)"><path fill="rgb(49.409485%, 85.099792%, 34.118652%)" d="M 285.25 102.613281 C 287.839844 107.015625 289.921875 111.667969 291.613281 116.511719 C 289.265625 112 286.917969 107.488281 284.570312 102.976562 C 284.796875 102.855469 285.023438 102.734375 285.25 102.613281 " fill-opacity="1" fill-rule="nonzero"/></g></g></g><g clip-path="url(#id35)"><g clip-path="url(#id36)"><g clip-path="url(#id37)"><path fill="rgb(49.409485%, 85.099792%, 34.118652%)" d="M 301.339844 107.667969 C 302.359375 108.929688 303.382812 110.191406 304.386719 111.429688 C 303.136719 111.785156 301.265625 109.875 301.339844 107.667969 " fill-opacity="1" fill-rule="nonzero"/></g></g></g><g clip-path="url(#id38)"><g clip-path="url(#id39)"><g clip-path="url(#id40)"><path fill="rgb(49.409485%, 85.099792%, 34.118652%)" d="M 307.230469 115.300781 C 306.675781 113.828125 306.222656 112.628906 305.773438 111.425781 C 307.117188 112.28125 308.210938 113.234375 307.230469 115.300781 " fill-opacity="1" fill-rule="nonzero"/></g></g></g><g clip-path="url(#id41)"><g clip-path="url(#id42)"><g clip-path="url(#id43)"><path fill="rgb(49.409485%, 85.099792%, 34.118652%)" d="M 292.34375 102.71875 C 291.84375 101.6875 291.347656 100.65625 290.777344 99.46875 C 293.054688 99.558594 291.878906 101.679688 292.847656 102.429688 C 292.679688 102.527344 292.511719 102.625 292.34375 102.71875 " fill-opacity="1" fill-rule="nonzero"/></g></g></g><g fill="rgb(0%, 50.19989%, 21.569824%)" fill-opacity="1"><g transform="translate(6.775788, 221.999985)"><g><path d="M 16.453125 9.421875 C 13.421875 9.203125 11.4375 8.40625 10.5 7.03125 C 9.5625 5.664062 9.09375 3.609375 9.09375 0.859375 C 9.09375 -2.171875 9.8125 -5.992188 11.25 -10.609375 C 12.695312 -15.234375 14.9375 -21.695312 17.96875 -30 C 18.40625 -31.007812 18.984375 -32.523438 19.703125 -34.546875 C 17.898438 -34.398438 15.125 -34.070312 11.375 -33.5625 L 7.6875 -33.03125 C 7.976562 -37.789062 12.707031 -40.316406 21.875 -40.609375 C 26.5625 -53.523438 30.75 -63.8125 34.4375 -71.46875 C 32.5625 -71.613281 31.148438 -71.6875 30.203125 -71.6875 C 25.585938 -71.6875 22.035156 -71.210938 19.546875 -70.265625 C 17.054688 -69.328125 15.320312 -67.921875 14.34375 -66.046875 C 13.375 -64.171875 12.890625 -61.644531 12.890625 -58.46875 C 12.890625 -55.507812 13.359375 -52.660156 14.296875 -49.921875 C 9.523438 -50.710938 7.140625 -53.523438 7.140625 -58.359375 C 7.140625 -62.046875 8.457031 -65.332031 11.09375 -68.21875 C 13.726562 -71.101562 17.316406 -73.359375 21.859375 -74.984375 C 26.410156 -76.609375 31.429688 -77.421875 36.921875 -77.421875 C 39.597656 -77.421875 43.390625 -77.132812 48.296875 -76.5625 C 49.015625 -76.488281 50.457031 -76.34375 52.625 -76.125 C 54.789062 -75.90625 56.738281 -75.796875 58.46875 -75.796875 C 61.351562 -75.796875 64.023438 -76.15625 66.484375 -76.875 C 63.953125 -73.988281 61.785156 -72.003906 59.984375 -70.921875 C 58.179688 -69.835938 56.269531 -69.296875 54.25 -69.296875 C 52.875 -69.296875 50.421875 -69.550781 46.890625 -70.0625 C 45.078125 -70.414062 42.40625 -70.773438 38.875 -71.140625 C 36.851562 -66.234375 33.390625 -56.019531 28.484375 -40.5 C 31.941406 -40.28125 35.1875 -39.953125 38.21875 -39.515625 C 42.769531 -39.085938 45.835938 -38.835938 47.421875 -38.765625 C 46.628906 -37.609375 45.671875 -36.796875 44.546875 -36.328125 C 43.429688 -35.859375 41.703125 -35.550781 39.359375 -35.40625 C 37.015625 -35.257812 32.847656 -35.113281 26.859375 -34.96875 L 22.09375 -18.84375 C 18.476562 -6.71875 16.597656 2.703125 16.453125 9.421875 Z M 16.453125 9.421875 "/></g></g></g><g fill="rgb(0%, 50.19989%, 21.569824%)" fill-opacity="1"><g transform="translate(58.967377, 221.999985)"><g><path d="M 18.734375 2.8125 C 16.273438 2.8125 14.34375 2.160156 12.9375 0.859375 C 11.53125 -0.429688 10.828125 -2.125 10.828125 -4.21875 C 10.828125 -6.675781 11.875 -10.210938 13.96875 -14.828125 C 14.90625 -17.210938 15.609375 -19.109375 16.078125 -20.515625 C 16.546875 -21.921875 16.78125 -23.238281 16.78125 -24.46875 C 16.78125 -26.269531 16.363281 -27.691406 15.53125 -28.734375 C 14.707031 -29.785156 13.789062 -30.65625 12.78125 -31.34375 C 11.769531 -32.03125 11.082031 -32.484375 10.71875 -32.703125 C 9.132812 -28.660156 7.4375 -24.707031 5.625 -20.84375 C 3.820312 -16.976562 2.304688 -14 1.078125 -11.90625 L 0.109375 -13.75 C 3.578125 -20.46875 6.5 -27.328125 8.875 -34.328125 C 8.15625 -35.046875 7.796875 -35.910156 7.796875 -36.921875 C 7.796875 -38.222656 8.066406 -39.453125 8.609375 -40.609375 C 9.148438 -41.765625 9.796875 -42.664062 10.546875 -43.3125 C 11.304688 -43.957031 11.90625 -44.28125 12.34375 -44.28125 C 13.351562 -44.28125 13.859375 -43.414062 13.859375 -41.6875 C 13.859375 -41.394531 13.675781 -40.742188 13.3125 -39.734375 C 12.957031 -38.722656 12.742188 -38.039062 12.671875 -37.6875 C 12.671875 -36.957031 12.976562 -36.285156 13.59375 -35.671875 C 14.207031 -35.066406 15.195312 -34.289062 16.5625 -33.34375 C 18.800781 -31.757812 20.550781 -30.191406 21.8125 -28.640625 C 23.082031 -27.085938 23.71875 -25.082031 23.71875 -22.625 C 23.71875 -21.039062 23.460938 -19.472656 22.953125 -17.921875 C 22.453125 -16.367188 21.695312 -14.328125 20.6875 -11.796875 C 19.09375 -8.335938 18.296875 -5.847656 18.296875 -4.328125 C 18.296875 -2.160156 19.378906 -1.078125 21.546875 -1.078125 C 23.710938 -1.078125 26.039062 -1.941406 28.53125 -3.671875 C 31.019531 -5.410156 33.3125 -7.5625 35.40625 -10.125 C 37.5 -12.6875 39.015625 -15.050781 39.953125 -17.21875 L 41.359375 -16.140625 C 39.117188 -11.148438 35.867188 -6.742188 31.609375 -2.921875 C 27.359375 0.898438 23.066406 2.8125 18.734375 2.8125 Z M 18.734375 2.8125 "/></g></g></g><g fill="rgb(0%, 50.19989%, 21.569824%)" fill-opacity="1"><g transform="translate(96.649267, 221.999985)"><g><path d="M 11.6875 4.765625 C 7.4375 4.765625 4.171875 3.585938 1.890625 1.234375 C -0.378906 -1.109375 -1.515625 -4.117188 -1.515625 -7.796875 C -1.515625 -12.054688 -0.109375 -16.640625 2.703125 -21.546875 C 5.523438 -26.453125 9.082031 -30.582031 13.375 -33.9375 C 17.664062 -37.300781 21.867188 -38.984375 25.984375 -38.984375 C 30.460938 -38.984375 32.703125 -36.78125 32.703125 -32.375 C 32.703125 -28.832031 31.363281 -25.523438 28.6875 -22.453125 C 26.019531 -19.390625 22.59375 -16.882812 18.40625 -14.9375 C 14.21875 -12.988281 10.03125 -11.800781 5.84375 -11.375 C 5.550781 -10.144531 5.40625 -8.84375 5.40625 -7.46875 C 5.40625 -4.875 6.054688 -2.707031 7.359375 -0.96875 C 8.660156 0.757812 10.863281 1.625 13.96875 1.625 C 18.375 1.625 22.8125 -0.210938 27.28125 -3.890625 C 31.757812 -7.578125 35.40625 -12.128906 38.21875 -17.546875 L 39.515625 -16.5625 C 36.628906 -10.144531 32.625 -4.984375 27.5 -1.078125 C 22.375 2.816406 17.101562 4.765625 11.6875 4.765625 Z M 6.390625 -13.421875 C 9.421875 -14.503906 12.59375 -16.019531 15.90625 -17.96875 C 19.226562 -19.914062 22.0625 -22.207031 24.40625 -24.84375 C 26.757812 -27.476562 27.9375 -30.242188 27.9375 -33.140625 C 27.9375 -34.003906 27.773438 -34.632812 27.453125 -35.03125 C 27.128906 -35.425781 26.53125 -35.625 25.65625 -35.625 C 23.425781 -35.625 20.992188 -34.503906 18.359375 -32.265625 C 15.722656 -30.023438 13.300781 -27.171875 11.09375 -23.703125 C 8.894531 -20.242188 7.328125 -16.816406 6.390625 -13.421875 Z M 6.390625 -13.421875 "/></g></g></g><g fill="rgb(0%, 50.19989%, 21.569824%)" fill-opacity="1"><g transform="translate(132.706943, 221.999985)"><g><path d="M 11.375 5.515625 C 6.675781 5.515625 3.242188 4.109375 1.078125 1.296875 C -1.085938 -1.515625 -2.171875 -4.832031 -2.171875 -8.65625 C -2.171875 -11.550781 -1.664062 -13.59375 -0.65625 -14.78125 C 0.351562 -15.96875 1.453125 -16.8125 2.640625 -17.3125 C 3.835938 -17.820312 4.546875 -18.1875 4.765625 -18.40625 C 9.378906 -23.457031 12.953125 -28.691406 15.484375 -34.109375 L 15.484375 -35.40625 C 15.484375 -37.863281 15.894531 -39.703125 16.71875 -40.921875 C 17.550781 -42.148438 18.546875 -42.765625 19.703125 -42.765625 C 20.285156 -42.765625 20.71875 -42.640625 21 -42.390625 C 21.289062 -42.140625 21.4375 -41.796875 21.4375 -41.359375 C 21.4375 -41.078125 21.328125 -40.484375 21.109375 -39.578125 C 20.898438 -38.671875 20.796875 -37.675781 20.796875 -36.59375 C 20.796875 -35.15625 20.992188 -33.625 21.390625 -32 C 21.785156 -30.375 22.414062 -28.257812 23.28125 -25.65625 C 24.289062 -22.550781 25.066406 -19.84375 25.609375 -17.53125 C 26.148438 -15.226562 26.421875 -12.882812 26.421875 -10.5 C 26.421875 -8.625 26.203125 -6.859375 25.765625 -5.203125 C 28.367188 -5.628906 30.785156 -6.800781 33.015625 -8.71875 C 35.253906 -10.632812 37.390625 -13.539062 39.421875 -17.4375 L 40.390625 -16.34375 C 39.085938 -12.59375 37.097656 -9.632812 34.421875 -7.46875 C 31.753906 -5.300781 28.691406 -3.96875 25.234375 -3.46875 C 24.148438 -0.507812 22.378906 1.722656 19.921875 3.234375 C 17.460938 4.753906 14.613281 5.515625 11.375 5.515625 Z M 18.953125 -5.3125 C 19.234375 -7.1875 19.375 -8.878906 19.375 -10.390625 C 19.375 -12.554688 19.191406 -14.722656 18.828125 -16.890625 C 18.472656 -19.054688 17.9375 -21.546875 17.21875 -24.359375 C 16.5625 -27.242188 16.164062 -29.125 16.03125 -30 C 12.34375 -23.925781 8.835938 -19.234375 5.515625 -15.921875 C 6.671875 -13.390625 8.421875 -11.148438 10.765625 -9.203125 C 13.117188 -7.253906 15.847656 -5.957031 18.953125 -5.3125 Z M 11.59375 1.734375 C 14.90625 1.734375 17.175781 -0.0351562 18.40625 -3.578125 C 15.519531 -4.148438 12.882812 -5.285156 10.5 -6.984375 C 8.125 -8.679688 6.320312 -10.539062 5.09375 -12.5625 C 3.5 -12.488281 2.703125 -11.222656 2.703125 -8.765625 C 2.703125 -6.023438 3.515625 -3.585938 5.140625 -1.453125 C 6.765625 0.671875 8.914062 1.734375 11.59375 1.734375 Z M 11.59375 1.734375 "/></g></g></g><g fill="rgb(0%, 50.19989%, 21.569824%)" fill-opacity="1"><g transform="translate(170.063992, 221.999985)"><g><path d="M 5.09375 4.109375 C 3.789062 4.109375 2.722656 2.988281 1.890625 0.75 C 1.066406 -1.476562 0.65625 -4.109375 0.65625 -7.140625 C 0.65625 -13.785156 2.691406 -22.738281 6.765625 -34 C 10.847656 -45.257812 15.488281 -55.289062 20.6875 -64.09375 C 25.882812 -72.90625 30 -77.3125 33.03125 -77.3125 C 34.1875 -77.3125 35.066406 -76.609375 35.671875 -75.203125 C 36.285156 -73.796875 36.59375 -72.222656 36.59375 -70.484375 C 36.59375 -67.097656 35.382812 -62.585938 32.96875 -56.953125 C 30.550781 -51.328125 27.410156 -45.914062 23.546875 -40.71875 C 19.691406 -35.519531 15.738281 -31.691406 11.6875 -29.234375 C 10.394531 -26.203125 9.40625 -22.679688 8.71875 -18.671875 C 8.03125 -14.671875 7.6875 -11.082031 7.6875 -7.90625 C 7.6875 -6.75 7.757812 -5.519531 7.90625 -4.21875 C 10.789062 -12.59375 14.054688 -19.359375 17.703125 -24.515625 C 21.347656 -29.679688 25.410156 -32.265625 29.890625 -32.265625 C 32.628906 -32.265625 34.679688 -31.304688 36.046875 -29.390625 C 37.421875 -27.484375 38.109375 -25.191406 38.109375 -22.515625 C 38.109375 -20.929688 37.910156 -19.414062 37.515625 -17.96875 C 37.117188 -16.53125 36.488281 -14.65625 35.625 -12.34375 C 34.90625 -10.394531 34.363281 -8.84375 34 -7.6875 C 33.632812 -6.53125 33.453125 -5.410156 33.453125 -4.328125 C 33.453125 -2.960938 33.738281 -1.9375 34.3125 -1.25 C 34.894531 -0.5625 35.691406 -0.21875 36.703125 -0.21875 C 39.160156 -0.21875 42.046875 -1.929688 45.359375 -5.359375 C 48.679688 -8.785156 51.425781 -12.847656 53.59375 -17.546875 L 55 -16.234375 C 52.625 -10.753906 49.578125 -6.242188 45.859375 -2.703125 C 42.140625 0.828125 38.257812 2.59375 34.21875 2.59375 C 31.832031 2.59375 29.988281 1.960938 28.6875 0.703125 C 27.394531 -0.554688 26.75 -2.195312 26.75 -4.21875 C 26.75 -5.8125 27.289062 -8.375 28.375 -11.90625 C 29.53125 -15.8125 30.109375 -18.703125 30.109375 -20.578125 C 30.109375 -22.378906 29.726562 -23.691406 28.96875 -24.515625 C 28.207031 -25.347656 27.210938 -25.765625 25.984375 -25.765625 C 23.316406 -25.765625 20.988281 -24.191406 19 -21.046875 C 17.019531 -17.910156 14.875 -13.492188 12.5625 -7.796875 C 10.832031 -3.609375 9.460938 -0.578125 8.453125 1.296875 C 7.441406 3.171875 6.320312 4.109375 5.09375 4.109375 Z M 13.109375 -33.453125 C 16.210938 -35.910156 19.296875 -39.46875 22.359375 -44.125 C 25.429688 -48.78125 27.957031 -53.398438 29.9375 -57.984375 C 31.925781 -62.566406 32.921875 -65.796875 32.921875 -67.671875 C 32.921875 -68.253906 32.773438 -68.546875 32.484375 -68.546875 C 31.691406 -68.546875 30.050781 -66.757812 27.5625 -63.1875 C 25.070312 -59.613281 22.453125 -55.117188 19.703125 -49.703125 C 16.960938 -44.285156 14.765625 -38.867188 13.109375 -33.453125 Z M 13.109375 -33.453125 "/></g></g></g><g fill="rgb(0%, 50.19989%, 21.569824%)" fill-opacity="1"><g transform="translate(221.605889, 221.999985)"><g><path d="M 22.734375 9.421875 C 20.492188 9.421875 18.378906 8.769531 16.390625 7.46875 C 14.410156 6.164062 13.421875 3.929688 13.421875 0.765625 C 13.421875 -1.191406 13.816406 -3.703125 14.609375 -6.765625 C 15.410156 -9.835938 16.675781 -14.113281 18.40625 -19.59375 C 21.21875 -28.550781 23.363281 -36.078125 24.84375 -42.171875 C 26.320312 -48.273438 27.0625 -54.140625 27.0625 -59.765625 C 27.0625 -63.160156 26.953125 -65.867188 26.734375 -67.890625 C 26.523438 -69.910156 25.953125 -71.585938 25.015625 -72.921875 C 24.078125 -74.265625 22.597656 -74.9375 20.578125 -74.9375 C 18.117188 -74.9375 16.039062 -73.976562 14.34375 -72.0625 C 12.644531 -70.144531 11.398438 -67.78125 10.609375 -64.96875 C 9.816406 -62.15625 9.421875 -59.410156 9.421875 -56.734375 C 9.421875 -54.359375 9.742188 -52.410156 10.390625 -50.890625 C 7.722656 -50.890625 5.773438 -51.609375 4.546875 -53.046875 C 3.316406 -54.492188 2.703125 -56.375 2.703125 -58.6875 C 2.703125 -61.644531 3.625 -64.617188 5.46875 -67.609375 C 7.3125 -70.609375 9.765625 -73.082031 12.828125 -75.03125 C 15.898438 -76.988281 19.128906 -77.96875 22.515625 -77.96875 C 26.921875 -77.96875 30.242188 -76.25 32.484375 -72.8125 C 34.722656 -69.382812 35.84375 -64.675781 35.84375 -58.6875 C 35.84375 -53.414062 35.117188 -47.859375 33.671875 -42.015625 C 32.234375 -36.171875 30.175781 -29.128906 27.5 -20.890625 C 25.625 -15.191406 24.21875 -10.570312 23.28125 -7.03125 C 22.34375 -3.5 21.875 -0.539062 21.875 1.84375 C 21.875 3.207031 22.085938 4.25 22.515625 4.96875 C 22.953125 5.695312 23.75 6.0625 24.90625 6.0625 C 28.875 6.0625 33.925781 2.273438 40.0625 -5.296875 C 46.195312 -12.878906 51.554688 -21.832031 56.140625 -32.15625 C 60.722656 -42.476562 63.015625 -51.394531 63.015625 -58.90625 C 63.015625 -62.300781 62.488281 -64.878906 61.4375 -66.640625 C 60.394531 -68.410156 58.9375 -69.585938 57.0625 -70.171875 C 58.070312 -71.828125 59.117188 -73.066406 60.203125 -73.890625 C 61.285156 -74.722656 62.332031 -75.140625 63.34375 -75.140625 C 65.070312 -75.140625 66.601562 -74.09375 67.9375 -72 C 69.28125 -69.90625 69.953125 -66.945312 69.953125 -63.125 C 69.953125 -55.40625 67.242188 -45.710938 61.828125 -34.046875 C 56.410156 -22.390625 49.96875 -12.226562 42.5 -3.5625 C 35.03125 5.09375 28.441406 9.421875 22.734375 9.421875 Z M 22.734375 9.421875 "/></g></g></g><g fill="rgb(0%, 50.19989%, 21.569824%)" fill-opacity="1"><g transform="translate(290.039676, 221.999985)"><g><path d="M 11.6875 4.765625 C 7.4375 4.765625 4.171875 3.585938 1.890625 1.234375 C -0.378906 -1.109375 -1.515625 -4.117188 -1.515625 -7.796875 C -1.515625 -12.054688 -0.109375 -16.640625 2.703125 -21.546875 C 5.523438 -26.453125 9.082031 -30.582031 13.375 -33.9375 C 17.664062 -37.300781 21.867188 -38.984375 25.984375 -38.984375 C 30.460938 -38.984375 32.703125 -36.78125 32.703125 -32.375 C 32.703125 -28.832031 31.363281 -25.523438 28.6875 -22.453125 C 26.019531 -19.390625 22.59375 -16.882812 18.40625 -14.9375 C 14.21875 -12.988281 10.03125 -11.800781 5.84375 -11.375 C 5.550781 -10.144531 5.40625 -8.84375 5.40625 -7.46875 C 5.40625 -4.875 6.054688 -2.707031 7.359375 -0.96875 C 8.660156 0.757812 10.863281 1.625 13.96875 1.625 C 18.375 1.625 22.8125 -0.210938 27.28125 -3.890625 C 31.757812 -7.578125 35.40625 -12.128906 38.21875 -17.546875 L 39.515625 -16.5625 C 36.628906 -10.144531 32.625 -4.984375 27.5 -1.078125 C 22.375 2.816406 17.101562 4.765625 11.6875 4.765625 Z M 6.390625 -13.421875 C 9.421875 -14.503906 12.59375 -16.019531 15.90625 -17.96875 C 19.226562 -19.914062 22.0625 -22.207031 24.40625 -24.84375 C 26.757812 -27.476562 27.9375 -30.242188 27.9375 -33.140625 C 27.9375 -34.003906 27.773438 -34.632812 27.453125 -35.03125 C 27.128906 -35.425781 26.53125 -35.625 25.65625 -35.625 C 23.425781 -35.625 20.992188 -34.503906 18.359375 -32.265625 C 15.722656 -30.023438 13.300781 -27.171875 11.09375 -23.703125 C 8.894531 -20.242188 7.328125 -16.816406 6.390625 -13.421875 Z M 6.390625 -13.421875 "/></g></g></g><g fill="rgb(0%, 50.19989%, 21.569824%)" fill-opacity="1"><g transform="translate(326.097352, 221.999985)"><g><path d="M 4.109375 30.3125 C 2.378906 30.3125 0.898438 29.785156 -0.328125 28.734375 C -1.554688 27.691406 -2.171875 26.125 -2.171875 24.03125 C -2.171875 21.363281 -1.125 18.890625 0.96875 16.609375 C 3.0625 14.335938 5.460938 12.390625 8.171875 10.765625 C 10.878906 9.148438 14.472656 7.222656 18.953125 4.984375 C 20.972656 -0.210938 22.8125 -6.171875 24.46875 -12.890625 C 18.039062 -3.648438 12.160156 0.96875 6.828125 0.96875 C 4.296875 0.96875 2.304688 0.015625 0.859375 -1.890625 C -0.578125 -3.804688 -1.296875 -6.351562 -1.296875 -9.53125 C -1.296875 -14.289062 0.234375 -18.835938 3.296875 -23.171875 C 6.367188 -27.503906 10.160156 -30.988281 14.671875 -33.625 C 19.179688 -36.257812 23.421875 -37.578125 27.390625 -37.578125 C 29.335938 -37.578125 30.800781 -37.25 31.78125 -36.59375 C 32.757812 -35.945312 33.25 -35.117188 33.25 -34.109375 C 33.25 -33.535156 33.082031 -33.046875 32.75 -32.640625 C 32.425781 -32.242188 32.15625 -32.007812 31.9375 -31.9375 C 31.21875 -33.019531 29.773438 -33.5625 27.609375 -33.5625 C 24.003906 -33.5625 20.519531 -32.191406 17.15625 -29.453125 C 13.800781 -26.710938 11.078125 -23.390625 8.984375 -19.484375 C 6.890625 -15.585938 5.84375 -12.085938 5.84375 -8.984375 C 5.84375 -7.253906 6.1875 -5.9375 6.875 -5.03125 C 7.5625 -4.132812 8.484375 -3.6875 9.640625 -3.6875 C 11.585938 -3.6875 14.019531 -5.019531 16.9375 -7.6875 C 19.863281 -10.351562 22.769531 -13.78125 25.65625 -17.96875 L 26.96875 -23.71875 C 27.25 -25.082031 27.84375 -26.34375 28.75 -27.5 C 29.65625 -28.65625 30.898438 -29.234375 32.484375 -29.234375 C 33.128906 -29.234375 33.890625 -29.125 34.765625 -28.90625 C 34.765625 -26.957031 33.96875 -23.039062 32.375 -17.15625 C 30.789062 -11.28125 28.804688 -5.304688 26.421875 0.765625 C 30.171875 -1.046875 33.648438 -3.554688 36.859375 -6.765625 C 40.078125 -9.984375 42.484375 -13.578125 44.078125 -17.546875 L 45.484375 -16.453125 C 43.960938 -12.054688 41.234375 -8.050781 37.296875 -4.4375 C 33.367188 -0.832031 29.347656 1.941406 25.234375 3.890625 C 21.835938 12.117188 18.40625 18.578125 14.9375 23.265625 C 11.476562 27.960938 7.867188 30.3125 4.109375 30.3125 Z M 3.796875 26.859375 C 5.453125 26.859375 7.523438 25.285156 10.015625 22.140625 C 12.503906 19.003906 15.085938 14.257812 17.765625 7.90625 C 12.492188 10.570312 8.410156 13.0625 5.515625 15.375 C 2.628906 17.6875 1.1875 20.25 1.1875 23.0625 C 1.1875 24.21875 1.421875 25.140625 1.890625 25.828125 C 2.359375 26.515625 2.992188 26.859375 3.796875 26.859375 Z M 3.796875 26.859375 "/></g></g></g></svg>