<svg xmlns="http://www.w3.org/2000/svg" xmlns:xlink="http://www.w3.org/1999/xlink" width="1587" zoomAndPan="magnify" viewBox="0 0 1190.25 1683.749945" height="2245" preserveAspectRatio="xMidYMid meet" version="1.0"><defs><g><g id="id1"/></g><clipPath id="id2"><path d="M 465.21875 556.707031 L 725.113281 556.707031 L 725.113281 816.601562 L 465.21875 816.601562 Z M 465.21875 556.707031 " clip-rule="nonzero"/></clipPath><clipPath id="id3"><path d="M 376 470 L 699 470 L 699 839 L 376 839 Z M 376 470 " clip-rule="nonzero"/></clipPath><clipPath id="id4"><path d="M 444.972656 419.808594 L 852.074219 518.820312 L 745.648438 956.398438 L 338.546875 857.386719 Z M 444.972656 419.808594 " clip-rule="nonzero"/></clipPath><clipPath id="id5"><path d="M 444.972656 419.808594 L 852.074219 518.820312 L 745.648438 956.398438 L 338.546875 857.386719 Z M 444.972656 419.808594 " clip-rule="nonzero"/></clipPath><clipPath id="id6"><path d="M 499 547 L 813 547 L 813 909 L 499 909 Z M 499 547 " clip-rule="nonzero"/></clipPath><clipPath id="id7"><path d="M 444.972656 419.808594 L 852.074219 518.820312 L 745.648438 956.398438 L 338.546875 857.386719 Z M 444.972656 419.808594 " clip-rule="nonzero"/></clipPath><clipPath id="id8"><path d="M 444.972656 419.808594 L 852.074219 518.820312 L 745.648438 956.398438 L 338.546875 857.386719 Z M 444.972656 419.808594 " clip-rule="nonzero"/></clipPath></defs><g clip-path="url(#id2)"><path fill="rgb(0%, 50.19989%, 21.569824%)" d="M 725.113281 686.65625 C 725.113281 688.78125 725.0625 690.90625 724.957031 693.03125 C 724.851562 695.15625 724.695312 697.277344 724.488281 699.390625 C 724.28125 701.507812 724.019531 703.617188 723.707031 705.722656 C 723.394531 707.824219 723.03125 709.921875 722.617188 712.007812 C 722.203125 714.09375 721.738281 716.167969 721.21875 718.230469 C 720.703125 720.292969 720.136719 722.339844 719.519531 724.375 C 718.902344 726.410156 718.234375 728.429688 717.519531 730.433594 C 716.800781 732.433594 716.035156 734.417969 715.222656 736.382812 C 714.410156 738.347656 713.546875 740.292969 712.636719 742.214844 C 711.730469 744.136719 710.773438 746.035156 709.769531 747.910156 C 708.769531 749.789062 707.71875 751.636719 706.625 753.460938 C 705.53125 755.285156 704.394531 757.082031 703.214844 758.851562 C 702.03125 760.617188 700.808594 762.355469 699.542969 764.066406 C 698.273438 765.773438 696.964844 767.449219 695.617188 769.09375 C 694.269531 770.738281 692.878906 772.347656 691.453125 773.921875 C 690.023438 775.5 688.558594 777.039062 687.054688 778.542969 C 685.550781 780.046875 684.011719 781.511719 682.433594 782.941406 C 680.859375 784.367188 679.25 785.757812 677.605469 787.105469 C 675.960938 788.453125 674.285156 789.761719 672.578125 791.03125 C 670.867188 792.296875 669.128906 793.519531 667.363281 794.703125 C 665.59375 795.882812 663.796875 797.019531 661.972656 798.113281 C 660.148438 799.207031 658.300781 800.253906 656.421875 801.257812 C 654.546875 802.261719 652.648438 803.214844 650.726562 804.125 C 648.804688 805.035156 646.859375 805.898438 644.894531 806.710938 C 642.929688 807.523438 640.945312 808.289062 638.945312 809.007812 C 636.941406 809.722656 634.921875 810.390625 632.890625 811.007812 C 630.855469 811.625 628.804688 812.191406 626.742188 812.707031 C 624.679688 813.226562 622.605469 813.691406 620.519531 814.105469 C 618.433594 814.519531 616.335938 814.882812 614.234375 815.195312 C 612.128906 815.507812 610.019531 815.769531 607.902344 815.976562 C 605.789062 816.183594 603.667969 816.339844 601.542969 816.445312 C 599.417969 816.550781 597.292969 816.601562 595.167969 816.601562 C 593.039062 816.601562 590.914062 816.550781 588.789062 816.445312 C 586.667969 816.339844 584.546875 816.183594 582.429688 815.976562 C 580.3125 815.769531 578.203125 815.507812 576.101562 815.195312 C 573.996094 814.882812 571.902344 814.519531 569.816406 814.105469 C 567.730469 813.691406 565.65625 813.226562 563.59375 812.707031 C 561.53125 812.191406 559.480469 811.625 557.445312 811.007812 C 555.410156 810.390625 553.390625 809.722656 551.390625 809.007812 C 549.386719 808.289062 547.402344 807.523438 545.4375 806.710938 C 543.472656 805.898438 541.53125 805.035156 539.605469 804.125 C 537.683594 803.214844 535.785156 802.261719 533.910156 801.257812 C 532.035156 800.253906 530.183594 799.207031 528.359375 798.113281 C 526.535156 797.019531 524.742188 795.882812 522.972656 794.703125 C 521.203125 793.519531 519.464844 792.296875 517.757812 791.03125 C 516.050781 789.761719 514.375 788.453125 512.730469 787.105469 C 511.085938 785.757812 509.476562 784.367188 507.898438 782.941406 C 506.324219 781.511719 504.785156 780.046875 503.28125 778.542969 C 501.777344 777.039062 500.3125 775.5 498.882812 773.921875 C 497.453125 772.347656 496.066406 770.738281 494.714844 769.09375 C 493.367188 767.449219 492.058594 765.773438 490.792969 764.066406 C 489.527344 762.355469 488.300781 760.617188 487.121094 758.851562 C 485.9375 757.082031 484.800781 755.285156 483.707031 753.460938 C 482.613281 751.636719 481.566406 749.789062 480.5625 747.910156 C 479.5625 746.035156 478.605469 744.136719 477.695312 742.214844 C 476.785156 740.292969 475.925781 738.347656 475.113281 736.382812 C 474.296875 734.417969 473.53125 732.433594 472.816406 730.433594 C 472.097656 728.429688 471.433594 726.410156 470.816406 724.375 C 470.199219 722.339844 469.628906 720.292969 469.113281 718.230469 C 468.597656 716.167969 468.132812 714.09375 467.714844 712.007812 C 467.300781 709.921875 466.9375 707.824219 466.625 705.722656 C 466.3125 703.617188 466.054688 701.507812 465.84375 699.390625 C 465.636719 697.277344 465.480469 695.15625 465.375 693.03125 C 465.273438 690.90625 465.21875 688.78125 465.21875 686.65625 C 465.21875 684.527344 465.273438 682.402344 465.375 680.277344 C 465.480469 678.15625 465.636719 676.035156 465.84375 673.917969 C 466.054688 671.800781 466.3125 669.691406 466.625 667.585938 C 466.9375 665.484375 467.300781 663.390625 467.714844 661.304688 C 468.132812 659.21875 468.597656 657.144531 469.113281 655.082031 C 469.628906 653.015625 470.199219 650.96875 470.816406 648.933594 C 471.433594 646.898438 472.097656 644.878906 472.816406 642.878906 C 473.53125 640.875 474.296875 638.890625 475.113281 636.925781 C 475.925781 634.960938 476.785156 633.019531 477.695312 631.09375 C 478.605469 629.171875 479.5625 627.273438 480.5625 625.398438 C 481.566406 623.523438 482.613281 621.671875 483.707031 619.847656 C 484.800781 618.023438 485.9375 616.230469 487.121094 614.460938 C 488.300781 612.691406 489.527344 610.953125 490.792969 609.246094 C 492.058594 607.539062 493.367188 605.863281 494.714844 604.21875 C 496.066406 602.574219 497.453125 600.964844 498.882812 599.386719 C 500.3125 597.8125 501.777344 596.273438 503.28125 594.769531 C 504.785156 593.265625 506.324219 591.796875 507.898438 590.371094 C 509.476562 588.941406 511.085938 587.554688 512.730469 586.203125 C 514.375 584.855469 516.050781 583.546875 517.757812 582.28125 C 519.464844 581.011719 521.203125 579.789062 522.972656 578.609375 C 524.742188 577.425781 526.535156 576.289062 528.359375 575.195312 C 530.183594 574.101562 532.035156 573.054688 533.910156 572.050781 C 535.785156 571.050781 537.683594 570.09375 539.605469 569.183594 C 541.53125 568.273438 543.472656 567.414062 545.4375 566.597656 C 547.402344 565.785156 549.386719 565.019531 551.390625 564.304688 C 553.390625 563.585938 555.410156 562.921875 557.445312 562.304688 C 559.480469 561.6875 561.53125 561.117188 563.59375 560.601562 C 565.65625 560.085938 567.730469 559.621094 569.816406 559.203125 C 571.902344 558.789062 573.996094 558.425781 576.101562 558.113281 C 578.203125 557.800781 580.3125 557.542969 582.429688 557.332031 C 584.546875 557.125 586.667969 556.96875 588.789062 556.863281 C 590.914062 556.761719 593.039062 556.707031 595.167969 556.707031 C 597.292969 556.707031 599.417969 556.761719 601.542969 556.863281 C 603.667969 556.96875 605.789062 557.125 607.902344 557.332031 C 610.019531 557.542969 612.128906 557.800781 614.234375 558.113281 C 616.335938 558.425781 618.433594 558.789062 620.519531 559.203125 C 622.605469 559.621094 624.679688 560.085938 626.742188 560.601562 C 628.804688 561.117188 630.855469 561.6875 632.886719 562.304688 C 634.921875 562.921875 636.941406 563.585938 638.945312 564.304688 C 640.945312 565.019531 642.929688 565.785156 644.894531 566.597656 C 646.859375 567.414062 648.804688 568.273438 650.726562 569.183594 C 652.648438 570.09375 654.546875 571.050781 656.421875 572.050781 C 658.300781 573.054688 660.148438 574.101562 661.972656 575.195312 C 663.796875 576.289062 665.59375 577.425781 667.363281 578.609375 C 669.128906 579.789062 670.867188 581.011719 672.578125 582.28125 C 674.285156 583.546875 675.960938 584.855469 677.605469 586.203125 C 679.25 587.554688 680.859375 588.941406 682.433594 590.371094 C 684.011719 591.796875 685.550781 593.265625 687.054688 594.769531 C 688.558594 596.273438 690.023438 597.8125 691.453125 599.386719 C 692.878906 600.964844 694.269531 602.574219 695.617188 604.21875 C 696.964844 605.863281 698.273438 607.539062 699.542969 609.246094 C 700.808594 610.953125 702.03125 612.691406 703.214844 614.460938 C 704.394531 616.230469 705.53125 618.023438 706.625 619.847656 C 707.71875 621.671875 708.769531 623.523438 709.769531 625.398438 C 710.773438 627.273438 711.730469 629.171875 712.636719 631.09375 C 713.546875 633.019531 714.410156 634.960938 715.222656 636.925781 C 716.035156 638.890625 716.800781 640.875 717.519531 642.878906 C 718.234375 644.878906 718.902344 646.898438 719.519531 648.933594 C 720.136719 650.96875 720.703125 653.015625 721.21875 655.082031 C 721.738281 657.144531 722.203125 659.21875 722.617188 661.304688 C 723.03125 663.390625 723.394531 665.484375 723.707031 667.585938 C 724.019531 669.691406 724.28125 671.800781 724.488281 673.917969 C 724.695312 676.035156 724.851562 678.15625 724.957031 680.277344 C 725.0625 682.402344 725.113281 684.527344 725.113281 686.65625 Z M 725.113281 686.65625 " fill-opacity="1" fill-rule="nonzero"/></g><path fill="rgb(100%, 100%, 100%)" d="M 478.546875 686.65625 C 478.546875 712.644531 486.878906 736.300781 501.207031 755.628906 L 495.875 718.640625 Z M 503.539062 614.351562 L 518.863281 610.6875 C 531.859375 591.695312 550.183594 581.699219 566.84375 578.699219 L 540.523438 597.023438 L 566.511719 590.695312 L 585.171875 580.363281 L 579.839844 571.035156 C 549.1875 575.035156 521.863281 591.027344 503.539062 614.351562 Z M 520.53125 686.320312 L 531.527344 708.3125 L 564.179688 711.3125 L 581.839844 777.953125 L 603.496094 777.953125 L 628.152344 747.964844 L 626.820312 729.304688 C 637.484375 720.972656 645.8125 710.644531 649.144531 697.316406 L 632.484375 701.316406 L 610.828125 667.328125 L 615.824219 663.996094 L 637.148438 693.984375 L 658.140625 675.660156 C 647.144531 674.328125 639.816406 668.996094 636.816406 659.667969 L 674.800781 665.664062 L 688.460938 693.652344 L 694.460938 656.335938 L 711.453125 676.324219 C 707.121094 627.011719 671.800781 586.363281 625.15625 574.035156 C 625.15625 585.363281 618.824219 594.691406 609.828125 600.023438 L 597.832031 593.027344 L 574.84375 606.355469 L 582.839844 614.019531 L 595.167969 599.355469 L 592.835938 617.351562 C 577.839844 617.351562 570.511719 619.683594 561.179688 624.679688 L 559.179688 634.011719 L 548.851562 631.675781 L 544.519531 643.339844 L 553.515625 646.003906 C 558.515625 639.675781 562.511719 635.675781 572.175781 633.34375 L 582.171875 644.339844 L 576.175781 646.339844 L 579.839844 649.335938 L 585.171875 643.007812 L 577.507812 632.34375 C 585.171875 632.34375 589.503906 637.007812 592.167969 648.671875 L 605.828125 628.679688 L 622.488281 635.675781 L 620.824219 640.007812 L 601.164062 641.671875 L 601.164062 649.003906 L 616.160156 650.003906 L 611.492188 662 C 584.171875 662 576.175781 661.332031 570.511719 649.003906 L 547.851562 647.671875 C 531.191406 657.667969 522.863281 670.660156 520.53125 686.320312 Z M 552.851562 617.351562 L 566.179688 620.683594 L 566.179688 607.355469 Z M 626.820312 630.34375 L 633.484375 626.679688 L 642.480469 645.339844 L 636.484375 646.671875 Z M 630.484375 763.289062 L 636.484375 765.625 L 646.480469 742.632812 L 633.816406 750.628906 Z M 630.484375 763.289062 " fill-opacity="1" fill-rule="nonzero"/><g clip-path="url(#id3)"><g clip-path="url(#id4)"><g clip-path="url(#id5)"><path fill="rgb(0%, 50.19989%, 21.569824%)" d="M 580.671875 544.941406 C 589.929688 535.292969 594.054688 522.25 595.632812 514.78125 C 610.625 513.902344 625.855469 514.988281 640.878906 518.878906 C 633.238281 518.925781 624.257812 519.597656 617.3125 522.671875 C 602.695312 528.875 591.710938 549.53125 591.710938 549.53125 C 591.710938 549.53125 608.984375 553.96875 627.300781 546.285156 C 640.855469 540.535156 650.15625 528.753906 653.9375 523.007812 C 666.605469 527.757812 679.0625 534.355469 691.089844 543.707031 C 693.121094 545.15625 696.039062 544.914062 697.488281 542.882812 C 698.933594 540.855469 698.691406 537.941406 696.660156 536.492188 C 696.039062 536.105469 695.640625 535.769531 695.023438 535.382812 C 696.382812 528.808594 697.492188 518.367188 694.324219 506.886719 C 688.972656 487.734375 671.585938 474.9375 671.585938 474.9375 C 671.585938 474.9375 665.171875 498.367188 669.320312 513.660156 C 670.121094 516.234375 671.375 518.917969 672.683594 521.378906 C 661.640625 515.835938 649.816406 511.535156 637.554688 509.027344 C 634.527344 501.863281 627.917969 487.878906 619.21875 480.527344 C 607.132812 470.445312 583.59375 470.195312 583.59375 470.195312 C 583.59375 470.195312 587.476562 487.566406 602.726562 500.320312 C 605.324219 502.378906 608.199219 504.269531 610.90625 505.878906 C 604.503906 505.75 598.046875 505.84375 591.476562 506.390625 C 587.296875 502.992188 579.339844 497.488281 568.765625 494.914062 C 552.390625 490.695312 535.917969 496.6875 535.917969 496.6875 C 535.917969 496.6875 547.726562 506.9375 559.71875 511.519531 C 553.832031 513.183594 548.171875 514.898438 542.402344 517.066406 C 536.757812 512.835938 526.992188 505.941406 518.105469 504.253906 C 504.71875 501.476562 486.859375 510.222656 486.859375 510.222656 C 486.859375 510.222656 496.992188 521.496094 513.527344 525.039062 C 516.453125 525.75 519.488281 526.015625 522.351562 525.996094 C 517.761719 528.210938 513.339844 530.707031 508.867188 533.425781 C 503.683594 531.214844 490.734375 526.636719 478.519531 530.808594 C 462.433594 536.179688 446.980469 551.699219 446.980469 551.699219 C 446.980469 551.699219 464.53125 555.96875 477.953125 555.664062 L 474.269531 559.050781 C 469.078125 563.738281 464.335938 568.535156 459.765625 573.613281 C 452.066406 572.929688 436.445312 572.464844 425.859375 576.792969 C 411.242188 582.996094 400.257812 603.652344 400.257812 603.652344 C 400.257812 603.652344 417.53125 608.089844 435.847656 600.40625 L 440.71875 598.019531 C 436.992188 603.542969 433.714844 609.171875 430.664062 614.855469 C 426.117188 614.941406 419.546875 615.484375 415.128906 617.980469 C 407.964844 621.949219 403.949219 634.542969 403.949219 634.542969 C 403.949219 634.542969 413.457031 636.617188 422.578125 631.453125 L 423.136719 631.113281 C 421.421875 635.21875 419.933594 639.382812 418.667969 643.597656 C 413.910156 645.53125 400.75 651.617188 395.105469 664.046875 C 388.074219 679.238281 388.445312 701.226562 388.445312 701.226562 C 388.445312 701.226562 401.699219 692.789062 410.90625 683.363281 C 410.492188 688.976562 410.304688 694.644531 410.570312 700.417969 C 405.742188 700.671875 397.496094 702.238281 390.175781 707.835938 C 379.054688 716.320312 376.183594 732.042969 376.183594 732.042969 C 376.183594 732.042969 394.039062 731.152344 402.8125 724.476562 C 406.613281 721.59375 409.273438 716.527344 411.097656 711.972656 C 411.640625 717.578125 412.410156 723.242188 413.625 729.011719 C 408.53125 731.34375 401.144531 735.257812 397.527344 740.332031 C 391.460938 748.613281 393.421875 765.039062 393.421875 765.039062 C 393.421875 765.039062 405.484375 762.496094 413.277344 752.015625 C 415.058594 749.59375 416.441406 746.835938 417.378906 743.96875 C 418.359375 747.777344 419.617188 751.417969 421.105469 755.109375 C 418.988281 757.925781 413.875 766.207031 413.472656 772.773438 C 413.132812 781.019531 421.457031 790.898438 421.457031 790.898438 C 421.457031 790.898438 428.148438 783.957031 428.699219 773.855469 C 432.175781 781.128906 436.15625 788.285156 440.585938 795.550781 C 439.675781 802.234375 439.234375 811.886719 442.089844 818.769531 C 446.660156 830.355469 464.410156 838.71875 464.410156 838.71875 C 464.410156 838.71875 469.429688 824.941406 463.660156 810.445312 C 460.6875 803.058594 454.976562 797.148438 450.175781 793.363281 C 450.175781 793.363281 450.230469 793.136719 450.003906 793.082031 C 447.109375 788.332031 444.210938 783.582031 441.765625 778.9375 C 444.136719 780.945312 446.566406 782.726562 448.875 784 C 459.976562 789.320312 478.8125 783.425781 478.8125 783.425781 C 478.8125 783.425781 473.046875 769.886719 459.183594 763.179688 C 450 758.804688 439.386719 759.316406 433.160156 760.421875 C 430.761719 754.601562 428.8125 748.890625 427.089844 743.234375 C 431.550781 746.460938 436.738281 749.628906 441.632812 751.058594 C 453.398438 754.632812 469.988281 749.148438 469.988281 749.148438 C 469.988281 749.148438 461.546875 738.761719 446.6875 734.195312 C 438.472656 731.722656 430.046875 732.054688 424.15625 732.761719 C 422.882812 727.21875 421.890625 721.5 421.066406 716.0625 C 421.460938 716.398438 421.578125 716.902344 421.972656 717.238281 C 429.046875 725.382812 441.25 727.160156 441.25 727.160156 C 441.25 727.160156 439.304688 713.597656 433.753906 707.011719 C 430.414062 703.105469 424.277344 700.898438 419.777344 699.800781 C 419.570312 693.800781 419.808594 687.910156 420.277344 682.070312 C 424.847656 693.65625 442.597656 702.019531 442.597656 702.019531 C 442.597656 702.019531 447.617188 688.246094 441.84375 673.75 C 438.132812 664.515625 430.394531 658.109375 425.089844 654.441406 C 426.953125 647.753906 429.042969 641.121094 431.585938 634.597656 C 433.617188 644.851562 443.292969 655.058594 443.292969 655.058594 C 443.292969 655.058594 452.15625 645.074219 452.285156 630.824219 C 452.390625 621.566406 447.730469 613.292969 444.554688 608.710938 C 448.996094 601.222656 454.113281 593.898438 459.292969 587.304688 C 458.109375 595.109375 463.011719 605.347656 463.011719 605.347656 C 463.011719 605.347656 471.457031 600.023438 474.589844 590.074219 C 476.84375 582.765625 474.660156 575.09375 473.398438 571.453125 L 479.929688 565.1875 C 482.105469 563.097656 484.453125 561.289062 486.851562 559.253906 C 485.964844 560.945312 485.078125 562.632812 484.417969 564.375 C 479.390625 577.195312 485.195312 596.460938 485.195312 596.460938 C 485.195312 596.460938 498 587.910156 504.070312 571.773438 C 507.933594 561.765625 507.414062 551.164062 506.636719 544.550781 C 511.726562 541.265625 516.707031 538.429688 521.96875 535.421875 C 521.632812 535.820312 521.523438 536.269531 521.1875 536.664062 C 515.695312 546.511719 520.078125 563.765625 520.078125 563.765625 C 520.078125 563.765625 532.628906 559.203125 539.457031 546.816406 C 543.339844 539.667969 543.730469 531.195312 543.46875 525.417969 C 553.722656 521.484375 564.484375 518.390625 575.480469 516.304688 C 570.273438 519.085938 565.183594 522.371094 561.390625 526.207031 C 550.515625 537.605469 548.648438 560.957031 548.648438 560.957031 C 548.648438 560.957031 566.949219 559.21875 580.671875 544.941406 Z M 580.671875 544.941406 " fill-opacity="1" fill-rule="nonzero"/></g></g></g><g clip-path="url(#id6)"><g clip-path="url(#id7)"><g clip-path="url(#id8)"><path fill="rgb(0%, 50.19989%, 21.569824%)" d="M 754.6875 780.066406 C 753.117188 780.636719 751.71875 781.488281 750.097656 782.28125 C 753.542969 776.933594 756.765625 771.527344 759.816406 765.84375 C 764.140625 765.703125 770.429688 765.328125 774.847656 762.835938 C 781.785156 758.808594 785.636719 746.890625 785.636719 746.890625 C 785.636719 746.890625 776.355469 744.871094 767.515625 749.863281 L 767.234375 750.03125 C 768.894531 746.152344 770.382812 741.992188 771.59375 738 C 776.355469 736.066406 789.007812 730.097656 794.542969 718.113281 C 801.519531 703.148438 800.984375 681.835938 800.984375 681.835938 C 800.984375 681.835938 788.007812 690.105469 779.140625 699.132812 C 779.496094 693.746094 779.683594 688.078125 779.589844 682.582031 C 784.191406 682.273438 792.214844 680.652344 799.199219 675.449219 C 809.988281 667.363281 812.804688 651.859375 812.804688 651.859375 C 812.804688 651.859375 795.453125 652.640625 786.902344 659.367188 C 783.160156 662.027344 780.550781 666.867188 778.78125 671.199219 C 778.238281 665.589844 777.417969 660.152344 776.367188 654.664062 C 781.464844 652.332031 788.347656 648.53125 792.136719 643.738281 C 798.148438 635.679688 796.074219 619.703125 796.074219 619.703125 C 796.074219 619.703125 784.238281 622.300781 776.78125 632.386719 C 775 634.8125 773.894531 637.398438 772.789062 639.984375 C 771.753906 636.402344 770.492188 632.761719 769.230469 629.125 C 771.347656 626.304688 776.125 618.421875 776.476562 612.082031 C 776.984375 604.113281 768.605469 594.457031 768.605469 594.457031 C 768.605469 594.457031 762.246094 601.003906 761.527344 610.824219 C 758.222656 603.832031 754.242188 596.675781 749.984375 589.691406 C 750.835938 583.234375 751.167969 574.03125 748.539062 567.203125 C 744.136719 555.898438 726.785156 547.867188 726.785156 547.867188 C 726.785156 547.867188 722.046875 561.472656 727.476562 575.410156 C 730.273438 582.515625 735.816406 588.148438 740.390625 591.878906 C 740.335938 592.105469 740.5625 592.160156 740.507812 592.382812 C 743.460938 596.910156 745.960938 601.328125 748.40625 605.96875 C 746.257812 604.019531 744.058594 602.292969 741.691406 601.242188 C 730.816406 595.976562 712.710938 601.808594 712.710938 601.808594 C 712.710938 601.808594 718.304688 615.070312 731.941406 621.722656 C 740.902344 626.042969 751.289062 625.472656 757.238281 624.539062 C 759.464844 630.082031 761.414062 635.792969 763.191406 641.222656 C 758.957031 638.050781 753.9375 635.164062 749.097656 633.511719 C 737.558594 629.988281 721.25 635.304688 721.25 635.304688 C 721.25 635.304688 729.519531 645.410156 743.925781 649.867188 C 751.917969 652.285156 760.117188 651.898438 765.785156 651.136719 C 767.058594 656.683594 767.9375 661.894531 768.757812 667.332031 C 768.589844 667.050781 768.191406 666.71875 768.023438 666.4375 C 761.171875 658.34375 749.195312 656.621094 749.195312 656.621094 C 749.195312 656.621094 750.972656 669.90625 756.574219 676.269531 C 759.914062 680.175781 765.828125 682.328125 770.101562 683.367188 C 770.367188 689.144531 770.179688 694.8125 769.488281 700.59375 C 765.03125 689.515625 747.902344 681.539062 747.902344 681.539062 C 747.902344 681.539062 743.164062 695.144531 748.59375 709.082031 C 752.136719 718.035156 759.648438 724.386719 764.785156 727.777344 C 762.972656 734.238281 760.9375 740.648438 758.453125 746.945312 C 756.308594 737.140625 747.03125 727.265625 747.03125 727.265625 C 747.03125 727.265625 738.445312 737.082031 738.425781 750.882812 C 738.429688 759.6875 742.867188 767.910156 746.042969 772.488281 C 741.65625 779.753906 736.871094 786.683594 731.691406 793.277344 C 732.820312 785.699219 728.035156 775.964844 728.035156 775.964844 C 728.035156 775.964844 719.871094 781.121094 716.789062 790.84375 C 714.589844 797.925781 716.605469 805.320312 717.867188 808.957031 C 715.691406 811.046875 713.738281 813.191406 711.617188 815.054688 L 705.25 820.648438 C 706.136719 818.960938 706.972656 817.496094 707.578125 815.976562 C 712.324219 803.324219 706.863281 784.621094 706.863281 784.621094 C 706.863281 784.621094 694.390625 792.777344 688.375 808.6875 C 684.621094 818.25 684.972656 828.570312 685.746094 835.183594 C 680.9375 838.300781 675.957031 841.132812 670.75 843.914062 C 671.085938 843.519531 671.140625 843.296875 671.476562 842.902344 C 676.914062 833.273438 672.421875 816.472656 672.421875 816.472656 C 672.421875 816.472656 660.148438 820.867188 653.378906 833.023438 C 649.550781 839.949219 649.210938 848.195312 649.53125 853.75 C 639.558594 857.511719 629.242188 860.71875 618.527344 862.632812 C 623.453125 860.023438 628.261719 856.90625 632.003906 853.292969 C 642.824219 842.121094 644.355469 819.167969 644.355469 819.167969 C 644.355469 819.167969 627.242188 821.90625 613.855469 835.789062 C 604.875 845.269531 600.859375 857.859375 599.335938 865.105469 C 584.792969 866.09375 570.070312 864.890625 555.722656 861.164062 C 563.136719 861.0625 571.667969 860.28125 578.277344 857.605469 C 592.617188 851.570312 603.265625 831.308594 603.265625 831.308594 C 603.265625 831.308594 586.441406 826.980469 568.683594 834.324219 C 555.410156 839.902344 546.445312 851.289062 542.664062 857.035156 C 530.21875 852.34375 518.210938 845.851562 506.578125 836.832031 C 504.601562 835.164062 501.628906 835.628906 500.183594 837.65625 C 498.511719 839.632812 498.980469 842.601562 501.011719 844.046875 C 501.632812 844.4375 502.027344 844.773438 502.648438 845.160156 C 501.34375 851.507812 500.289062 861.726562 503.339844 872.703125 C 508.351562 891.296875 525.566406 903.816406 525.566406 903.816406 C 525.566406 903.816406 531.816406 881.054688 527.613281 865.992188 C 526.808594 863.414062 525.726562 861.007812 524.417969 858.546875 C 534.167969 863.539062 544.246094 867.179688 554.824219 869.753906 L 558.652344 870.683594 C 561.675781 877.84375 567.945312 891.269531 576.472656 898.34375 C 588.335938 908.371094 611.199219 908.457031 611.199219 908.457031 C 611.199219 908.457031 607.207031 891.539062 592.578125 879.171875 C 590.203125 877.167969 587.550781 875.332031 584.789062 873.945312 C 590.914062 874.246094 597.148438 874.09375 603.492188 873.496094 C 607.671875 876.894531 615.234375 882.0625 625.585938 884.582031 C 641.5625 888.46875 657.53125 882.59375 657.53125 882.59375 C 657.53125 882.59375 646.117188 872.675781 634.574219 868.203125 C 640.179688 866.710938 645.898438 864.765625 651.386719 862.769531 C 656.808594 866.945312 666.402344 873.5625 675.007812 875.417969 C 687.945312 878.089844 705.46875 869.734375 705.46875 869.734375 C 705.46875 869.734375 695.507812 858.742188 679.421875 855.308594 C 676.722656 854.648438 673.910156 854.441406 671.046875 854.460938 C 675.414062 852.191406 679.777344 849.917969 684.253906 847.199219 C 689.4375 849.410156 701.765625 853.601562 713.703125 849.601562 C 729.28125 844.34375 744.402344 829.21875 744.402344 829.21875 C 744.402344 829.21875 727.523438 825.113281 714.328125 825.472656 C 715.554688 824.34375 716.726562 823.4375 717.957031 822.308594 C 722.867188 817.792969 727.609375 812.996094 732.128906 808.140625 C 739.828125 808.824219 754.769531 809.125 765.078125 804.96875 C 779.417969 798.933594 790.066406 778.675781 790.066406 778.675781 C 790.066406 778.675781 772.445312 772.722656 754.6875 780.066406 Z M 754.6875 780.066406 " fill-opacity="1" fill-rule="nonzero"/></g></g></g><g fill="rgb(0%, 50.19989%, 21.569824%)" fill-opacity="1"><g transform="translate(388.622494, 1073.168923)"><g><path d="M 53.296875 0 L 45.3125 0 L 14.984375 -46.4375 L 14.984375 0 L 7 0 L 7 -60.25 L 14.984375 -60.25 L 45.390625 -13.609375 L 45.390625 -60.25 L 53.296875 -60.25 Z M 53.296875 0 "/></g></g></g><g fill="rgb(0%, 50.19989%, 21.569824%)" fill-opacity="1"><g transform="translate(451.579106, 1073.168923)"><g><path d="M 40.265625 -15.71875 L 15.015625 -15.71875 L 9.359375 0 L 1.15625 0 L 24.171875 -60.25 L 31.125 -60.25 L 54.171875 0 L 46.015625 0 Z M 17.421875 -22.265625 L 37.90625 -22.265625 L 27.640625 -50.4375 Z M 17.421875 -22.265625 "/></g></g></g><g fill="rgb(0%, 50.19989%, 21.569824%)" fill-opacity="1"><g transform="translate(509.404652, 1073.168923)"><g><path d="M 48.625 -53.71875 L 29.25 -53.71875 L 29.25 0 L 21.359375 0 L 21.359375 -53.71875 L 2.03125 -53.71875 L 2.03125 -60.25 L 48.625 -60.25 Z M 48.625 -53.71875 "/></g></g></g><g fill="rgb(0%, 50.19989%, 21.569824%)" fill-opacity="1"><g transform="translate(562.512926, 1073.168923)"><g><path d="M 49.40625 -60.25 L 49.40625 -19.28125 C 49.382812 -13.601562 47.597656 -8.957031 44.046875 -5.34375 C 40.503906 -1.726562 35.695312 0.300781 29.625 0.75 L 27.515625 0.828125 C 20.921875 0.828125 15.664062 -0.945312 11.75 -4.5 C 7.832031 -8.0625 5.847656 -12.960938 5.796875 -19.203125 L 5.796875 -60.25 L 13.65625 -60.25 L 13.65625 -19.453125 C 13.65625 -15.085938 14.851562 -11.695312 17.25 -9.28125 C 19.65625 -6.875 23.078125 -5.671875 27.515625 -5.671875 C 32.015625 -5.671875 35.457031 -6.867188 37.84375 -9.265625 C 40.226562 -11.671875 41.421875 -15.050781 41.421875 -19.40625 L 41.421875 -60.25 Z M 49.40625 -60.25 "/></g></g></g><g fill="rgb(0%, 50.19989%, 21.569824%)" fill-opacity="1"><g transform="translate(620.007427, 1073.168923)"><g><path d="M 29.09375 -24.375 L 14.9375 -24.375 L 14.9375 0 L 6.953125 0 L 6.953125 -60.25 L 26.890625 -60.25 C 33.679688 -60.25 38.90625 -58.703125 42.5625 -55.609375 C 46.21875 -52.523438 48.046875 -48.03125 48.046875 -42.125 C 48.046875 -38.375 47.03125 -35.101562 45 -32.3125 C 42.976562 -29.53125 40.160156 -27.453125 36.546875 -26.078125 L 50.6875 -0.5 L 50.6875 0 L 42.171875 0 Z M 14.9375 -30.875 L 27.140625 -30.875 C 31.085938 -30.875 34.226562 -31.894531 36.5625 -33.9375 C 38.894531 -35.976562 40.0625 -38.707031 40.0625 -42.125 C 40.0625 -45.851562 38.945312 -48.707031 36.71875 -50.6875 C 34.5 -52.675781 31.296875 -53.6875 27.109375 -53.71875 L 14.9375 -53.71875 Z M 14.9375 -30.875 "/></g></g></g><g fill="rgb(0%, 50.19989%, 21.569824%)" fill-opacity="1"><g transform="translate(674.729509, 1073.168923)"><g><path d="M 40.265625 -15.71875 L 15.015625 -15.71875 L 9.359375 0 L 1.15625 0 L 24.171875 -60.25 L 31.125 -60.25 L 54.171875 0 L 46.015625 0 Z M 17.421875 -22.265625 L 37.90625 -22.265625 L 27.640625 -50.4375 Z M 17.421875 -22.265625 "/></g></g></g><g fill="rgb(0%, 50.19989%, 21.569824%)" fill-opacity="1"><g transform="translate(732.555061, 1073.168923)"><g><path d="M 14.984375 -6.5 L 43.53125 -6.5 L 43.53125 0 L 7 0 L 7 -60.25 L 14.984375 -60.25 Z M 14.984375 -6.5 "/></g></g></g><g fill="rgb(0%, 50.19989%, 21.569824%)" fill-opacity="1"><g transform="translate(780.691085, 1073.168923)"><g/></g></g><g fill="rgb(0%, 50.19989%, 21.569824%)" fill-opacity="1"><g transform="translate(317.643568, 1191.490047)"><g><path d="M 15.515625 0 L 7.578125 0 L 7.578125 -60.25 L 15.515625 -60.25 Z M 15.515625 0 "/></g></g></g><g fill="rgb(0%, 50.19989%, 21.569824%)" fill-opacity="1"><g transform="translate(343.234426, 1191.490047)"><g><path d="M 53.296875 0 L 45.3125 0 L 14.984375 -46.4375 L 14.984375 0 L 7 0 L 7 -60.25 L 14.984375 -60.25 L 45.390625 -13.609375 L 45.390625 -60.25 L 53.296875 -60.25 Z M 53.296875 0 "/></g></g></g><g fill="rgb(0%, 50.19989%, 21.569824%)" fill-opacity="1"><g transform="translate(406.191032, 1191.490047)"><g><path d="M 51.484375 -7.90625 C 49.441406 -4.976562 46.59375 -2.789062 42.9375 -1.34375 C 39.28125 0.101562 35.023438 0.828125 30.171875 0.828125 C 25.253906 0.828125 20.890625 -0.320312 17.078125 -2.625 C 13.273438 -4.925781 10.332031 -8.203125 8.25 -12.453125 C 6.164062 -16.703125 5.097656 -21.628906 5.046875 -27.234375 L 5.046875 -32.484375 C 5.046875 -41.554688 7.160156 -48.585938 11.390625 -53.578125 C 15.628906 -58.578125 21.582031 -61.078125 29.25 -61.078125 C 35.539062 -61.078125 40.601562 -59.46875 44.4375 -56.25 C 48.28125 -53.039062 50.628906 -48.484375 51.484375 -42.578125 L 43.53125 -42.578125 C 42.039062 -50.554688 37.296875 -54.546875 29.296875 -54.546875 C 23.972656 -54.546875 19.9375 -52.675781 17.1875 -48.9375 C 14.445312 -45.195312 13.0625 -39.78125 13.03125 -32.6875 L 13.03125 -27.765625 C 13.03125 -21.003906 14.578125 -15.628906 17.671875 -11.640625 C 20.765625 -7.660156 24.941406 -5.671875 30.203125 -5.671875 C 33.179688 -5.671875 35.785156 -6 38.015625 -6.65625 C 40.253906 -7.320312 42.109375 -8.441406 43.578125 -10.015625 L 43.578125 -23.546875 L 29.625 -23.546875 L 29.625 -30 L 51.484375 -30 Z M 51.484375 -7.90625 "/></g></g></g><g fill="rgb(0%, 50.19989%, 21.569824%)" fill-opacity="1"><g transform="translate(466.457968, 1191.490047)"><g><path d="M 29.09375 -24.375 L 14.9375 -24.375 L 14.9375 0 L 6.953125 0 L 6.953125 -60.25 L 26.890625 -60.25 C 33.679688 -60.25 38.90625 -58.703125 42.5625 -55.609375 C 46.21875 -52.523438 48.046875 -48.03125 48.046875 -42.125 C 48.046875 -38.375 47.03125 -35.101562 45 -32.3125 C 42.976562 -29.53125 40.160156 -27.453125 36.546875 -26.078125 L 50.6875 -0.5 L 50.6875 0 L 42.171875 0 Z M 14.9375 -30.875 L 27.140625 -30.875 C 31.085938 -30.875 34.226562 -31.894531 36.5625 -33.9375 C 38.894531 -35.976562 40.0625 -38.707031 40.0625 -42.125 C 40.0625 -45.851562 38.945312 -48.707031 36.71875 -50.6875 C 34.5 -52.675781 31.296875 -53.6875 27.109375 -53.71875 L 14.9375 -53.71875 Z M 14.9375 -30.875 "/></g></g></g><g fill="rgb(0%, 50.19989%, 21.569824%)" fill-opacity="1"><g transform="translate(521.18005, 1191.490047)"><g><path d="M 41.046875 -27.84375 L 14.9375 -27.84375 L 14.9375 -6.5 L 45.265625 -6.5 L 45.265625 0 L 7 0 L 7 -60.25 L 44.859375 -60.25 L 44.859375 -53.71875 L 14.9375 -53.71875 L 14.9375 -34.34375 L 41.046875 -34.34375 Z M 41.046875 -27.84375 "/></g></g></g><g fill="rgb(0%, 50.19989%, 21.569824%)" fill-opacity="1"><g transform="translate(571.888316, 1191.490047)"><g><path d="M 7 0 L 7 -60.25 L 24 -60.25 C 29.238281 -60.25 33.875 -59.085938 37.90625 -56.765625 C 41.9375 -54.453125 45.046875 -51.15625 47.234375 -46.875 C 49.429688 -42.601562 50.539062 -37.695312 50.5625 -32.15625 L 50.5625 -28.3125 C 50.5625 -22.625 49.460938 -17.640625 47.265625 -13.359375 C 45.078125 -9.085938 41.945312 -5.804688 37.875 -3.515625 C 33.8125 -1.222656 29.078125 -0.0507812 23.671875 0 Z M 14.9375 -53.71875 L 14.9375 -6.5 L 23.296875 -6.5 C 29.421875 -6.5 34.1875 -8.398438 37.59375 -12.203125 C 41 -16.015625 42.703125 -21.4375 42.703125 -28.46875 L 42.703125 -31.984375 C 42.703125 -38.828125 41.09375 -44.144531 37.875 -47.9375 C 34.664062 -51.726562 30.109375 -53.65625 24.203125 -53.71875 Z M 14.9375 -53.71875 "/></g></g></g><g fill="rgb(0%, 50.19989%, 21.569824%)" fill-opacity="1"><g transform="translate(630.003515, 1191.490047)"><g><path d="M 15.515625 0 L 7.578125 0 L 7.578125 -60.25 L 15.515625 -60.25 Z M 15.515625 0 "/></g></g></g><g fill="rgb(0%, 50.19989%, 21.569824%)" fill-opacity="1"><g transform="translate(655.594376, 1191.490047)"><g><path d="M 41.046875 -27.84375 L 14.9375 -27.84375 L 14.9375 -6.5 L 45.265625 -6.5 L 45.265625 0 L 7 0 L 7 -60.25 L 44.859375 -60.25 L 44.859375 -53.71875 L 14.9375 -53.71875 L 14.9375 -34.34375 L 41.046875 -34.34375 Z M 41.046875 -27.84375 "/></g></g></g><g fill="rgb(0%, 50.19989%, 21.569824%)" fill-opacity="1"><g transform="translate(706.302628, 1191.490047)"><g><path d="M 53.296875 0 L 45.3125 0 L 14.984375 -46.4375 L 14.984375 0 L 7 0 L 7 -60.25 L 14.984375 -60.25 L 45.390625 -13.609375 L 45.390625 -60.25 L 53.296875 -60.25 Z M 53.296875 0 "/></g></g></g><g fill="rgb(0%, 50.19989%, 21.569824%)" fill-opacity="1"><g transform="translate(769.259233, 1191.490047)"><g><path d="M 48.625 -53.71875 L 29.25 -53.71875 L 29.25 0 L 21.359375 0 L 21.359375 -53.71875 L 2.03125 -53.71875 L 2.03125 -60.25 L 48.625 -60.25 Z M 48.625 -53.71875 "/></g></g></g><g fill="rgb(0%, 50.19989%, 21.569824%)" fill-opacity="1"><g transform="translate(822.367492, 1191.490047)"><g><path d="M 24.75 -26.859375 C 17.9375 -28.816406 12.976562 -31.222656 9.875 -34.078125 C 6.769531 -36.929688 5.21875 -40.457031 5.21875 -44.65625 C 5.21875 -49.394531 7.113281 -53.316406 10.90625 -56.421875 C 14.695312 -59.523438 19.628906 -61.078125 25.703125 -61.078125 C 29.835938 -61.078125 33.523438 -60.273438 36.765625 -58.671875 C 40.003906 -57.078125 42.515625 -54.875 44.296875 -52.0625 C 46.078125 -49.25 46.96875 -46.171875 46.96875 -42.828125 L 38.984375 -42.828125 C 38.984375 -46.472656 37.820312 -49.335938 35.5 -51.421875 C 33.1875 -53.503906 29.921875 -54.546875 25.703125 -54.546875 C 21.785156 -54.546875 18.726562 -53.679688 16.53125 -51.953125 C 14.34375 -50.234375 13.25 -47.84375 13.25 -44.78125 C 13.25 -42.320312 14.285156 -40.242188 16.359375 -38.546875 C 18.441406 -36.847656 21.988281 -35.296875 27 -33.890625 C 32.007812 -32.484375 35.925781 -30.929688 38.75 -29.234375 C 41.582031 -27.535156 43.679688 -25.554688 45.046875 -23.296875 C 46.410156 -21.035156 47.09375 -18.375 47.09375 -15.3125 C 47.09375 -10.425781 45.1875 -6.515625 41.375 -3.578125 C 37.570312 -0.640625 32.484375 0.828125 26.109375 0.828125 C 21.972656 0.828125 18.109375 0.0351562 14.515625 -1.546875 C 10.929688 -3.140625 8.164062 -5.3125 6.21875 -8.0625 C 4.28125 -10.820312 3.3125 -13.957031 3.3125 -17.46875 L 11.296875 -17.46875 C 11.296875 -13.820312 12.640625 -10.941406 15.328125 -8.828125 C 18.015625 -6.722656 21.609375 -5.671875 26.109375 -5.671875 C 30.304688 -5.671875 33.519531 -6.523438 35.75 -8.234375 C 37.988281 -9.941406 39.109375 -12.269531 39.109375 -15.21875 C 39.109375 -18.175781 38.070312 -20.460938 36 -22.078125 C 33.9375 -23.691406 30.1875 -25.285156 24.75 -26.859375 Z M 24.75 -26.859375 "/></g></g></g></svg>