<svg xmlns="http://www.w3.org/2000/svg" xmlns:xlink="http://www.w3.org/1999/xlink" width="1587" zoomAndPan="magnify" viewBox="0 0 1190.25 1683.749945" height="2245" preserveAspectRatio="xMidYMid meet" version="1.0"><defs><g><g id="id1"/></g><clipPath id="id2"><path d="M 424 469.332031 L 766 469.332031 L 766 822 L 424 822 Z M 424 469.332031 " clip-rule="nonzero"/></clipPath></defs><g clip-path="url(#id2)"><path fill="rgb(0%, 50.19989%, 21.569824%)" d="M 758.726562 601.964844 C 654.945312 610.703125 621.988281 673.808594 613.785156 695.011719 C 609.996094 699.378906 606.398438 703.699219 603.265625 707.570312 C 601.039062 671.265625 600.03125 631.246094 599.203125 601.285156 L 599.425781 601.300781 C 705.375 611.230469 726.457031 502.945312 730.101562 475.324219 C 730.519531 472.128906 727.691406 469.484375 724.515625 470.074219 C 645.546875 484.828125 611.957031 536.03125 598.175781 569.582031 C 597.789062 560.921875 597.359375 555.578125 596.773438 554.878906 C 595.046875 552.792969 592.074219 561.925781 589.527344 579.441406 C 583.125 556 563.402344 505.390625 509.429688 485.234375 C 506.742188 484.238281 503.847656 486.101562 503.699219 488.960938 C 502.578125 509.957031 504.59375 583.703125 586.875 591.292969 L 586.882812 591.300781 C 587.136719 591.320312 587.390625 591.347656 587.652344 591.367188 C 587.773438 591.382812 587.875 591.398438 587.996094 591.402344 C 585.835938 610.835938 584.339844 637.035156 584.820312 667.679688 C 585.183594 690.28125 583.8125 712.550781 581.789062 732.378906 C 577.902344 729.449219 574.195312 726.742188 570.65625 724.230469 C 569.53125 705.050781 561.625 659.511719 512.433594 649.023438 C 465.726562 639.074219 437.160156 667.589844 425.613281 682.8125 C 423.613281 685.449219 426.136719 689.09375 429.3125 688.167969 C 481.832031 672.839844 545.765625 714.632812 565.007812 728.492188 C 574.941406 738.105469 579.789062 746.070312 579.789062 746.070312 C 579.789062 746.070312 579.929688 746.183594 580.214844 746.335938 C 578.523438 760.074219 576.601562 772.191406 574.917969 781.8125 C 572.347656 796.433594 570.285156 805.28125 570.285156 805.28125 C 560.414062 824.113281 629.007812 833.703125 615.902344 795.140625 C 615.640625 794.363281 615.339844 793.578125 615.015625 792.765625 C 609.839844 780 606.464844 752.839844 604.179688 721.277344 C 607.203125 715.082031 611.117188 709.121094 615.371094 703.566406 C 615.785156 703.886719 616.238281 704.164062 616.742188 704.382812 C 705.964844 743.175781 752.921875 642.558594 765.269531 610.652344 C 766.976562 606.234375 763.453125 601.570312 758.726562 601.964844 " fill-opacity="1" fill-rule="nonzero"/></g><path fill="rgb(49.409485%, 78.819275%, 10.978699%)" d="M 696.746094 502.636719 C 695.695312 503.265625 628.3125 544 599.425781 601.300781 L 599.203125 601.277344 C 599.058594 596.21875 598.933594 591.449219 598.789062 587.03125 C 610.703125 568.015625 643.769531 522.335938 696.746094 502.636719 " fill-opacity="1" fill-rule="nonzero"/><path fill="rgb(49.409485%, 78.819275%, 10.978699%)" d="M 589.179688 581.847656 C 588.769531 584.816406 588.378906 588.007812 587.996094 591.398438 L 587.652344 591.367188 C 587.390625 591.347656 587.136719 591.320312 586.882812 591.300781 L 586.875 591.292969 C 572.246094 578.601562 547.757812 554.066406 529.640625 519.179688 C 530.644531 520.558594 562.386719 564.320312 589.179688 581.847656 " fill-opacity="1" fill-rule="nonzero"/><path fill="rgb(49.409485%, 78.819275%, 10.978699%)" d="M 615.335938 703.539062 C 648.335938 653.21875 733.257812 622.449219 733.257812 622.449219 C 662.082031 644.320312 627.09375 678.054688 613.886719 694.746094 C 613.679688 695.285156 613.476562 695.804688 613.304688 696.285156 C 612.316406 698.945312 613.207031 701.855469 615.335938 703.539062 " fill-opacity="1" fill-rule="nonzero"/><path fill="rgb(0%, 50.19989%, 21.569824%)" d="M 669.714844 815.804688 C 667.8125 814.460938 666.929688 812.035156 665.53125 810.167969 C 663.414062 807.339844 660.679688 804.878906 657.785156 802.882812 C 651.933594 798.84375 644.914062 796.671875 637.800781 796.671875 C 632.40625 796.671875 626.71875 799.910156 621.730469 797.300781 C 618.199219 795.449219 614.5 794.5625 610.492188 794.480469 C 606.496094 794.398438 602.675781 795.640625 598.726562 795.785156 C 593.714844 795.964844 593.554688 793.777344 590.054688 790.601562 C 587.386719 788.183594 584.378906 786.144531 581.183594 784.484375 C 574.222656 780.867188 566.347656 779.113281 558.515625 779.113281 C 550.179688 779.113281 541.792969 781.136719 534.542969 785.292969 C 530.984375 787.335938 527.707031 789.882812 524.898438 792.882812 C 520.46875 797.613281 520.710938 801.738281 513.617188 802.3125 C 506.957031 802.855469 500.882812 803.824219 495.355469 807.898438 C 492.445312 810.046875 489.933594 812.71875 487.980469 815.746094 C 487.074219 817.144531 486.375 818.761719 485.746094 820.414062 C 484.703125 823.152344 482.453125 825.261719 479.625 826.03125 C 475.367188 827.1875 471.421875 828.902344 468.007812 831.269531 C 463.8125 834.175781 462.984375 839.984375 465.953125 844.085938 C 470.207031 849.9375 479.695312 847.628906 486.09375 847.675781 C 503.855469 847.804688 521.605469 847.890625 539.359375 847.933594 C 563.992188 848 589.582031 847.875 614.578125 847.929688 C 627.851562 847.960938 641.125 848.035156 654.398438 848.222656 C 666.152344 848.386719 677.453125 850.871094 689.257812 849.265625 C 691.15625 849.003906 693.101562 848.660156 694.742188 847.667969 C 702.816406 842.769531 693.886719 830.761719 689.929688 826.269531 C 684.238281 819.828125 678.214844 819.242188 670.871094 816.421875 C 670.441406 816.253906 670.0625 816.046875 669.714844 815.804688 " fill-opacity="1" fill-rule="nonzero"/><g fill="rgb(0%, 50.19989%, 21.569824%)" fill-opacity="1"><g transform="translate(335.37517, 1034.778272)"><g><path d="M 68.546875 -36.21875 C 68.546875 -28.625 67.269531 -22 64.71875 -16.34375 C 62.164062 -10.695312 58.546875 -6.382812 53.859375 -3.40625 C 49.179688 -0.425781 43.722656 1.0625 37.484375 1.0625 C 31.390625 1.0625 25.984375 -0.429688 21.265625 -3.421875 C 16.554688 -6.421875 12.894531 -10.691406 10.28125 -16.234375 C 7.675781 -21.785156 6.34375 -28.210938 6.28125 -35.515625 L 6.28125 -41.109375 C 6.28125 -48.546875 7.570312 -55.117188 10.15625 -60.828125 C 12.738281 -66.535156 16.394531 -70.90625 21.125 -73.9375 C 25.863281 -76.96875 31.285156 -78.484375 37.390625 -78.484375 C 43.585938 -78.484375 49.050781 -76.984375 53.78125 -73.984375 C 58.519531 -70.992188 62.164062 -66.65625 64.71875 -60.96875 C 67.269531 -55.28125 68.546875 -48.660156 68.546875 -41.109375 Z M 58.390625 -41.21875 C 58.390625 -50.394531 56.546875 -57.4375 52.859375 -62.34375 C 49.171875 -67.257812 44.015625 -69.71875 37.390625 -69.71875 C 30.929688 -69.71875 25.847656 -67.257812 22.140625 -62.34375 C 18.441406 -57.4375 16.539062 -50.625 16.4375 -41.90625 L 16.4375 -36.21875 C 16.4375 -27.3125 18.304688 -20.316406 22.046875 -15.234375 C 25.785156 -10.148438 30.929688 -7.609375 37.484375 -7.609375 C 44.078125 -7.609375 49.179688 -10.007812 52.796875 -14.8125 C 56.421875 -19.613281 58.285156 -26.5 58.390625 -35.46875 Z M 58.390625 -41.21875 "/></g></g></g><g fill="rgb(0%, 50.19989%, 21.569824%)" fill-opacity="1"><g transform="translate(419.290493, 1034.778272)"><g><path d="M 37.390625 -31.328125 L 19.203125 -31.328125 L 19.203125 0 L 8.9375 0 L 8.9375 -77.421875 L 34.5625 -77.421875 C 43.28125 -77.421875 49.988281 -75.4375 54.6875 -71.46875 C 59.382812 -67.5 61.734375 -61.722656 61.734375 -54.140625 C 61.734375 -49.316406 60.429688 -45.113281 57.828125 -41.53125 C 55.222656 -37.945312 51.597656 -35.269531 46.953125 -33.5 L 65.140625 -0.640625 L 65.140625 0 L 54.1875 0 Z M 19.203125 -39.671875 L 34.890625 -39.671875 C 39.953125 -39.671875 43.976562 -40.984375 46.96875 -43.609375 C 49.96875 -46.234375 51.46875 -49.742188 51.46875 -54.140625 C 51.46875 -58.921875 50.039062 -62.585938 47.1875 -65.140625 C 44.332031 -67.691406 40.210938 -68.988281 34.828125 -69.03125 L 19.203125 -69.03125 Z M 19.203125 -39.671875 "/></g></g></g><g fill="rgb(0%, 50.19989%, 21.569824%)" fill-opacity="1"><g transform="translate(495.38856, 1034.778272)"><g><path d="M 66.15625 -10.15625 C 63.53125 -6.394531 59.867188 -3.582031 55.171875 -1.71875 C 50.472656 0.132812 45.003906 1.0625 38.765625 1.0625 C 32.453125 1.0625 26.847656 -0.414062 21.953125 -3.375 C 17.066406 -6.332031 13.285156 -10.539062 10.609375 -16 C 7.929688 -21.46875 6.554688 -27.796875 6.484375 -34.984375 L 6.484375 -41.75 C 6.484375 -53.40625 9.203125 -62.441406 14.640625 -68.859375 C 20.085938 -75.273438 27.738281 -78.484375 37.59375 -78.484375 C 45.675781 -78.484375 52.179688 -76.414062 57.109375 -72.28125 C 62.035156 -68.15625 65.050781 -62.300781 66.15625 -54.71875 L 55.9375 -54.71875 C 54.03125 -64.96875 47.9375 -70.09375 37.65625 -70.09375 C 30.8125 -70.09375 25.625 -67.6875 22.09375 -62.875 C 18.5625 -58.070312 16.78125 -51.117188 16.75 -42.015625 L 16.75 -35.6875 C 16.75 -27 18.734375 -20.09375 22.703125 -14.96875 C 26.671875 -9.84375 32.039062 -7.28125 38.8125 -7.28125 C 42.644531 -7.28125 45.992188 -7.707031 48.859375 -8.5625 C 51.734375 -9.414062 54.113281 -10.851562 56 -12.875 L 56 -30.25 L 38.078125 -30.25 L 38.078125 -38.546875 L 66.15625 -38.546875 Z M 66.15625 -10.15625 "/></g></g></g><g fill="rgb(0%, 50.19989%, 21.569824%)" fill-opacity="1"><g transform="translate(578.612566, 1034.778272)"><g><path d="M 51.734375 -20.203125 L 19.296875 -20.203125 L 12.015625 0 L 1.484375 0 L 31.0625 -77.421875 L 39.984375 -77.421875 L 69.609375 0 L 59.125 0 Z M 22.390625 -28.609375 L 48.703125 -28.609375 L 35.515625 -64.828125 Z M 22.390625 -28.609375 "/></g></g></g><g fill="rgb(0%, 50.19989%, 21.569824%)" fill-opacity="1"><g transform="translate(658.699016, 1034.778272)"><g><path d="M 68.484375 0 L 58.234375 0 L 19.25 -59.671875 L 19.25 0 L 8.984375 0 L 8.984375 -77.421875 L 19.25 -77.421875 L 58.328125 -17.5 L 58.328125 -77.421875 L 68.484375 -77.421875 Z M 68.484375 0 "/></g></g></g><g fill="rgb(0%, 50.19989%, 21.569824%)" fill-opacity="1"><g transform="translate(745.37962, 1034.778272)"><g><path d="M 19.9375 0 L 9.734375 0 L 9.734375 -77.421875 L 19.9375 -77.421875 Z M 19.9375 0 "/></g></g></g><g fill="rgb(0%, 50.19989%, 21.569824%)" fill-opacity="1"><g transform="translate(784.039913, 1034.778272)"><g><path d="M 65.9375 -24.5625 C 64.976562 -16.375 61.953125 -10.054688 56.859375 -5.609375 C 51.773438 -1.160156 45.015625 1.0625 36.578125 1.0625 C 27.429688 1.0625 20.101562 -2.210938 14.59375 -8.765625 C 9.082031 -15.328125 6.328125 -24.101562 6.328125 -35.09375 L 6.328125 -42.546875 C 6.328125 -49.742188 7.609375 -56.070312 10.171875 -61.53125 C 12.742188 -66.988281 16.390625 -71.175781 21.109375 -74.09375 C 25.828125 -77.019531 31.285156 -78.484375 37.484375 -78.484375 C 45.710938 -78.484375 52.304688 -76.1875 57.265625 -71.59375 C 62.234375 -67.007812 65.125 -60.65625 65.9375 -52.53125 L 55.671875 -52.53125 C 54.785156 -58.707031 52.863281 -63.175781 49.90625 -65.9375 C 46.945312 -68.707031 42.804688 -70.09375 37.484375 -70.09375 C 30.960938 -70.09375 25.847656 -67.679688 22.140625 -62.859375 C 18.441406 -58.035156 16.59375 -51.175781 16.59375 -42.28125 L 16.59375 -34.78125 C 16.59375 -26.375 18.347656 -19.6875 21.859375 -14.71875 C 25.367188 -9.757812 30.273438 -7.28125 36.578125 -7.28125 C 42.253906 -7.28125 46.609375 -8.566406 49.640625 -11.140625 C 52.671875 -13.710938 54.679688 -18.1875 55.671875 -24.5625 Z M 65.9375 -24.5625 "/></g></g></g><g fill="rgb(0%, 50.19989%, 21.569824%)" fill-opacity="1"><g transform="translate(296.044691, 1186.837797)"><g><path d="M 68.125 -36.21875 C 68.125 -28.738281 66.9375 -22.296875 64.5625 -16.890625 C 62.1875 -11.484375 58.851562 -7.253906 54.5625 -4.203125 L 68.390625 6.640625 L 61.421875 13.078125 L 45.09375 0.109375 C 42.539062 0.742188 39.847656 1.0625 37.015625 1.0625 C 30.910156 1.0625 25.5 -0.429688 20.78125 -3.421875 C 16.070312 -6.421875 12.414062 -10.691406 9.8125 -16.234375 C 7.207031 -21.785156 5.867188 -28.210938 5.796875 -35.515625 L 5.796875 -41.109375 C 5.796875 -48.546875 7.085938 -55.117188 9.671875 -60.828125 C 12.265625 -66.535156 15.925781 -70.90625 20.65625 -73.9375 C 25.394531 -76.96875 30.8125 -78.484375 36.90625 -78.484375 C 43.144531 -78.484375 48.628906 -76.976562 53.359375 -73.96875 C 58.097656 -70.957031 61.742188 -66.625 64.296875 -60.96875 C 66.847656 -55.3125 68.125 -48.707031 68.125 -41.15625 Z M 57.90625 -41.21875 C 57.90625 -50.320312 56.085938 -57.347656 52.453125 -62.296875 C 48.828125 -67.242188 43.644531 -69.71875 36.90625 -69.71875 C 30.488281 -69.71875 25.425781 -67.257812 21.71875 -62.34375 C 18.019531 -57.4375 16.113281 -50.625 16 -41.90625 L 16 -36.21875 C 16 -27.351562 17.851562 -20.367188 21.5625 -15.265625 C 25.269531 -10.160156 30.421875 -7.609375 37.015625 -7.609375 C 43.609375 -7.609375 48.710938 -10.007812 52.328125 -14.8125 C 55.941406 -19.613281 57.800781 -26.5 57.90625 -35.46875 Z M 57.90625 -41.21875 "/></g></g></g><g fill="rgb(0%, 50.19989%, 21.569824%)" fill-opacity="1"><g transform="translate(379.960014, 1186.837797)"><g><path d="M 63.5 -77.421875 L 63.5 -24.78125 C 63.457031 -17.476562 61.160156 -11.503906 56.609375 -6.859375 C 52.054688 -2.210938 45.878906 0.390625 38.078125 0.953125 L 35.359375 1.0625 C 26.890625 1.0625 20.132812 -1.222656 15.09375 -5.796875 C 10.0625 -10.367188 7.507812 -16.660156 7.4375 -24.671875 L 7.4375 -77.421875 L 17.546875 -77.421875 L 17.546875 -25 C 17.546875 -19.394531 19.085938 -15.039062 22.171875 -11.9375 C 25.253906 -8.832031 29.648438 -7.28125 35.359375 -7.28125 C 41.140625 -7.28125 45.5625 -8.820312 48.625 -11.90625 C 51.695312 -14.988281 53.234375 -19.332031 53.234375 -24.9375 L 53.234375 -77.421875 Z M 63.5 -77.421875 "/></g></g></g><g fill="rgb(0%, 50.19989%, 21.569824%)" fill-opacity="1"><g transform="translate(459.621046, 1186.837797)"><g><path d="M 51.734375 -20.203125 L 19.296875 -20.203125 L 12.015625 0 L 1.484375 0 L 31.0625 -77.421875 L 39.984375 -77.421875 L 69.609375 0 L 59.125 0 Z M 22.390625 -28.609375 L 48.703125 -28.609375 L 35.515625 -64.828125 Z M 22.390625 -28.609375 "/></g></g></g><g fill="rgb(0%, 50.19989%, 21.569824%)" fill-opacity="1"><g transform="translate(539.707496, 1186.837797)"><g><path d="M 19.25 -8.34375 L 55.9375 -8.34375 L 55.9375 0 L 8.984375 0 L 8.984375 -77.421875 L 19.25 -77.421875 Z M 19.25 -8.34375 "/></g></g></g><g fill="rgb(0%, 50.19989%, 21.569824%)" fill-opacity="1"><g transform="translate(607.350151, 1186.837797)"><g><path d="M 19.9375 0 L 9.734375 0 L 9.734375 -77.421875 L 19.9375 -77.421875 Z M 19.9375 0 "/></g></g></g><g fill="rgb(0%, 50.19989%, 21.569824%)" fill-opacity="1"><g transform="translate(646.010425, 1186.837797)"><g><path d="M 62.484375 -69.03125 L 37.59375 -69.03125 L 37.59375 0 L 27.4375 0 L 27.4375 -69.03125 L 2.609375 -69.03125 L 2.609375 -77.421875 L 62.484375 -77.421875 Z M 62.484375 -69.03125 "/></g></g></g><g fill="rgb(0%, 50.19989%, 21.569824%)" fill-opacity="1"><g transform="translate(720.034537, 1186.837797)"><g><path d="M 19.9375 0 L 9.734375 0 L 9.734375 -77.421875 L 19.9375 -77.421875 Z M 19.9375 0 "/></g></g></g><g fill="rgb(0%, 50.19989%, 21.569824%)" fill-opacity="1"><g transform="translate(758.69483, 1186.837797)"><g><path d="M 52.75 -35.78125 L 19.203125 -35.78125 L 19.203125 -8.34375 L 58.171875 -8.34375 L 58.171875 0 L 8.984375 0 L 8.984375 -77.421875 L 57.640625 -77.421875 L 57.640625 -69.03125 L 19.203125 -69.03125 L 19.203125 -44.140625 L 52.75 -44.140625 Z M 52.75 -35.78125 "/></g></g></g><g fill="rgb(0%, 50.19989%, 21.569824%)" fill-opacity="1"><g transform="translate(829.634552, 1186.837797)"><g><path d="M 31.796875 -34.515625 C 23.046875 -37.023438 16.675781 -40.113281 12.6875 -43.78125 C 8.695312 -47.457031 6.703125 -51.988281 6.703125 -57.375 C 6.703125 -63.476562 9.140625 -68.519531 14.015625 -72.5 C 18.890625 -76.488281 25.222656 -78.484375 33.015625 -78.484375 C 38.335938 -78.484375 43.082031 -77.457031 47.25 -75.40625 C 51.414062 -73.351562 54.640625 -70.515625 56.921875 -66.890625 C 59.210938 -63.273438 60.359375 -59.320312 60.359375 -55.03125 L 50.09375 -55.03125 C 50.09375 -59.71875 48.601562 -63.398438 45.625 -66.078125 C 42.644531 -68.753906 38.441406 -70.09375 33.015625 -70.09375 C 27.984375 -70.09375 24.054688 -68.984375 21.234375 -66.765625 C 18.421875 -64.546875 17.015625 -61.46875 17.015625 -57.53125 C 17.015625 -54.375 18.351562 -51.707031 21.03125 -49.53125 C 23.707031 -47.351562 28.257812 -45.359375 34.6875 -43.546875 C 41.125 -41.742188 46.160156 -39.75 49.796875 -37.5625 C 53.429688 -35.382812 56.125 -32.84375 57.875 -29.9375 C 59.632812 -27.03125 60.515625 -23.609375 60.515625 -19.671875 C 60.515625 -13.398438 58.066406 -8.375 53.171875 -4.59375 C 48.285156 -0.820312 41.742188 1.0625 33.546875 1.0625 C 28.234375 1.0625 23.269531 0.046875 18.65625 -1.984375 C 14.050781 -4.023438 10.5 -6.816406 8 -10.359375 C 5.5 -13.910156 4.25 -17.9375 4.25 -22.4375 L 14.515625 -22.4375 C 14.515625 -17.757812 16.242188 -14.0625 19.703125 -11.34375 C 23.160156 -8.632812 27.773438 -7.28125 33.546875 -7.28125 C 38.941406 -7.28125 43.070312 -8.378906 45.9375 -10.578125 C 48.8125 -12.773438 50.25 -15.769531 50.25 -19.5625 C 50.25 -23.363281 48.921875 -26.300781 46.265625 -28.375 C 43.609375 -30.445312 38.785156 -32.492188 31.796875 -34.515625 Z M 31.796875 -34.515625 "/></g></g></g></svg>