<svg xmlns="http://www.w3.org/2000/svg" xmlns:xlink="http://www.w3.org/1999/xlink" width="1587" zoomAndPan="magnify" viewBox="0 0 1190.25 1683.749945" height="2245" preserveAspectRatio="xMidYMid meet" version="1.0"><defs><g><g id="id1"/></g><clipPath id="id2"><path d="M 597 740 L 819.273438 740 L 819.273438 860.742188 L 597 860.742188 Z M 597 740 " clip-rule="nonzero"/></clipPath></defs><path fill="rgb(0%, 50.19989%, 21.569824%)" d="M 622.125 524.628906 L 646.496094 561.101562 L 626.214844 573.273438 C 625.382812 574.859375 625.382812 576.484375 623.792969 577.316406 C 622.125 580.570312 623.792969 587.824219 628.636719 589.449219 L 701.628906 610.539062 C 705.71875 612.167969 709.765625 608.914062 710.558594 605.664062 L 728.421875 525.460938 C 730.046875 520.585938 723.578125 514.917969 717.863281 516.542969 L 701.628906 527.085938 L 659.476562 458.183594 C 648.917969 442.007812 639.988281 442.007812 639.988281 442.007812 L 555.644531 443.632812 C 574.296875 443.632812 592.121094 474.398438 592.121094 474.398438 L 618.910156 518.960938 L 622.125 524.628906 " fill-opacity="1" fill-rule="nonzero"/><path fill="rgb(0%, 50.19989%, 21.569824%)" d="M 743.027344 723.171875 L 756.800781 745.851562 L 770.613281 745.851562 C 821.695312 745.058594 807.089844 709.375 801.414062 698.871094 L 753.546875 617.835938 L 700.042969 649.433594 L 743.027344 723.171875 " fill-opacity="1" fill-rule="nonzero"/><g clip-path="url(#id2)"><path fill="rgb(0%, 50.19989%, 21.569824%)" d="M 773.035156 768.527344 L 721.910156 770.152344 L 671.621094 770.152344 L 669.996094 748.269531 C 669.996094 745.058594 669.996094 745.058594 668.40625 743.433594 C 665.945312 739.347656 660.269531 739.347656 656.222656 741.804688 L 599.421875 792.828125 C 597.003906 796.914062 597.003906 800.957031 599.421875 803.375 L 658.644531 858.480469 C 662.730469 862.527344 670.828125 860.902344 672.457031 855.230469 L 672.457031 835.804688 L 751.917969 834.179688 C 772.199219 834.179688 777.082031 826.050781 777.082031 826.050781 L 819.273438 753.144531 C 809.550781 770.152344 773.035156 768.527344 773.035156 768.527344 " fill-opacity="1" fill-rule="nonzero"/></g><path fill="rgb(0%, 50.19989%, 21.569824%)" d="M 478.5625 775.027344 L 453.398438 775.027344 L 446.132812 787.160156 C 421.804688 830.136719 458.28125 835.804688 471.257812 837.390625 L 565.367188 837.390625 L 563.742188 773.402344 L 478.5625 775.027344 " fill-opacity="1" fill-rule="nonzero"/><path fill="rgb(0%, 50.19989%, 21.569824%)" d="M 449.347656 732.09375 L 451.808594 727.21875 L 472.886719 689.117188 L 493.167969 700.457031 C 494.796875 700.457031 495.589844 702.082031 498.84375 700.457031 C 502.097656 700.457031 506.941406 696.414062 505.316406 690.742188 L 489.121094 617.003906 C 487.492188 612.960938 485.070312 609.707031 480.191406 611.332031 L 403.109375 634.011719 C 396.640625 635.636719 395.011719 643.761719 399.894531 647.808594 L 416.921875 656.726562 L 377.984375 726.382812 C 369.054688 744.226562 373.101562 750.726562 373.101562 750.726562 L 416.085938 825.257812 C 404.734375 807.417969 424.222656 776.65625 424.222656 776.65625 L 449.347656 732.09375 " fill-opacity="1" fill-rule="nonzero"/><path fill="rgb(0%, 50.19989%, 21.569824%)" d="M 516.707031 488.195312 L 472.886719 569.191406 L 528.058594 599.996094 L 568.621094 524.628906 L 580.769531 501.953125 L 573.464844 489.78125 C 545.878906 448.472656 524.804688 476.816406 516.707031 488.195312 " fill-opacity="1" fill-rule="nonzero"/><g fill="rgb(0%, 50.19989%, 21.569824%)" fill-opacity="1"><g transform="translate(235.698376, 1056.529245)"><g><path d="M 38.171875 -31.984375 L 19.609375 -31.984375 L 19.609375 0 L 9.125 0 L 9.125 -79.0625 L 35.296875 -79.0625 C 44.203125 -79.0625 51.050781 -77.03125 55.84375 -72.96875 C 60.644531 -68.914062 63.046875 -63.019531 63.046875 -55.28125 C 63.046875 -50.351562 61.710938 -46.0625 59.046875 -42.40625 C 56.390625 -38.75 52.691406 -36.015625 47.953125 -34.203125 L 66.515625 -0.65625 L 66.515625 0 L 55.328125 0 Z M 19.609375 -40.5 L 35.625 -40.5 C 40.800781 -40.5 44.914062 -41.835938 47.96875 -44.515625 C 51.03125 -47.203125 52.5625 -50.789062 52.5625 -55.28125 C 52.5625 -60.164062 51.101562 -63.910156 48.1875 -66.515625 C 45.269531 -69.117188 41.0625 -70.441406 35.5625 -70.484375 L 19.609375 -70.484375 Z M 19.609375 -40.5 "/></g></g></g><g fill="rgb(0%, 50.19989%, 21.569824%)" fill-opacity="1"><g transform="translate(309.838195, 1056.529245)"><g><path d="M 53.859375 -36.546875 L 19.609375 -36.546875 L 19.609375 -8.53125 L 59.40625 -8.53125 L 59.40625 0 L 9.171875 0 L 9.171875 -79.0625 L 58.859375 -79.0625 L 58.859375 -70.484375 L 19.609375 -70.484375 L 19.609375 -45.0625 L 53.859375 -45.0625 Z M 53.859375 -36.546875 "/></g></g></g><g fill="rgb(0%, 50.19989%, 21.569824%)" fill-opacity="1"><g transform="translate(378.711251, 1056.529245)"><g><path d="M 67.328125 -25.078125 C 66.347656 -16.722656 63.257812 -10.269531 58.0625 -5.71875 C 52.875 -1.175781 45.972656 1.09375 37.359375 1.09375 C 28.015625 1.09375 20.53125 -2.253906 14.90625 -8.953125 C 9.28125 -15.648438 6.46875 -24.613281 6.46875 -35.84375 L 6.46875 -43.4375 C 6.46875 -50.789062 7.773438 -57.253906 10.390625 -62.828125 C 13.015625 -68.398438 16.734375 -72.675781 21.546875 -75.65625 C 26.367188 -78.644531 31.945312 -80.140625 38.28125 -80.140625 C 46.675781 -80.140625 53.40625 -77.796875 58.46875 -73.109375 C 63.539062 -68.421875 66.492188 -61.929688 67.328125 -53.640625 L 56.84375 -53.640625 C 55.945312 -59.941406 53.984375 -64.503906 50.953125 -67.328125 C 47.929688 -70.148438 43.707031 -71.5625 38.28125 -71.5625 C 31.625 -71.5625 26.398438 -69.097656 22.609375 -64.171875 C 18.828125 -59.253906 16.9375 -52.253906 16.9375 -43.171875 L 16.9375 -35.515625 C 16.9375 -26.929688 18.726562 -20.101562 22.3125 -15.03125 C 25.894531 -9.96875 30.910156 -7.4375 37.359375 -7.4375 C 43.148438 -7.4375 47.59375 -8.75 50.6875 -11.375 C 53.78125 -14 55.832031 -18.566406 56.84375 -25.078125 Z M 67.328125 -25.078125 "/></g></g></g><g fill="rgb(0%, 50.19989%, 21.569824%)" fill-opacity="1"><g transform="translate(456.760404, 1056.529245)"><g><path d="M 33.28125 -39.359375 L 53.921875 -79.0625 L 65.75 -79.0625 L 38.5 -29.484375 L 38.5 0 L 28.078125 0 L 28.078125 -29.484375 L 0.8125 -79.0625 L 12.765625 -79.0625 Z M 33.28125 -39.359375 "/></g></g></g><g fill="rgb(0%, 50.19989%, 21.569824%)" fill-opacity="1"><g transform="translate(529.217026, 1056.529245)"><g><path d="M 67.328125 -25.078125 C 66.347656 -16.722656 63.257812 -10.269531 58.0625 -5.71875 C 52.875 -1.175781 45.972656 1.09375 37.359375 1.09375 C 28.015625 1.09375 20.53125 -2.253906 14.90625 -8.953125 C 9.28125 -15.648438 6.46875 -24.613281 6.46875 -35.84375 L 6.46875 -43.4375 C 6.46875 -50.789062 7.773438 -57.253906 10.390625 -62.828125 C 13.015625 -68.398438 16.734375 -72.675781 21.546875 -75.65625 C 26.367188 -78.644531 31.945312 -80.140625 38.28125 -80.140625 C 46.675781 -80.140625 53.40625 -77.796875 58.46875 -73.109375 C 63.539062 -68.421875 66.492188 -61.929688 67.328125 -53.640625 L 56.84375 -53.640625 C 55.945312 -59.941406 53.984375 -64.503906 50.953125 -67.328125 C 47.929688 -70.148438 43.707031 -71.5625 38.28125 -71.5625 C 31.625 -71.5625 26.398438 -69.097656 22.609375 -64.171875 C 18.828125 -59.253906 16.9375 -52.253906 16.9375 -43.171875 L 16.9375 -35.515625 C 16.9375 -26.929688 18.726562 -20.101562 22.3125 -15.03125 C 25.894531 -9.96875 30.910156 -7.4375 37.359375 -7.4375 C 43.148438 -7.4375 47.59375 -8.75 50.6875 -11.375 C 53.78125 -14 55.832031 -18.566406 56.84375 -25.078125 Z M 67.328125 -25.078125 "/></g></g></g><g fill="rgb(0%, 50.19989%, 21.569824%)" fill-opacity="1"><g transform="translate(607.26619, 1056.529245)"><g><path d="M 19.65625 -8.53125 L 57.125 -8.53125 L 57.125 0 L 9.171875 0 L 9.171875 -79.0625 L 19.65625 -79.0625 Z M 19.65625 -8.53125 "/></g></g></g><g fill="rgb(0%, 50.19989%, 21.569824%)" fill-opacity="1"><g transform="translate(672.772843, 1056.529245)"><g><path d="M 52.828125 -20.640625 L 19.703125 -20.640625 L 12.265625 0 L 1.515625 0 L 31.703125 -79.0625 L 40.828125 -79.0625 L 71.078125 0 L 60.375 0 Z M 22.859375 -29.21875 L 49.734375 -29.21875 L 36.265625 -66.1875 Z M 22.859375 -29.21875 "/></g></g></g><g fill="rgb(0%, 50.19989%, 21.569824%)" fill-opacity="1"><g transform="translate(750.984902, 1056.529245)"><g><path d="M 9.171875 0 L 9.171875 -79.0625 L 35.015625 -79.0625 C 43.597656 -79.0625 50.050781 -77.285156 54.375 -73.734375 C 58.707031 -70.191406 60.875 -64.941406 60.875 -57.984375 C 60.875 -54.296875 59.820312 -51.03125 57.71875 -48.1875 C 55.613281 -45.34375 52.753906 -43.144531 49.140625 -41.59375 C 53.410156 -40.394531 56.785156 -38.117188 59.265625 -34.765625 C 61.742188 -31.421875 62.984375 -27.4375 62.984375 -22.8125 C 62.984375 -15.707031 60.679688 -10.128906 56.078125 -6.078125 C 51.484375 -2.023438 44.988281 0 36.59375 0 Z M 19.609375 -36.984375 L 19.609375 -8.53125 L 36.8125 -8.53125 C 41.664062 -8.53125 45.492188 -9.785156 48.296875 -12.296875 C 51.097656 -14.816406 52.5 -18.285156 52.5 -22.703125 C 52.5 -32.222656 47.328125 -36.984375 36.984375 -36.984375 Z M 19.609375 -45.34375 L 35.34375 -45.34375 C 39.90625 -45.34375 43.550781 -46.484375 46.28125 -48.765625 C 49.019531 -51.046875 50.390625 -54.140625 50.390625 -58.046875 C 50.390625 -62.390625 49.117188 -65.546875 46.578125 -67.515625 C 44.046875 -69.492188 40.191406 -70.484375 35.015625 -70.484375 L 19.609375 -70.484375 Z M 19.609375 -45.34375 "/></g></g></g><g fill="rgb(0%, 50.19989%, 21.569824%)" fill-opacity="1"><g transform="translate(825.884859, 1056.529245)"><g><path d="M 19.65625 -8.53125 L 57.125 -8.53125 L 57.125 0 L 9.171875 0 L 9.171875 -79.0625 L 19.65625 -79.0625 Z M 19.65625 -8.53125 "/></g></g></g><g fill="rgb(0%, 50.19989%, 21.569824%)" fill-opacity="1"><g transform="translate(891.391558, 1056.529245)"><g><path d="M 53.859375 -36.546875 L 19.609375 -36.546875 L 19.609375 -8.53125 L 59.40625 -8.53125 L 59.40625 0 L 9.171875 0 L 9.171875 -79.0625 L 58.859375 -79.0625 L 58.859375 -70.484375 L 19.609375 -70.484375 L 19.609375 -45.0625 L 53.859375 -45.0625 Z M 53.859375 -36.546875 "/></g></g></g><g fill="rgb(0%, 50.19989%, 21.569824%)" fill-opacity="1"><g transform="translate(263.294295, 1213.099153)"><g><path d="M 19.609375 -30.953125 L 19.609375 0 L 9.171875 0 L 9.171875 -79.0625 L 38.328125 -79.0625 C 46.984375 -79.0625 53.765625 -76.851562 58.671875 -72.4375 C 63.578125 -68.019531 66.03125 -62.171875 66.03125 -54.890625 C 66.03125 -47.222656 63.628906 -41.316406 58.828125 -37.171875 C 54.035156 -33.023438 47.164062 -30.953125 38.21875 -30.953125 Z M 19.609375 -39.46875 L 38.328125 -39.46875 C 43.910156 -39.46875 48.1875 -40.78125 51.15625 -43.40625 C 54.125 -46.03125 55.609375 -49.820312 55.609375 -54.78125 C 55.609375 -59.488281 54.125 -63.253906 51.15625 -66.078125 C 48.1875 -68.898438 44.113281 -70.367188 38.9375 -70.484375 L 19.609375 -70.484375 Z M 19.609375 -39.46875 "/></g></g></g><g fill="rgb(0%, 50.19989%, 21.569824%)" fill-opacity="1"><g transform="translate(339.117298, 1213.099153)"><g><path d="M 52.828125 -20.640625 L 19.703125 -20.640625 L 12.265625 0 L 1.515625 0 L 31.703125 -79.0625 L 40.828125 -79.0625 L 71.078125 0 L 60.375 0 Z M 22.859375 -29.21875 L 49.734375 -29.21875 L 36.265625 -66.1875 Z M 22.859375 -29.21875 "/></g></g></g><g fill="rgb(0%, 50.19989%, 21.569824%)" fill-opacity="1"><g transform="translate(417.329345, 1213.099153)"><g><path d="M 67.328125 -25.078125 C 66.347656 -16.722656 63.257812 -10.269531 58.0625 -5.71875 C 52.875 -1.175781 45.972656 1.09375 37.359375 1.09375 C 28.015625 1.09375 20.53125 -2.253906 14.90625 -8.953125 C 9.28125 -15.648438 6.46875 -24.613281 6.46875 -35.84375 L 6.46875 -43.4375 C 6.46875 -50.789062 7.773438 -57.253906 10.390625 -62.828125 C 13.015625 -68.398438 16.734375 -72.675781 21.546875 -75.65625 C 26.367188 -78.644531 31.945312 -80.140625 38.28125 -80.140625 C 46.675781 -80.140625 53.40625 -77.796875 58.46875 -73.109375 C 63.539062 -68.421875 66.492188 -61.929688 67.328125 -53.640625 L 56.84375 -53.640625 C 55.945312 -59.941406 53.984375 -64.503906 50.953125 -67.328125 C 47.929688 -70.148438 43.707031 -71.5625 38.28125 -71.5625 C 31.625 -71.5625 26.398438 -69.097656 22.609375 -64.171875 C 18.828125 -59.253906 16.9375 -52.253906 16.9375 -43.171875 L 16.9375 -35.515625 C 16.9375 -26.929688 18.726562 -20.101562 22.3125 -15.03125 C 25.894531 -9.96875 30.910156 -7.4375 37.359375 -7.4375 C 43.148438 -7.4375 47.59375 -8.75 50.6875 -11.375 C 53.78125 -14 55.832031 -18.566406 56.84375 -25.078125 Z M 67.328125 -25.078125 "/></g></g></g><g fill="rgb(0%, 50.19989%, 21.569824%)" fill-opacity="1"><g transform="translate(495.378508, 1213.099153)"><g><path d="M 29.265625 -36.765625 L 19.609375 -26.71875 L 19.609375 0 L 9.171875 0 L 9.171875 -79.0625 L 19.609375 -79.0625 L 19.609375 -39.96875 L 54.734375 -79.0625 L 67.328125 -79.0625 L 36.21875 -44.140625 L 69.78125 0 L 57.28125 0 Z M 29.265625 -36.765625 "/></g></g></g><g fill="rgb(0%, 50.19989%, 21.569824%)" fill-opacity="1"><g transform="translate(570.767152, 1213.099153)"><g><path d="M 52.828125 -20.640625 L 19.703125 -20.640625 L 12.265625 0 L 1.515625 0 L 31.703125 -79.0625 L 40.828125 -79.0625 L 71.078125 0 L 60.375 0 Z M 22.859375 -29.21875 L 49.734375 -29.21875 L 36.265625 -66.1875 Z M 22.859375 -29.21875 "/></g></g></g><g fill="rgb(0%, 50.19989%, 21.569824%)" fill-opacity="1"><g transform="translate(648.97921, 1213.099153)"><g><path d="M 67.546875 -10.375 C 64.867188 -6.53125 61.128906 -3.65625 56.328125 -1.75 C 51.535156 0.144531 45.953125 1.09375 39.578125 1.09375 C 33.140625 1.09375 27.421875 -0.414062 22.421875 -3.4375 C 17.429688 -6.46875 13.566406 -10.769531 10.828125 -16.34375 C 8.097656 -21.914062 6.695312 -28.378906 6.625 -35.734375 L 6.625 -42.625 C 6.625 -54.53125 9.398438 -63.757812 14.953125 -70.3125 C 20.515625 -76.863281 28.328125 -80.140625 38.390625 -80.140625 C 46.640625 -80.140625 53.28125 -78.03125 58.3125 -73.8125 C 63.34375 -69.601562 66.421875 -63.625 67.546875 -55.875 L 57.125 -55.875 C 55.164062 -66.332031 48.9375 -71.5625 38.4375 -71.5625 C 31.457031 -71.5625 26.164062 -69.109375 22.5625 -64.203125 C 18.957031 -59.296875 17.140625 -52.191406 17.109375 -42.890625 L 17.109375 -36.4375 C 17.109375 -27.5625 19.132812 -20.507812 23.1875 -15.28125 C 27.238281 -10.050781 32.722656 -7.4375 39.640625 -7.4375 C 43.546875 -7.4375 46.960938 -7.867188 49.890625 -8.734375 C 52.828125 -9.609375 55.253906 -11.078125 57.171875 -13.140625 L 57.171875 -30.890625 L 38.875 -30.890625 L 38.875 -39.359375 L 67.546875 -39.359375 Z M 67.546875 -10.375 "/></g></g></g><g fill="rgb(0%, 50.19989%, 21.569824%)" fill-opacity="1"><g transform="translate(730.394742, 1213.099153)"><g><path d="M 20.359375 0 L 9.9375 0 L 9.9375 -79.0625 L 20.359375 -79.0625 Z M 20.359375 0 "/></g></g></g><g fill="rgb(0%, 50.19989%, 21.569824%)" fill-opacity="1"><g transform="translate(766.309878, 1213.099153)"><g><path d="M 69.9375 0 L 59.453125 0 L 19.65625 -60.921875 L 19.65625 0 L 9.171875 0 L 9.171875 -79.0625 L 19.65625 -79.0625 L 59.5625 -17.859375 L 59.5625 -79.0625 L 69.9375 -79.0625 Z M 69.9375 0 "/></g></g></g><g fill="rgb(0%, 50.19989%, 21.569824%)" fill-opacity="1"><g transform="translate(851.254675, 1213.099153)"><g><path d="M 67.546875 -10.375 C 64.867188 -6.53125 61.128906 -3.65625 56.328125 -1.75 C 51.535156 0.144531 45.953125 1.09375 39.578125 1.09375 C 33.140625 1.09375 27.421875 -0.414062 22.421875 -3.4375 C 17.429688 -6.46875 13.566406 -10.769531 10.828125 -16.34375 C 8.097656 -21.914062 6.695312 -28.378906 6.625 -35.734375 L 6.625 -42.625 C 6.625 -54.53125 9.398438 -63.757812 14.953125 -70.3125 C 20.515625 -76.863281 28.328125 -80.140625 38.390625 -80.140625 C 46.640625 -80.140625 53.28125 -78.03125 58.3125 -73.8125 C 63.34375 -69.601562 66.421875 -63.625 67.546875 -55.875 L 57.125 -55.875 C 55.164062 -66.332031 48.9375 -71.5625 38.4375 -71.5625 C 31.457031 -71.5625 26.164062 -69.109375 22.5625 -64.203125 C 18.957031 -59.296875 17.140625 -52.191406 17.109375 -42.890625 L 17.109375 -36.4375 C 17.109375 -27.5625 19.132812 -20.507812 23.1875 -15.28125 C 27.238281 -10.050781 32.722656 -7.4375 39.640625 -7.4375 C 43.546875 -7.4375 46.960938 -7.867188 49.890625 -8.734375 C 52.828125 -9.609375 55.253906 -11.078125 57.171875 -13.140625 L 57.171875 -30.890625 L 38.875 -30.890625 L 38.875 -39.359375 L 67.546875 -39.359375 Z M 67.546875 -10.375 "/></g></g></g></svg>