<svg xmlns="http://www.w3.org/2000/svg" xmlns:xlink="http://www.w3.org/1999/xlink" width="1587" zoomAndPan="magnify" viewBox="0 0 1190.25 1683.749945" height="2245" preserveAspectRatio="xMidYMid meet" version="1.0"><defs><g><g id="id1"/></g><clipPath id="id2"><path d="M 465.414062 441.449219 L 724.773438 441.449219 L 724.773438 986.441406 L 465.414062 986.441406 Z M 465.414062 441.449219 " clip-rule="nonzero"/></clipPath></defs><g clip-path="url(#id2)"><path fill="rgb(0%, 50.19989%, 21.569824%)" d="M 643.816406 921.851562 L 645 919.953125 L 640.851562 922.054688 L 641.902344 922.824219 L 642.835938 922.777344 Z M 625.480469 981.777344 L 625.992188 980.371094 L 622.78125 982.71875 L 624.503906 983.339844 L 625.191406 982.898438 Z M 665.554688 506.984375 L 672.5625 511.078125 L 667.964844 511.90625 L 661.816406 514.320312 L 655.980469 517.453125 L 652.324219 520.441406 L 651.164062 522.90625 L 650.800781 525.226562 L 650.226562 527.449219 L 648.445312 529.640625 L 645.554688 531.40625 L 643.800781 531.421875 L 642.324219 530.765625 L 640.257812 530.515625 L 628.972656 530.578125 L 627.363281 531.476562 L 627.367188 531.746094 L 627.859375 532.492188 L 627.6875 534.839844 L 627.816406 535.957031 L 629.027344 538.546875 L 629.210938 539.792969 L 628.65625 541.082031 L 626.597656 543.175781 L 625.757812 544.417969 L 621.230469 554.621094 L 618.15625 559.132812 L 613.574219 563.566406 L 603.8125 570.667969 L 600.136719 574.800781 L 597.25 581.203125 L 594.214844 595.753906 L 592.804688 600.621094 L 590.503906 605.382812 L 590.339844 607.226562 L 591.195312 610.675781 L 592.082031 612.828125 L 598.964844 623.847656 L 602.328125 627.707031 L 615.429688 638.988281 L 617.878906 641.5625 L 619.535156 644.273438 L 619.800781 646.308594 L 619.269531 651.167969 L 619.621094 653.757812 L 616.277344 652.582031 L 615.261719 652.066406 L 620.867188 656.203125 L 638.007812 674.875 L 643.929688 682.769531 L 646.261719 684.882812 L 654.121094 690.945312 L 664.800781 702.761719 L 668.496094 705.824219 L 669.863281 705.992188 L 673.042969 704.980469 L 674.578125 705.265625 L 676.34375 706.945312 L 701.558594 741.246094 L 706.109375 750.960938 L 719.226562 794.167969 L 719.183594 799.523438 L 717.734375 796.25 L 718.191406 807.773438 L 719.613281 818.886719 L 720.511719 821.46875 L 723.152344 826.5625 L 724 829.019531 L 724.300781 832.253906 L 724.222656 838.710938 L 724.746094 841.980469 L 723.824219 840.582031 L 721.769531 837.910156 L 720.871094 836.445312 L 717.808594 838.996094 L 717.339844 842.1875 L 718.363281 845.789062 L 719.777344 849.554688 L 716.308594 848.671875 L 717.742188 867.058594 L 716.578125 863.371094 L 715.507812 866.074219 L 715.714844 868.632812 L 716.199219 871.039062 L 715.960938 873.28125 L 713.671875 878.203125 L 713.296875 878.296875 L 709.730469 882.425781 L 708.871094 883.878906 L 707.804688 886.75 L 706.980469 887.980469 L 698.90625 892.199219 L 683.839844 901.824219 L 682.191406 902.390625 L 678.511719 902.964844 L 676.898438 903.65625 L 675.570312 905.089844 L 673.46875 908.792969 L 672.148438 910.234375 L 668.769531 912.101562 L 651.089844 919.410156 L 645.421875 920.082031 L 640.730469 918.078125 L 638.324219 912.207031 L 637.792969 914.738281 L 637.472656 917.804688 L 636.753906 920.535156 L 635.019531 922.066406 L 631.914062 921.3125 L 629.863281 918.761719 L 627.667969 917.164062 L 624.121094 919.261719 L 626.234375 919.226562 L 628.160156 919.808594 L 629.582031 921.082031 L 630.183594 923.136719 L 628.875 925.25 L 625.65625 925.800781 L 619.09375 925.269531 L 628.550781 930.132812 L 629.914062 933.277344 L 625.972656 937.863281 L 623.480469 940.207031 L 622.425781 939.980469 L 619.5625 938.859375 L 616.320312 936.933594 L 607.480469 928.03125 L 611.714844 932.925781 L 617.847656 939.015625 L 622.242188 945.277344 L 621.269531 950.683594 L 615.261719 951.542969 L 608.542969 946.648438 L 602.035156 940.097656 L 596.660156 935.992188 L 604.535156 944.234375 L 608.519531 949.4375 L 609.953125 953.929688 L 607.792969 957.984375 L 603.460938 960.792969 L 593.859375 964.53125 L 585.316406 970.957031 L 577.785156 979.066406 L 569.589844 985.382812 L 559.066406 986.425781 L 560.285156 985.226562 L 562.347656 982.328125 L 563.53125 981.078125 L 560.707031 977.199219 L 560.039062 971.296875 L 561.773438 949.453125 L 562.75 946.414062 L 564.367188 944.5 L 570.484375 939.582031 L 569.855469 936.027344 L 566.96875 932.796875 L 563.265625 930.246094 L 560.1875 928.714844 L 558.4375 928.503906 L 556.890625 928.910156 L 555.316406 929.167969 L 553.476562 928.539062 L 551.972656 927.078125 L 548.75 922.894531 L 546.875 921.199219 L 551.050781 918.886719 L 559.539062 916.621094 L 563.707031 914.738281 L 565.710938 913.074219 L 567.03125 911.316406 L 568.929688 908.195312 L 568.929688 907.261719 L 568.371094 905.964844 L 567.957031 904.625 L 568.410156 903.589844 L 569.636719 903.253906 L 572.222656 903.878906 L 573.429688 903.8125 L 574.460938 903.851562 L 576.796875 905.003906 L 577.820312 905.246094 L 578.839844 904.703125 L 580.207031 902.5625 L 581.246094 901.902344 L 586.910156 900.574219 L 590.03125 900.085938 L 592.445312 900.195312 L 596.378906 901.976562 L 599.777344 904.238281 L 603.511719 906.273438 L 608.460938 907.355469 L 607.984375 904.992188 L 608.613281 900.4375 L 608.347656 898.605469 L 606.460938 896.554688 L 600.851562 893.15625 L 598.808594 891.09375 L 597.582031 887.839844 L 596.984375 883.824219 L 597.109375 879.851562 L 598.066406 876.734375 L 601.203125 873.878906 L 604.921875 873.707031 L 608.925781 874.558594 L 612.910156 874.800781 L 616.414062 873.320312 L 617.386719 870.90625 L 617.984375 867.992188 L 620.355469 865 L 621.75 864.582031 L 628.605469 863.175781 L 631.386719 862.1875 L 634.066406 860.9375 L 639.335938 857.832031 L 641.230469 856.347656 L 642.878906 854.800781 L 644.621094 853.414062 L 646.804688 852.398438 L 648.859375 852.335938 L 651.808594 853.644531 L 653.433594 853.339844 L 657.050781 849.179688 L 657.699219 843.664062 L 655.953125 832.507812 L 656.28125 826.535156 L 659.011719 815.023438 L 659.242188 809.171875 L 657.664062 803.875 L 652.050781 793.558594 L 650.234375 788.421875 L 650.726562 781.929688 L 655.992188 770.914062 L 656.5 765.125 L 656.339844 762.542969 L 655.230469 756.886719 L 655.257812 754.660156 L 656.4375 752.621094 L 658.292969 750.75 L 660.042969 748.699219 L 660.894531 746.125 L 658.640625 740.542969 L 647.621094 732.199219 L 644.808594 726.816406 L 646.070312 722.875 L 648.976562 720.917969 L 651.101562 718.921875 L 650.023438 714.851562 L 645.878906 710.460938 L 635.664062 703.277344 L 632.152344 698.046875 L 627.980469 700.589844 L 624.957031 697.464844 L 621.621094 687.953125 L 619.066406 682.480469 L 615.957031 677.707031 L 612.15625 673.257812 L 597.296875 659.109375 L 592.742188 653.835938 L 588.914062 647.917969 L 586.277344 642.207031 L 584.734375 639.597656 L 582.414062 637.085938 L 579.925781 635.503906 L 577.257812 634.261719 L 574.703125 632.671875 L 572.558594 630.039062 L 571.070312 625.238281 L 571.324219 621.960938 L 570.792969 619.234375 L 566.960938 616.089844 L 563.273438 614.363281 L 555.554688 611.644531 L 551.808594 609.753906 L 537.980469 600.140625 L 531.414062 596.480469 L 529.597656 594.652344 L 533.890625 587.007812 L 534.3125 584.046875 L 533.40625 582.683594 L 533.191406 581.816406 L 535.699219 580.335938 L 539.570312 579.855469 L 543.550781 581.054688 L 547.460938 582.550781 L 551.125 582.960938 L 555.976562 579.9375 L 560.773438 573.882812 L 563.777344 567.097656 L 563.257812 561.890625 L 562.058594 561.015625 L 560.707031 560.753906 L 559.453125 560.667969 L 558.546875 560.304688 L 555.582031 557.453125 L 555.175781 556.984375 L 550.566406 553.992188 L 548.007812 552.679688 L 544.800781 551.59375 L 549.15625 548.46875 L 551.304688 546.644531 L 552.292969 544.695312 L 550.976562 542.332031 L 547.765625 539.566406 L 541.421875 535.441406 L 537.722656 533.621094 L 534.757812 532.980469 L 531.78125 533.566406 L 528.050781 535.433594 L 521.4375 539.695312 L 518.828125 540.195312 L 514.367188 539.5625 L 506.4375 537.101562 L 499.28125 532.882812 L 493.929688 526.851562 L 491.421875 518.933594 L 491.871094 515.601562 L 494.457031 509.179688 L 494.789062 506.039062 L 494.058594 504.316406 L 492.679688 502.71875 L 491.105469 501.183594 L 489.796875 499.648438 L 487.972656 504.78125 L 485.988281 504.320312 L 482.488281 497.953125 L 478.445312 493 L 468.878906 483.328125 L 465.394531 477.761719 L 470.597656 472.316406 L 474.160156 467.160156 L 478.320312 464.589844 L 485.304688 466.902344 L 493.320312 474.015625 L 495.679688 475.109375 L 498.59375 474.078125 L 500.667969 471.546875 L 502.441406 468.617188 L 505.570312 465.242188 L 506.269531 464.066406 L 507.058594 463.21875 L 508.417969 463.046875 L 509.761719 464.15625 L 511.816406 468.371094 L 513.015625 469.382812 L 514.949219 468.546875 L 516.804688 463.921875 L 518.605469 462.515625 L 521.378906 463.859375 L 524.230469 467.382812 L 527.308594 470.636719 L 530.75 471.1875 L 532.390625 469.238281 L 533.210938 466.273438 L 534.476562 463.34375 L 537.449219 461.5 L 539.253906 461.753906 L 540.171875 463.023438 L 540.949219 464.40625 L 542.335938 464.980469 L 544.367188 464.609375 L 545.679688 463.949219 L 546.988281 463.171875 L 549.011719 462.433594 L 553.714844 461.265625 L 556.136719 460.398438 L 557.992188 459.265625 L 559.828125 456.683594 L 561.589844 450.871094 L 563.21875 448.171875 L 565.507812 446.484375 L 573.140625 442.351562 L 575.667969 441.464844 L 581.082031 443.253906 L 590.246094 452.957031 L 596.011719 455.972656 L 598.804688 456.035156 L 603.664062 454.957031 L 606.492188 454.941406 L 608.714844 455.71875 L 611.980469 458.304688 L 614.109375 459.207031 L 617.871094 458.96875 L 622.820312 458.265625 L 627.464844 458.835938 L 630.304688 462.40625 L 629.710938 465.117188 L 627.367188 467.410156 L 624.667969 469.351562 L 623.007812 471.003906 L 621.910156 474.945312 L 622.59375 477.136719 L 624.03125 478.808594 L 625.207031 481.234375 L 625.695312 484.171875 L 626.164062 493.09375 L 631.640625 492.9375 L 636.332031 495.515625 L 644.421875 503.09375 L 651.269531 506.089844 Z M 528.585938 925.320312 L 530.332031 928.328125 L 531.625 931.574219 L 532.417969 934.964844 L 533.96875 929.554688 L 534.25 924.15625 L 532.113281 921.082031 L 526.429688 922.644531 Z M 636.234375 538.074219 L 638.160156 539.695312 L 640.375 537.347656 L 636.382812 536.085938 Z M 654.613281 533.976562 L 656.320312 533.097656 L 657.339844 531.464844 L 657.632812 529.117188 L 656.363281 530.453125 L 652.242188 534.074219 Z M 659.457031 522.167969 L 658.472656 521.667969 L 656.0625 520.847656 L 654.96875 520.179688 L 654.097656 521.671875 L 653.304688 523.390625 L 652.699219 525.175781 L 652.390625 526.851562 L 654.425781 526.355469 L 656.316406 525.367188 L 658.011719 523.949219 Z M 631.742188 534.121094 L 632.375 535.152344 L 633.328125 537.40625 L 631.976562 536.871094 L 630.949219 536.257812 L 630.488281 535.152344 L 630.835938 533.148438 L 631.742188 534.121094 " fill-opacity="1" fill-rule="nonzero"/></g><g fill="rgb(0%, 50.19989%, 21.569824%)" fill-opacity="1"><g transform="translate(337.177566, 1110.231543)"><g><path d="M 25.46875 -9.984375 L 41.75 -56.96875 L 49.96875 -56.96875 L 28.84375 0 L 22.1875 0 L 1.09375 -56.96875 L 9.28125 -56.96875 Z M 25.46875 -9.984375 "/></g></g></g><g fill="rgb(0%, 50.19989%, 21.569824%)" fill-opacity="1"><g transform="translate(391.695895, 1110.231543)"><g><path d="M 14.671875 0 L 7.15625 0 L 7.15625 -56.96875 L 14.671875 -56.96875 Z M 14.671875 0 "/></g></g></g><g fill="rgb(0%, 50.19989%, 21.569824%)" fill-opacity="1"><g transform="translate(417.020162, 1110.231543)"><g><path d="M 38.8125 -26.328125 L 14.125 -26.328125 L 14.125 -6.140625 L 42.8125 -6.140625 L 42.8125 0 L 6.609375 0 L 6.609375 -56.96875 L 42.421875 -56.96875 L 42.421875 -50.796875 L 14.125 -50.796875 L 14.125 -32.484375 L 38.8125 -32.484375 Z M 38.8125 -26.328125 "/></g></g></g><g fill="rgb(0%, 50.19989%, 21.569824%)" fill-opacity="1"><g transform="translate(466.098836, 1110.231543)"><g><path d="M 45.984375 -50.796875 L 27.671875 -50.796875 L 27.671875 0 L 20.1875 0 L 20.1875 -50.796875 L 1.921875 -50.796875 L 1.921875 -56.96875 L 45.984375 -56.96875 Z M 45.984375 -50.796875 "/></g></g></g><g fill="rgb(0%, 50.19989%, 21.569824%)" fill-opacity="1"><g transform="translate(517.447304, 1110.231543)"><g><path d="M 50.40625 0 L 42.84375 0 L 14.171875 -43.90625 L 14.171875 0 L 6.609375 0 L 6.609375 -56.96875 L 14.171875 -56.96875 L 42.921875 -12.875 L 42.921875 -56.96875 L 50.40625 -56.96875 Z M 50.40625 0 "/></g></g></g><g fill="rgb(0%, 50.19989%, 21.569824%)" fill-opacity="1"><g transform="translate(578.109703, 1110.231543)"><g><path d="M 38.078125 -14.875 L 14.203125 -14.875 L 8.84375 0 L 1.09375 0 L 22.859375 -56.96875 L 29.421875 -56.96875 L 51.21875 0 L 43.515625 0 Z M 16.46875 -21.046875 L 35.84375 -21.046875 L 26.140625 -47.703125 Z M 16.46875 -21.046875 "/></g></g></g><g fill="rgb(0%, 50.19989%, 21.569824%)" fill-opacity="1"><g transform="translate(633.919455, 1110.231543)"><g><path d="M 16.3125 -56.96875 L 34.9375 -10.484375 L 53.578125 -56.96875 L 63.3125 -56.96875 L 63.3125 0 L 55.796875 0 L 55.796875 -22.1875 L 56.5 -46.140625 L 37.796875 0 L 32.046875 0 L 13.390625 -46.015625 L 14.125 -22.1875 L 14.125 0 L 6.609375 0 L 6.609375 -56.96875 Z M 16.3125 -56.96875 "/></g></g></g><g fill="rgb(0%, 50.19989%, 21.569824%)" fill-opacity="1"><g transform="translate(707.41782, 1110.231543)"><g><path d="M 38.8125 -26.328125 L 14.125 -26.328125 L 14.125 -6.140625 L 42.8125 -6.140625 L 42.8125 0 L 6.609375 0 L 6.609375 -56.96875 L 42.421875 -56.96875 L 42.421875 -50.796875 L 14.125 -50.796875 L 14.125 -32.484375 L 38.8125 -32.484375 Z M 38.8125 -26.328125 "/></g></g></g><g fill="rgb(0%, 50.19989%, 21.569824%)" fill-opacity="1"><g transform="translate(756.496487, 1110.231543)"><g><path d="M 23.40625 -25.390625 C 16.957031 -27.242188 12.265625 -29.519531 9.328125 -32.21875 C 6.398438 -34.925781 4.9375 -38.257812 4.9375 -42.21875 C 4.9375 -46.707031 6.726562 -50.414062 10.3125 -53.34375 C 13.894531 -56.28125 18.554688 -57.75 24.296875 -57.75 C 28.210938 -57.75 31.703125 -56.992188 34.765625 -55.484375 C 37.828125 -53.972656 40.195312 -51.882812 41.875 -49.21875 C 43.5625 -46.5625 44.40625 -43.65625 44.40625 -40.5 L 36.859375 -40.5 C 36.859375 -43.945312 35.757812 -46.65625 33.5625 -48.625 C 31.375 -50.59375 28.285156 -51.578125 24.296875 -51.578125 C 20.597656 -51.578125 17.707031 -50.757812 15.625 -49.125 C 13.550781 -47.5 12.515625 -45.238281 12.515625 -42.34375 C 12.515625 -40.019531 13.5 -38.054688 15.46875 -36.453125 C 17.445312 -34.847656 20.800781 -33.378906 25.53125 -32.046875 C 30.269531 -30.710938 33.972656 -29.242188 36.640625 -27.640625 C 39.316406 -26.035156 41.300781 -24.164062 42.59375 -22.03125 C 43.882812 -19.894531 44.53125 -17.378906 44.53125 -14.484375 C 44.53125 -9.859375 42.726562 -6.15625 39.125 -3.375 C 35.53125 -0.601562 30.71875 0.78125 24.6875 0.78125 C 20.78125 0.78125 17.128906 0.03125 13.734375 -1.46875 C 10.335938 -2.96875 7.71875 -5.019531 5.875 -7.625 C 4.039062 -10.238281 3.125 -13.203125 3.125 -16.515625 L 10.6875 -16.515625 C 10.6875 -13.066406 11.957031 -10.34375 14.5 -8.34375 C 17.039062 -6.351562 20.4375 -5.359375 24.6875 -5.359375 C 28.65625 -5.359375 31.695312 -6.164062 33.8125 -7.78125 C 35.925781 -9.40625 36.984375 -11.613281 36.984375 -14.40625 C 36.984375 -17.195312 36.003906 -19.351562 34.046875 -20.875 C 32.085938 -22.40625 28.539062 -23.910156 23.40625 -25.390625 Z M 23.40625 -25.390625 "/></g></g></g><g fill="rgb(0%, 50.19989%, 21.569824%)" fill-opacity="1"><g transform="translate(807.570998, 1110.231543)"><g><path d="M 38.8125 -26.328125 L 14.125 -26.328125 L 14.125 -6.140625 L 42.8125 -6.140625 L 42.8125 0 L 6.609375 0 L 6.609375 -56.96875 L 42.421875 -56.96875 L 42.421875 -50.796875 L 14.125 -50.796875 L 14.125 -32.484375 L 38.8125 -32.484375 Z M 38.8125 -26.328125 "/></g></g></g><g fill="rgb(0%, 50.19989%, 21.569824%)" fill-opacity="1"><g transform="translate(479.675846, 1222.132031)"><g><path d="M 16.3125 -56.96875 L 34.9375 -10.484375 L 53.578125 -56.96875 L 63.3125 -56.96875 L 63.3125 0 L 55.796875 0 L 55.796875 -22.1875 L 56.5 -46.140625 L 37.796875 0 L 32.046875 0 L 13.390625 -46.015625 L 14.125 -22.1875 L 14.125 0 L 6.609375 0 L 6.609375 -56.96875 Z M 16.3125 -56.96875 "/></g></g></g><g fill="rgb(0%, 50.19989%, 21.569824%)" fill-opacity="1"><g transform="translate(553.174225, 1222.132031)"><g><path d="M 38.078125 -14.875 L 14.203125 -14.875 L 8.84375 0 L 1.09375 0 L 22.859375 -56.96875 L 29.421875 -56.96875 L 51.21875 0 L 43.515625 0 Z M 16.46875 -21.046875 L 35.84375 -21.046875 L 26.140625 -47.703125 Z M 16.46875 -21.046875 "/></g></g></g><g fill="rgb(0%, 50.19989%, 21.569824%)" fill-opacity="1"><g transform="translate(608.983977, 1222.132031)"><g><path d="M 6.609375 0 L 6.609375 -56.96875 L 22.703125 -56.96875 C 27.648438 -56.96875 32.03125 -55.875 35.84375 -53.6875 C 39.65625 -51.5 42.597656 -48.378906 44.671875 -44.328125 C 46.742188 -40.285156 47.789062 -35.644531 47.8125 -30.40625 L 47.8125 -26.765625 C 47.8125 -21.390625 46.773438 -16.679688 44.703125 -12.640625 C 42.628906 -8.597656 39.664062 -5.492188 35.8125 -3.328125 C 31.96875 -1.160156 27.492188 -0.0507812 22.390625 0 Z M 14.125 -50.796875 L 14.125 -6.140625 L 22.03125 -6.140625 C 27.820312 -6.140625 32.328125 -7.9375 35.546875 -11.53125 C 38.773438 -15.132812 40.390625 -20.265625 40.390625 -26.921875 L 40.390625 -30.25 C 40.390625 -36.71875 38.867188 -41.742188 35.828125 -45.328125 C 32.785156 -48.921875 28.472656 -50.742188 22.890625 -50.796875 Z M 14.125 -50.796875 "/></g></g></g><g fill="rgb(0%, 50.19989%, 21.569824%)" fill-opacity="1"><g transform="translate(665.067672, 1222.132031)"><g><path d="M 38.8125 -26.328125 L 14.125 -26.328125 L 14.125 -6.140625 L 42.8125 -6.140625 L 42.8125 0 L 6.609375 0 L 6.609375 -56.96875 L 42.421875 -56.96875 L 42.421875 -50.796875 L 14.125 -50.796875 L 14.125 -32.484375 L 38.8125 -32.484375 Z M 38.8125 -26.328125 "/></g></g></g></svg>